<svg width="1440" height="680" viewBox="0 0 1440 680" fill="none" xmlns="http://www.w3.org/2000/svg">
<g clip-path="url(#clip0_483_286)">
<path d="M1150.15 520C1000.22 520 868.223 412.531 868.223 252.142C868.223 105.593 969.26 -32 1157.48 -32C1308.22 -32 1440.22 75.469 1440.22 235.858C1440.22 382.407 1339.19 520 1150.15 520ZM1164.82 482.549C1257.7 482.549 1304.96 398.69 1304.96 277.381C1304.96 143.858 1254.44 6.26548 1142 6.26548C1049.93 6.26548 1002.67 90.1239 1002.67 209.805C1002.67 343.327 1052.37 482.549 1164.82 482.549Z" fill="#F7E8A5"/>
<line x1="1117.66" y1="-72.0944" x2="1188.76" y2="548.839" stroke="#FDFEF0" stroke-width="2" stroke-linecap="round" stroke-dasharray="10 10"/>
<mask id="mask0_483_286" style="mask-type:alpha" maskUnits="userSpaceOnUse" x="330" y="-265" width="1049" height="945">
<rect x="330" y="-265" width="1048.58" height="945" fill="#D9D9D9"/>
</mask>
<g mask="url(#mask0_483_286)">
<path d="M365.005 1282.84C342.796 1282.84 326.509 1276.92 326.509 1259.16C326.509 1239.92 341.315 1232.52 362.043 1226.59C418.307 1210.31 462.725 1177.75 484.934 1127.42C581.174 903.897 659.647 704.062 742.561 476.101C770.692 396.167 775.134 362.121 779.576 356.2C816.592 347.318 843.243 339.917 880.258 326.595C914.312 313.272 940.963 288.108 952.808 274.785C961.691 270.345 969.095 265.904 976.498 279.226C982.42 292.549 986.862 302.911 991.304 319.193C1074.22 585.641 1167.5 871.332 1250.41 1122.98C1269.66 1182.19 1314.08 1211.79 1373.3 1226.59C1394.03 1232.52 1408.84 1239.92 1408.84 1257.68C1408.84 1272.48 1395.51 1279.88 1379.22 1279.88C1320 1279.88 1205.99 1272.48 1139.36 1272.48C1081.62 1272.48 977.978 1278.4 917.273 1278.4C899.506 1278.4 884.7 1271 884.7 1257.68C884.7 1241.4 900.986 1231.04 920.234 1226.59C994.265 1210.31 1029.8 1191.07 1016.47 1137.78C1004.63 1083.01 983.901 1013.44 969.095 952.746C964.653 937.943 958.73 930.542 942.444 930.542H680.375C665.569 930.542 659.647 939.424 655.205 955.707C637.437 1009 616.709 1069.69 603.383 1120.02C590.058 1179.23 609.306 1205.87 695.181 1226.59C715.91 1231.04 730.716 1241.4 730.716 1257.68C730.716 1271 718.871 1278.4 696.662 1278.4C638.918 1278.4 594.5 1273.96 535.275 1273.96C476.051 1273.96 424.229 1282.84 365.005 1282.84ZM721.832 850.608H914.312C930.599 850.608 936.521 847.647 936.521 840.246C936.521 834.325 935.04 831.364 933.56 825.443L834.359 490.904C831.398 480.542 828.436 474.621 825.475 474.621C822.514 474.621 819.553 482.022 815.111 490.904L698.142 825.443C696.662 828.404 695.181 832.845 695.181 837.285C695.181 847.647 708.507 850.608 721.832 850.608Z" fill="#EA6FAE"/>
<line x1="1081.94" y1="212.323" x2="704.091" y2="390.833" stroke="#FDFEF0" stroke-width="2" stroke-linecap="round" stroke-dasharray="10 10"/>
</g>
<path d="M717.664 383.306C717.582 383.343 717.488 383.352 717.388 383.314C715.982 382.775 713.053 380.222 712.014 377.893C710.976 375.564 711.29 372.402 711.829 370.995C711.874 370.876 711.994 370.741 712.131 370.68C712.227 370.637 712.475 370.641 712.53 370.764C712.543 370.792 712.484 371.064 712.468 371.104C712.067 372.449 712.039 374.892 713.078 377.221C714.117 379.55 716.309 382.071 717.578 382.671C717.604 382.692 717.887 382.812 717.9 382.84C717.985 383.031 717.842 383.226 717.664 383.306ZM720.326 378.653C720.23 378.696 720.055 378.708 720 378.585C719.957 378.489 720.07 378.373 720.173 378.311C720.974 377.822 721.069 377.484 720.874 377.046L720.306 375.772C720.269 375.689 720.059 375.734 720.045 375.74C718.922 376.241 718.191 376.665 716.759 377.32C716.691 377.351 716.585 377.299 716.561 377.245C716.555 377.231 716.549 377.217 716.556 377.197C716.709 376.62 716.735 376.641 716.803 376.315L718.104 369.51C718.141 369.297 718.207 369.004 718.344 368.943L718.632 368.815C718.714 368.778 718.69 369.019 718.69 369.019L717.362 375.984C717.353 376.037 717.362 376.132 717.417 376.107L719.787 375.05C719.855 375.02 719.927 374.922 719.902 374.867L718.955 372.744C718.87 372.552 718.859 372.491 718.944 372.388C719.151 372.115 719.509 371.922 719.632 371.867C719.838 371.776 719.972 372.077 720.229 372.652L721.017 374.42C721.035 374.461 721.081 374.49 721.122 374.471C721.333 374.393 721.512 374.314 721.676 374.241C721.936 374.125 722.177 374.001 722.472 373.853C722.554 373.816 722.647 373.84 722.672 373.895C722.769 374.114 722.671 374.52 722.616 374.544C722.411 374.636 722.158 374.732 721.939 374.83C721.774 374.903 721.63 374.984 721.526 375.047C721.464 375.091 721.379 375.194 721.385 375.208L721.959 376.496C722.197 377.03 722.431 377.074 723.256 376.936C723.378 376.914 723.551 376.935 723.588 377.018C723.625 377.1 723.559 377.211 723.45 377.26C722.669 377.608 722.515 377.595 721.871 377.882C721.172 378.194 721.066 378.323 720.326 378.653ZM725.497 376.347C725.36 376.408 725.255 376.356 725.218 376.274C725.188 376.206 725.247 376.081 725.345 376.004C726.27 375.28 726.68 374.949 726.32 374.14L723.986 368.907C723.754 368.387 723.149 368.541 722.542 368.763C722.358 368.829 722.149 368.84 722.082 368.689C722.027 368.566 722.135 368.402 722.314 368.29C723.081 367.8 723.649 367.415 723.99 366.524C723.998 366.504 724.025 366.492 724.053 366.479C724.135 366.443 724.255 366.455 724.272 366.529C724.353 366.822 724.48 367.143 724.651 367.527L727.462 373.828C727.773 374.527 728.133 374.449 729.378 374.222C729.5 374.2 729.654 374.214 729.691 374.296C729.727 374.378 729.676 374.483 729.566 374.532C728.785 374.88 728.248 375.038 727.522 375.362C726.782 375.692 726.237 376.017 725.497 376.347ZM731.702 374.039C731.552 374.106 731.486 374.07 731.462 374.015C731.419 373.919 731.497 373.835 731.592 373.793C732.414 373.426 733.36 371.937 733.736 370.422C734.105 368.894 733.989 367.714 733.397 366.385C732.81 365.07 731.232 364 730.232 364.446C729.342 364.843 729.269 365.894 729.568 366.565C729.941 367.401 731.017 367.972 731.743 367.648C732.305 367.398 732.411 367.121 732.68 366.803C732.736 366.746 732.846 366.844 732.843 366.911C732.827 367.132 732.707 367.416 732.605 367.593C732.467 367.835 732.053 368.381 731.546 368.607C730.601 369.028 729.298 368.722 728.858 367.736C728.302 366.489 728.807 364.49 730.465 363.751C731.793 363.159 733.791 364.14 734.494 365.715C735.258 367.428 735.075 368.971 734.434 370.883C733.922 372.425 732.661 373.611 731.702 374.039ZM739.553 373.543C739.375 373.623 739.135 373.599 739.049 373.407C739.037 373.379 739.137 373.088 739.138 373.055C739.54 371.71 739.129 368.394 738.091 366.066C737.052 363.737 735.216 362.125 733.947 361.525C733.907 361.51 733.665 361.371 733.652 361.344C733.597 361.221 733.76 361.033 733.856 360.99C733.993 360.929 734.174 360.93 734.293 360.976C735.7 361.515 738.262 363.394 739.301 365.723C740.34 368.052 740.282 371.937 739.743 373.343C739.705 373.443 739.635 373.507 739.553 373.543Z" fill="white"/>
<path d="M1175.07 424.212C1175.06 424.122 1175.08 424.03 1175.15 423.948C1176.11 422.79 1179.47 420.838 1182.01 420.604C1184.55 420.37 1187.44 421.685 1188.6 422.648C1188.7 422.729 1188.79 422.886 1188.8 423.036C1188.81 423.14 1188.73 423.374 1188.59 423.386C1188.56 423.389 1188.32 423.246 1188.29 423.218C1187.15 422.405 1184.84 421.593 1182.3 421.827C1179.76 422.061 1176.67 423.325 1175.7 424.334C1175.67 424.352 1175.46 424.582 1175.43 424.585C1175.22 424.604 1175.08 424.406 1175.07 424.212ZM1178.48 428.874C1178.34 427.336 1179.23 425.717 1181.32 425.525C1183.54 425.32 1185.11 426.426 1185.73 426.941C1186.56 427.618 1187.88 428.911 1188.54 430.703C1188.61 430.878 1188.53 431.006 1188.46 430.982C1188.28 430.909 1188.18 430.721 1188.13 430.621C1187.42 429.33 1186.65 428.483 1185.49 427.821C1184.73 427.394 1183.02 426.663 1181.47 426.806C1179.81 426.989 1179 428.193 1179.08 429.181C1179.14 429.989 1179.77 430.668 1181.01 430.554C1181.92 430.47 1182.72 429.824 1182.65 429.032C1182.6 428.509 1182.53 428.185 1182.32 427.858C1182.21 427.687 1182.34 427.645 1182.47 427.738C1182.65 427.872 1182.73 427.955 1182.87 428.108C1183.05 428.317 1183.44 428.974 1183.49 429.527C1183.59 430.557 1182.91 431.554 1181.84 431.653C1179.97 431.825 1178.61 430.323 1178.48 428.874ZM1179.56 438.528C1179.54 438.229 1179.54 437.25 1179.47 436.503C1179.4 435.756 1179.1 433.343 1179.07 433.044C1179.07 432.97 1179.21 432.731 1179.3 432.722C1179.39 432.714 1179.41 432.743 1179.51 432.824L1182.38 435.134C1183.51 436.04 1184.92 436.648 1186.23 436.527C1187.29 436.429 1187.87 435.623 1187.79 434.772C1187.71 433.95 1187.15 433.264 1186.4 432.912C1186.27 432.863 1186.17 432.767 1186.17 432.677C1186.16 432.602 1186.32 432.436 1186.59 432.412C1187.06 432.369 1188.63 433.459 1188.79 435.147C1188.93 436.64 1187.99 437.63 1186.54 437.764C1185.74 437.838 1184.65 437.471 1183.83 436.914C1182.96 436.316 1180.34 434.072 1180.27 434.079C1180.19 434.086 1180.19 434.177 1180.18 434.298C1180.18 434.629 1180.21 435.064 1180.26 435.616C1180.31 436.184 1180.38 436.78 1180.46 437.315C1180.59 438.162 1180.66 438.351 1181.29 438.669C1181.42 438.733 1181.66 438.847 1181.67 439.011C1181.68 439.101 1181.58 439.125 1181.5 439.132C1181.35 439.146 1180.71 438.904 1179.95 438.823C1179.63 438.792 1179.57 438.632 1179.56 438.528ZM1179.8 443.228C1179.66 441.689 1180.55 440.071 1182.64 439.878C1184.87 439.673 1186.43 440.779 1187.05 441.294C1187.88 441.971 1189.2 443.265 1189.87 445.056C1189.93 445.232 1189.85 445.359 1189.79 445.335C1189.6 445.262 1189.51 445.075 1189.45 444.974C1188.75 443.684 1187.98 442.836 1186.81 442.174C1186.05 441.748 1184.34 441.016 1182.79 441.16C1181.13 441.342 1180.33 442.547 1180.4 443.534C1180.46 444.342 1181.1 445.021 1182.34 444.907C1183.25 444.823 1184.05 444.177 1183.97 443.385C1183.93 442.863 1183.85 442.538 1183.64 442.211C1183.53 442.04 1183.67 441.998 1183.79 442.091C1183.97 442.226 1184.06 442.308 1184.19 442.462C1184.37 442.671 1184.77 443.327 1184.82 443.88C1184.91 444.911 1184.24 445.907 1183.16 446.006C1181.29 446.178 1179.94 444.677 1179.8 443.228ZM1177.27 448.078C1177.25 447.884 1177.35 447.664 1177.56 447.644C1177.59 447.642 1177.83 447.83 1177.86 447.842C1179.01 448.656 1182.28 449.333 1184.82 449.099C1187.36 448.865 1189.47 447.646 1190.45 446.637C1190.48 446.604 1190.69 446.419 1190.72 446.416C1190.85 446.404 1190.98 446.618 1190.98 446.723C1191 446.872 1190.94 447.043 1190.86 447.141C1189.9 448.3 1187.29 450.121 1184.75 450.355C1182.21 450.589 1178.55 449.285 1177.39 448.322C1177.31 448.254 1177.27 448.168 1177.27 448.078Z" fill="white"/>
</g>
<defs>
<clipPath id="clip0_483_286">
<rect width="1440" height="680" fill="white"/>
</clipPath>
</defs>
</svg>
