<svg width="1440" height="680" viewBox="0 0 1440 680" fill="none" xmlns="http://www.w3.org/2000/svg">
<g clip-path="url(#clip0_483_1437)">
<g clip-path="url(#clip1_483_1437)">
<rect width="1440" height="4484" transform="translate(0 -1417)" fill="#FDFEF0"/>
<line x1="16" y1="245.5" x2="1411" y2="245.5" stroke="#3170B7" stroke-dasharray="5 5"/>
<line x1="555.5" y1="570" x2="555.5" y2="106" stroke="#3170B7" stroke-dasharray="5 5"/>
<line x1="898.5" y1="570" x2="898.5" y2="106" stroke="#3170B7" stroke-dasharray="5 5"/>
<line x1="16" y1="414.5" x2="1411" y2="414.5" stroke="#3170B7" stroke-dasharray="5 5"/>
<path d="M1145.54 205.67C1143.62 205.67 1141.82 204.41 1141.82 202.37C1141.82 200.36 1143.47 198.83 1145.12 198.83C1146.47 198.83 1147.1 199.52 1147.1 200.42C1147.1 201.29 1146.5 201.89 1145.81 201.89C1145.42 201.89 1145.15 201.71 1144.94 201.5C1144.7 201.29 1144.49 201.05 1144.16 201.05C1143.68 201.05 1143.08 201.56 1143.08 202.58C1143.08 203.75 1144.34 204.62 1145.66 204.62C1147.13 204.62 1148.66 203.57 1148.66 200.36V194.18C1148.66 193.88 1148.6 193.43 1148.27 193.43C1142.9 193.43 1138.43 190.94 1138.43 185.51C1138.43 179.87 1142.57 177.56 1149.29 177.56C1150.94 177.56 1153.04 177.68 1153.49 177.74C1153.79 177.8 1153.94 178.07 1153.94 178.34C1153.94 178.61 1153.76 179.24 1153.52 179.24C1153.34 179.24 1151.9 178.76 1150.37 178.76C1150.07 178.76 1149.83 179.03 1149.83 179.3V200.36C1149.83 204.17 1147.61 205.67 1145.54 205.67Z" fill="#FEFDF0"/>
<path d="M1185.74 512.3C1185.29 512.3 1184.69 512.05 1184.69 511.55C1184.69 511.05 1197.09 499.45 1199.84 496.4C1199.99 496.2 1199.94 496.05 1199.79 495.85C1195.09 491.6 1184.84 481.05 1184.84 480.45C1184.84 479.8 1185.34 479.55 1185.64 479.55C1189.34 479.65 1193.09 479.7 1197.54 479.7C1199.99 479.7 1202.54 479.7 1205.29 479.65C1206.74 479.65 1207.89 479.3 1208.69 478.75C1209.19 478.4 1209.94 478.1 1210.19 478.1C1210.44 478.1 1210.89 478.2 1210.94 478.95C1211.14 481.25 1211.64 483.9 1211.79 485.05C1211.84 485.4 1211.89 485.8 1211.89 486.15C1211.89 486.6 1211.79 486.95 1211.39 486.95C1210.64 486.95 1210.54 485.95 1210.29 485.35C1209.24 482.85 1208.29 481.95 1205.74 481.8C1203.19 481.6 1195.79 481.25 1192.44 481.25C1191.69 481.25 1191.49 481.4 1191.49 481.6C1191.49 481.75 1191.59 481.9 1191.69 482.05C1193.24 484 1199.44 490.2 1203.94 493.75C1204.54 494.25 1204.09 494.6 1203.89 494.85C1199.59 499.05 1195.34 503.2 1191.04 507.4C1190.64 507.8 1190.89 508.2 1191.44 508.25C1194.44 508.5 1201.39 508.5 1205.74 508.5C1208.14 508.5 1209.74 508.1 1211.14 505.45C1211.59 504.65 1212.04 503.85 1212.69 503.85C1212.94 503.85 1213.14 504.05 1213.14 504.3C1213.14 504.35 1213.09 504.45 1213.09 504.5C1212.19 507.05 1211.29 510.15 1211.04 511.4C1210.94 511.85 1210.84 512.25 1210.34 512.25C1208.84 512.25 1207.74 512 1206.34 512C1203.14 511.95 1200.04 511.95 1197.19 511.95C1195.09 511.95 1193.14 511.95 1191.34 512C1188.84 512.05 1188.14 512.3 1185.74 512.3Z" fill="#FEFDF0"/>
<line x1="1389.5" y1="-1428" x2="1389.5" y2="3107" stroke="#3170B7"/>
<line x1="54.5" y1="-1516" x2="54.4998" y2="3216" stroke="#3170B7"/>
<path d="M34.555 414.21C34.465 414.21 34.375 414.18 34.3 414.105C33.235 413.04 31.6 409.515 31.6 406.965C31.6 404.415 33.175 401.655 34.24 400.59C34.33 400.5 34.495 400.425 34.645 400.425C34.75 400.425 34.975 400.53 34.975 400.665C34.975 400.695 34.81 400.92 34.78 400.95C33.865 402.015 32.845 404.235 32.845 406.785C32.845 409.335 33.82 412.53 34.735 413.595C34.75 413.625 34.96 413.85 34.96 413.88C34.96 414.09 34.75 414.21 34.555 414.21ZM37.3664 411.57C37.1414 411.57 36.8114 411.525 36.8114 411.39C36.8114 411.24 37.1714 411.105 37.3514 411.105C39.7214 411.105 40.8464 409.605 40.8464 408.315C40.8464 407.16 39.9014 406.425 37.2464 405.735C36.9764 405.51 36.8864 405.315 36.8864 405.045C36.8864 404.505 37.3964 403.32 37.6064 402.66C37.7114 402.36 37.9064 402.195 38.2214 402.12C39.1364 401.88 40.1564 401.7 41.3264 401.595C41.4764 401.58 41.5664 401.715 41.4914 401.85C41.4014 402.015 41.3114 402.195 41.2364 402.345C41.1014 402.645 40.9364 402.795 40.6814 402.825C39.9014 402.915 38.5514 403.02 38.1014 403.095C37.8914 403.125 37.4564 404.04 37.4414 404.28C37.4264 404.415 37.4564 404.52 37.6364 404.565C38.7614 404.895 39.6764 405.21 40.3664 405.57C41.4764 406.155 42.0314 406.89 42.0314 408.105C42.0314 409.2 41.3114 410.205 40.2014 410.85C39.4064 411.3 38.4314 411.57 37.3664 411.57ZM46.0885 411.045C45.9835 411.045 45.8185 410.985 45.8185 410.85C45.8185 410.745 45.9685 410.685 46.0885 410.67C47.0185 410.55 47.2435 410.28 47.2435 409.8V408.405C47.2435 408.315 47.0335 408.27 47.0185 408.27C45.7885 408.27 44.9485 408.36 43.3735 408.375C43.2985 408.375 43.2235 408.285 43.2235 408.225C43.2235 408.21 43.2235 408.195 43.2385 408.18C43.6135 407.715 43.6285 407.745 43.8235 407.475L47.7835 401.79C47.9035 401.61 48.0835 401.37 48.2335 401.37H48.5485C48.6385 401.37 48.5185 401.58 48.5185 401.58L44.4685 407.4C44.4385 407.445 44.4085 407.535 44.4685 407.535H47.0635C47.1385 407.535 47.2435 407.475 47.2435 407.415V405.09C47.2435 404.88 47.2585 404.82 47.3785 404.76C47.6785 404.595 48.0835 404.565 48.2185 404.565C48.4435 404.565 48.4435 404.895 48.4435 405.525V407.46C48.4435 407.505 48.4735 407.55 48.5185 407.55C48.7435 407.565 48.9385 407.565 49.1185 407.565C49.4035 407.565 49.6735 407.55 50.0035 407.535C50.0935 407.535 50.1685 407.595 50.1685 407.655C50.1685 407.895 49.9135 408.225 49.8535 408.225C49.6285 408.225 49.3585 408.21 49.1185 408.21C48.9385 408.21 48.7735 408.225 48.6535 408.24C48.5785 408.255 48.4585 408.315 48.4585 408.33V409.74C48.4585 410.325 48.6535 410.46 49.4635 410.67C49.5835 410.7 49.7335 410.79 49.7335 410.88C49.7335 410.97 49.6285 411.045 49.5085 411.045C48.6535 411.045 48.5185 410.97 47.8135 410.97C47.0485 410.97 46.8985 411.045 46.0885 411.045ZM51.3155 414.21C51.1205 414.21 50.9105 414.09 50.9105 413.88C50.9105 413.85 51.1205 413.625 51.1355 413.595C52.0505 412.53 53.0255 409.335 53.0255 406.785C53.0255 404.235 52.0055 402.015 51.0905 400.95C51.0605 400.92 50.8955 400.695 50.8955 400.665C50.8955 400.53 51.1205 400.425 51.2255 400.425C51.3755 400.425 51.5405 400.5 51.6305 400.59C52.6955 401.655 54.2705 404.415 54.2705 406.965C54.2705 409.515 52.6355 413.04 51.5705 414.105C51.4955 414.18 51.4055 414.21 51.3155 414.21Z" fill="#3170B7"/>
<path d="M1392.56 679.21C1392.47 679.21 1392.38 679.18 1392.3 679.105C1391.24 678.04 1389.6 674.515 1389.6 671.965C1389.6 669.415 1391.18 666.655 1392.24 665.59C1392.33 665.5 1392.5 665.425 1392.65 665.425C1392.75 665.425 1392.98 665.53 1392.98 665.665C1392.98 665.695 1392.81 665.92 1392.78 665.95C1391.87 667.015 1390.85 669.235 1390.85 671.785C1390.85 674.335 1391.82 677.53 1392.74 678.595C1392.75 678.625 1392.96 678.85 1392.96 678.88C1392.96 679.09 1392.75 679.21 1392.56 679.21ZM1395.37 676.57C1395.14 676.57 1394.81 676.525 1394.81 676.39C1394.81 676.24 1395.17 676.105 1395.35 676.105C1397.72 676.105 1398.85 674.605 1398.85 673.315C1398.85 672.16 1397.9 671.425 1395.25 670.735C1394.98 670.51 1394.89 670.315 1394.89 670.045C1394.89 669.505 1395.4 668.32 1395.61 667.66C1395.71 667.36 1395.91 667.195 1396.22 667.12C1397.14 666.88 1398.16 666.7 1399.33 666.595C1399.48 666.58 1399.57 666.715 1399.49 666.85C1399.4 667.015 1399.31 667.195 1399.24 667.345C1399.1 667.645 1398.94 667.795 1398.68 667.825C1397.9 667.915 1396.55 668.02 1396.1 668.095C1395.89 668.125 1395.46 669.04 1395.44 669.28C1395.43 669.415 1395.46 669.52 1395.64 669.565C1396.76 669.895 1397.68 670.21 1398.37 670.57C1399.48 671.155 1400.03 671.89 1400.03 673.105C1400.03 674.2 1399.31 675.205 1398.2 675.85C1397.41 676.3 1396.43 676.57 1395.37 676.57ZM1404.09 676.045C1403.98 676.045 1403.82 675.985 1403.82 675.85C1403.82 675.745 1403.97 675.685 1404.09 675.67C1405.02 675.55 1405.24 675.28 1405.24 674.8V673.405C1405.24 673.315 1405.03 673.27 1405.02 673.27C1403.79 673.27 1402.95 673.36 1401.37 673.375C1401.3 673.375 1401.22 673.285 1401.22 673.225C1401.22 673.21 1401.22 673.195 1401.24 673.18C1401.61 672.715 1401.63 672.745 1401.82 672.475L1405.78 666.79C1405.9 666.61 1406.08 666.37 1406.23 666.37H1406.55C1406.64 666.37 1406.52 666.58 1406.52 666.58L1402.47 672.4C1402.44 672.445 1402.41 672.535 1402.47 672.535H1405.06C1405.14 672.535 1405.24 672.475 1405.24 672.415V670.09C1405.24 669.88 1405.26 669.82 1405.38 669.76C1405.68 669.595 1406.08 669.565 1406.22 669.565C1406.44 669.565 1406.44 669.895 1406.44 670.525V672.46C1406.44 672.505 1406.47 672.55 1406.52 672.55C1406.74 672.565 1406.94 672.565 1407.12 672.565C1407.4 672.565 1407.67 672.55 1408 672.535C1408.09 672.535 1408.17 672.595 1408.17 672.655C1408.17 672.895 1407.91 673.225 1407.85 673.225C1407.63 673.225 1407.36 673.21 1407.12 673.21C1406.94 673.21 1406.77 673.225 1406.65 673.24C1406.58 673.255 1406.46 673.315 1406.46 673.33V674.74C1406.46 675.325 1406.65 675.46 1407.46 675.67C1407.58 675.7 1407.73 675.79 1407.73 675.88C1407.73 675.97 1407.63 676.045 1407.51 676.045C1406.65 676.045 1406.52 675.97 1405.81 675.97C1405.05 675.97 1404.9 676.045 1404.09 676.045ZM1409.32 679.21C1409.12 679.21 1408.91 679.09 1408.91 678.88C1408.91 678.85 1409.12 678.625 1409.14 678.595C1410.05 677.53 1411.03 674.335 1411.03 671.785C1411.03 669.235 1410.01 667.015 1409.09 665.95C1409.06 665.92 1408.9 665.695 1408.9 665.665C1408.9 665.53 1409.12 665.425 1409.23 665.425C1409.38 665.425 1409.54 665.5 1409.63 665.59C1410.7 666.655 1412.27 669.415 1412.27 671.965C1412.27 674.515 1410.64 678.04 1409.57 679.105C1409.5 679.18 1409.41 679.21 1409.32 679.21Z" fill="#3170B7"/>
<path d="M34.555 693.21C34.465 693.21 34.375 693.18 34.3 693.105C33.235 692.04 31.6 688.515 31.6 685.965C31.6 683.415 33.175 680.655 34.24 679.59C34.33 679.5 34.495 679.425 34.645 679.425C34.75 679.425 34.975 679.53 34.975 679.665C34.975 679.695 34.81 679.92 34.78 679.95C33.865 681.015 32.845 683.235 32.845 685.785C32.845 688.335 33.82 691.53 34.735 692.595C34.75 692.625 34.96 692.85 34.96 692.88C34.96 693.09 34.75 693.21 34.555 693.21ZM37.3664 690.57C37.1414 690.57 36.8114 690.525 36.8114 690.39C36.8114 690.24 37.1714 690.105 37.3514 690.105C39.7214 690.105 40.8464 688.605 40.8464 687.315C40.8464 686.16 39.9014 685.425 37.2464 684.735C36.9764 684.51 36.8864 684.315 36.8864 684.045C36.8864 683.505 37.3964 682.32 37.6064 681.66C37.7114 681.36 37.9064 681.195 38.2214 681.12C39.1364 680.88 40.1564 680.7 41.3264 680.595C41.4764 680.58 41.5664 680.715 41.4914 680.85C41.4014 681.015 41.3114 681.195 41.2364 681.345C41.1014 681.645 40.9364 681.795 40.6814 681.825C39.9014 681.915 38.5514 682.02 38.1014 682.095C37.8914 682.125 37.4564 683.04 37.4414 683.28C37.4264 683.415 37.4564 683.52 37.6364 683.565C38.7614 683.895 39.6764 684.21 40.3664 684.57C41.4764 685.155 42.0314 685.89 42.0314 687.105C42.0314 688.2 41.3114 689.205 40.2014 689.85C39.4064 690.3 38.4314 690.57 37.3664 690.57ZM46.0885 690.045C45.9835 690.045 45.8185 689.985 45.8185 689.85C45.8185 689.745 45.9685 689.685 46.0885 689.67C47.0185 689.55 47.2435 689.28 47.2435 688.8V687.405C47.2435 687.315 47.0335 687.27 47.0185 687.27C45.7885 687.27 44.9485 687.36 43.3735 687.375C43.2985 687.375 43.2235 687.285 43.2235 687.225C43.2235 687.21 43.2235 687.195 43.2385 687.18C43.6135 686.715 43.6285 686.745 43.8235 686.475L47.7835 680.79C47.9035 680.61 48.0835 680.37 48.2335 680.37H48.5485C48.6385 680.37 48.5185 680.58 48.5185 680.58L44.4685 686.4C44.4385 686.445 44.4085 686.535 44.4685 686.535H47.0635C47.1385 686.535 47.2435 686.475 47.2435 686.415V684.09C47.2435 683.88 47.2585 683.82 47.3785 683.76C47.6785 683.595 48.0835 683.565 48.2185 683.565C48.4435 683.565 48.4435 683.895 48.4435 684.525V686.46C48.4435 686.505 48.4735 686.55 48.5185 686.55C48.7435 686.565 48.9385 686.565 49.1185 686.565C49.4035 686.565 49.6735 686.55 50.0035 686.535C50.0935 686.535 50.1685 686.595 50.1685 686.655C50.1685 686.895 49.9135 687.225 49.8535 687.225C49.6285 687.225 49.3585 687.21 49.1185 687.21C48.9385 687.21 48.7735 687.225 48.6535 687.24C48.5785 687.255 48.4585 687.315 48.4585 687.33V688.74C48.4585 689.325 48.6535 689.46 49.4635 689.67C49.5835 689.7 49.7335 689.79 49.7335 689.88C49.7335 689.97 49.6285 690.045 49.5085 690.045C48.6535 690.045 48.5185 689.97 47.8135 689.97C47.0485 689.97 46.8985 690.045 46.0885 690.045ZM51.3155 693.21C51.1205 693.21 50.9105 693.09 50.9105 692.88C50.9105 692.85 51.1205 692.625 51.1355 692.595C52.0505 691.53 53.0255 688.335 53.0255 685.785C53.0255 683.235 52.0055 681.015 51.0905 679.95C51.0605 679.92 50.8955 679.695 50.8955 679.665C50.8955 679.53 51.1205 679.425 51.2255 679.425C51.3755 679.425 51.5405 679.5 51.6305 679.59C52.6955 680.655 54.2705 683.415 54.2705 685.965C54.2705 688.515 52.6355 692.04 51.5705 693.105C51.4955 693.18 51.4055 693.21 51.3155 693.21Z" fill="#FDFEF0"/>
<path d="M1375.79 218.555C1375.79 218.465 1375.82 218.375 1375.89 218.3C1376.96 217.235 1380.49 215.6 1383.04 215.6C1385.59 215.6 1388.35 217.175 1389.41 218.24C1389.5 218.33 1389.58 218.495 1389.58 218.645C1389.58 218.75 1389.47 218.975 1389.33 218.975C1389.31 218.975 1389.08 218.81 1389.05 218.78C1387.99 217.865 1385.77 216.845 1383.22 216.845C1380.67 216.845 1377.47 217.82 1376.4 218.735C1376.37 218.75 1376.15 218.96 1376.12 218.96C1375.91 218.96 1375.79 218.75 1375.79 218.555ZM1378.43 221.366C1378.43 221.141 1378.47 220.811 1378.61 220.811C1378.76 220.811 1378.89 221.171 1378.89 221.351C1378.89 223.721 1380.39 224.846 1381.68 224.846C1382.84 224.846 1383.57 223.901 1384.26 221.246C1384.49 220.976 1384.68 220.886 1384.95 220.886C1385.5 220.886 1386.68 221.396 1387.34 221.606C1387.64 221.711 1387.8 221.906 1387.88 222.221C1388.12 223.136 1388.3 224.156 1388.41 225.326C1388.42 225.476 1388.28 225.566 1388.15 225.491C1387.99 225.401 1387.8 225.311 1387.65 225.236C1387.36 225.101 1387.21 224.936 1387.17 224.681C1387.09 223.901 1386.98 222.551 1386.9 222.101C1386.88 221.891 1385.96 221.456 1385.72 221.441C1385.58 221.426 1385.48 221.456 1385.44 221.636C1385.1 222.761 1384.79 223.676 1384.43 224.366C1383.84 225.476 1383.11 226.031 1381.89 226.031C1380.8 226.031 1379.79 225.311 1379.15 224.201C1378.7 223.406 1378.43 222.431 1378.43 221.366ZM1378.95 228.543C1378.95 228.393 1379.04 228.318 1379.13 228.318C1379.21 228.318 1379.3 228.423 1379.33 228.543C1379.61 229.683 1379.75 230.193 1380.63 230.193L1386.36 230.193C1386.93 230.193 1387.04 229.578 1387.08 228.933C1387.1 228.738 1387.17 228.543 1387.34 228.543C1387.47 228.543 1387.58 228.708 1387.61 228.918C1387.74 229.818 1387.86 230.493 1388.54 231.168C1388.55 231.183 1388.55 231.213 1388.55 231.243C1388.55 231.333 1388.49 231.438 1388.42 231.423C1388.12 231.378 1387.77 231.363 1387.35 231.363L1380.45 231.363C1379.69 231.363 1379.61 231.723 1379.31 232.953C1379.28 233.073 1379.21 233.208 1379.12 233.208C1379.03 233.208 1378.95 233.118 1378.95 232.998C1378.95 232.143 1379.03 231.588 1379.03 230.793C1379.03 229.983 1378.95 229.353 1378.95 228.543ZM1378.95 240.431C1378.95 240.131 1379.04 239.156 1379.04 238.406C1379.04 237.656 1378.97 235.226 1378.97 234.926C1378.97 234.851 1379.13 234.626 1379.22 234.626C1379.31 234.626 1379.33 234.656 1379.42 234.746L1382.07 237.311C1383.11 238.316 1384.46 239.051 1385.78 239.051C1386.84 239.051 1387.49 238.301 1387.49 237.446C1387.49 236.621 1386.99 235.886 1386.27 235.466C1386.15 235.406 1386.06 235.301 1386.06 235.211C1386.06 235.136 1386.24 234.986 1386.51 234.986C1386.98 234.986 1388.45 236.216 1388.45 237.911C1388.45 239.411 1387.43 240.311 1385.97 240.311C1385.16 240.311 1384.11 239.846 1383.35 239.216C1382.54 238.541 1380.14 236.066 1380.06 236.066C1379.99 236.066 1379.97 236.156 1379.96 236.276C1379.93 236.606 1379.91 237.041 1379.91 237.596C1379.91 238.166 1379.93 238.766 1379.96 239.306C1380 240.161 1380.06 240.356 1380.66 240.731C1380.78 240.806 1381.01 240.941 1381.01 241.106C1381.01 241.196 1380.9 241.211 1380.83 241.211C1380.68 241.211 1380.06 240.911 1379.31 240.761C1379 240.701 1378.95 240.536 1378.95 240.431ZM1375.79 242.523C1375.79 242.328 1375.91 242.118 1376.12 242.118C1376.15 242.118 1376.37 242.328 1376.4 242.343C1377.47 243.258 1380.66 244.233 1383.21 244.233C1385.76 244.233 1387.98 243.213 1389.05 242.298C1389.08 242.268 1389.3 242.103 1389.33 242.103C1389.47 242.103 1389.57 242.328 1389.57 242.433C1389.57 242.583 1389.5 242.748 1389.41 242.838C1388.34 243.903 1385.58 245.478 1383.03 245.478C1380.48 245.478 1376.96 243.843 1375.89 242.778C1375.82 242.703 1375.79 242.613 1375.79 242.523Z" fill="#3170B7"/>
<path d="M1375.79 681.555C1375.79 681.465 1375.82 681.375 1375.89 681.3C1376.96 680.235 1380.49 678.6 1383.04 678.6C1385.59 678.6 1388.35 680.175 1389.41 681.24C1389.5 681.33 1389.58 681.495 1389.58 681.645C1389.58 681.75 1389.47 681.975 1389.33 681.975C1389.31 681.975 1389.08 681.81 1389.05 681.78C1387.99 680.865 1385.77 679.845 1383.22 679.845C1380.67 679.845 1377.47 680.82 1376.4 681.735C1376.37 681.75 1376.15 681.96 1376.12 681.96C1375.91 681.96 1375.79 681.75 1375.79 681.555ZM1378.76 686.511C1378.76 684.966 1379.79 683.436 1381.89 683.436C1384.13 683.436 1385.58 684.681 1386.16 685.251C1386.92 686.001 1388.12 687.411 1388.61 689.256C1388.66 689.436 1388.57 689.556 1388.51 689.526C1388.33 689.436 1388.26 689.241 1388.21 689.136C1387.63 687.786 1386.94 686.871 1385.84 686.106C1385.12 685.611 1383.49 684.726 1381.92 684.726C1380.26 684.756 1379.34 685.881 1379.33 686.871C1379.31 687.681 1379.88 688.416 1381.13 688.416C1382.04 688.416 1382.9 687.846 1382.9 687.051C1382.9 686.526 1382.85 686.196 1382.67 685.851C1382.58 685.671 1382.72 685.641 1382.84 685.746C1383 685.896 1383.08 685.986 1383.2 686.151C1383.36 686.376 1383.69 687.066 1383.69 687.621C1383.69 688.656 1382.93 689.586 1381.85 689.586C1379.97 689.586 1378.76 687.966 1378.76 686.511ZM1378.79 693.568C1378.79 692.188 1379.73 690.913 1381.11 690.913C1382.43 690.913 1383.11 692.158 1383.53 692.923C1383.6 693.058 1383.62 692.998 1383.72 692.878C1384.49 691.978 1385.06 691.138 1386.33 691.138C1387.5 691.138 1388.45 692.533 1388.45 693.868C1388.45 695.068 1387.65 696.253 1386.44 696.253C1385.72 696.253 1385.3 695.803 1385 695.458C1384.76 695.173 1384.62 695.008 1384.37 694.663C1384.19 694.408 1384.16 694.423 1384.05 694.588C1383.27 695.713 1382.61 696.523 1381.46 696.523C1379.9 696.523 1378.79 695.038 1378.79 693.568ZM1384.37 694.258C1384.94 694.948 1385.63 695.098 1386.54 695.098C1387.38 695.098 1388.09 694.663 1388.09 693.793C1388.09 693.103 1387.44 692.293 1386.63 692.293C1385.48 692.293 1385.27 692.998 1384.41 694.048C1384.37 694.108 1384.32 694.198 1384.37 694.258ZM1379.22 693.778C1379.22 694.663 1379.97 695.323 1380.86 695.323C1381.79 695.323 1382.6 694.423 1383.2 693.553C1383.29 693.433 1383.35 693.343 1383.35 693.253C1383.35 693.208 1383.32 693.148 1383.26 693.073C1382.73 692.428 1382.31 692.113 1381.35 692.113C1380.3 692.113 1379.22 692.728 1379.22 693.778ZM1378.95 698.751C1378.95 698.601 1379.04 698.526 1379.13 698.526C1379.21 698.526 1379.3 698.631 1379.33 698.751C1379.61 699.891 1379.75 700.401 1380.63 700.401L1386.36 700.401C1386.93 700.401 1387.04 699.786 1387.08 699.141C1387.1 698.946 1387.17 698.751 1387.34 698.751C1387.47 698.751 1387.58 698.916 1387.61 699.126C1387.74 700.026 1387.86 700.701 1388.54 701.376C1388.55 701.391 1388.55 701.421 1388.55 701.451C1388.55 701.541 1388.49 701.646 1388.42 701.631C1388.12 701.586 1387.77 701.571 1387.35 701.571L1380.45 701.571C1379.69 701.571 1379.61 701.931 1379.31 703.161C1379.28 703.281 1379.21 703.416 1379.12 703.416C1379.03 703.416 1378.95 703.326 1378.95 703.206C1378.95 702.351 1379.03 701.796 1379.03 701.001C1379.03 700.191 1378.95 699.561 1378.95 698.751ZM1375.79 705.523C1375.79 705.328 1375.91 705.118 1376.12 705.118C1376.15 705.118 1376.37 705.328 1376.4 705.343C1377.47 706.258 1380.66 707.233 1383.21 707.233C1385.76 707.233 1387.98 706.213 1389.05 705.298C1389.08 705.268 1389.3 705.103 1389.33 705.103C1389.47 705.103 1389.57 705.328 1389.57 705.433C1389.57 705.583 1389.5 705.748 1389.41 705.838C1388.34 706.903 1385.58 708.478 1383.03 708.478C1380.48 708.478 1376.96 706.843 1375.89 705.778C1375.82 705.703 1375.79 705.613 1375.79 705.523Z" fill="#FDFEF0"/>
<path d="M528.555 245.21C528.465 245.21 528.375 245.18 528.3 245.105C527.235 244.04 525.6 240.515 525.6 237.965C525.6 235.415 527.175 232.655 528.24 231.59C528.33 231.5 528.495 231.425 528.645 231.425C528.75 231.425 528.975 231.53 528.975 231.665C528.975 231.695 528.81 231.92 528.78 231.95C527.865 233.015 526.845 235.235 526.845 237.785C526.845 240.335 527.82 243.53 528.735 244.595C528.75 244.625 528.96 244.85 528.96 244.88C528.96 245.09 528.75 245.21 528.555 245.21ZM532.881 242.045C532.776 242.045 532.611 241.985 532.611 241.85C532.611 241.745 532.761 241.685 532.881 241.67C533.811 241.55 534.036 241.28 534.036 240.8V239.405C534.036 239.315 533.826 239.27 533.811 239.27C532.581 239.27 531.741 239.36 530.166 239.375C530.091 239.375 530.016 239.285 530.016 239.225C530.016 239.21 530.016 239.195 530.031 239.18C530.406 238.715 530.421 238.745 530.616 238.475L534.576 232.79C534.696 232.61 534.876 232.37 535.026 232.37H535.341C535.431 232.37 535.311 232.58 535.311 232.58L531.261 238.4C531.231 238.445 531.201 238.535 531.261 238.535H533.856C533.931 238.535 534.036 238.475 534.036 238.415V236.09C534.036 235.88 534.051 235.82 534.171 235.76C534.471 235.595 534.876 235.565 535.011 235.565C535.236 235.565 535.236 235.895 535.236 236.525V238.46C535.236 238.505 535.266 238.55 535.311 238.55C535.536 238.565 535.731 238.565 535.911 238.565C536.196 238.565 536.466 238.55 536.796 238.535C536.886 238.535 536.961 238.595 536.961 238.655C536.961 238.895 536.706 239.225 536.646 239.225C536.421 239.225 536.151 239.21 535.911 239.21C535.731 239.21 535.566 239.225 535.446 239.24C535.371 239.255 535.251 239.315 535.251 239.33V240.74C535.251 241.325 535.446 241.46 536.256 241.67C536.376 241.7 536.526 241.79 536.526 241.88C536.526 241.97 536.421 242.045 536.301 242.045C535.446 242.045 535.311 241.97 534.606 241.97C533.841 241.97 533.691 242.045 532.881 242.045ZM540.568 242.21C539.188 242.21 537.913 241.265 537.913 239.885C537.913 238.565 539.158 237.89 539.923 237.47C540.058 237.395 539.998 237.38 539.878 237.275C538.978 236.51 538.138 235.94 538.138 234.665C538.138 233.495 539.533 232.55 540.868 232.55C542.068 232.55 543.253 233.345 543.253 234.56C543.253 235.28 542.803 235.7 542.458 236C542.173 236.24 542.008 236.375 541.663 236.63C541.408 236.81 541.423 236.84 541.588 236.945C542.713 237.725 543.523 238.385 543.523 239.54C543.523 241.1 542.038 242.21 540.568 242.21ZM541.258 236.63C541.948 236.06 542.098 235.37 542.098 234.455C542.098 233.615 541.663 232.91 540.793 232.91C540.103 232.91 539.293 233.555 539.293 234.365C539.293 235.52 539.998 235.73 541.048 236.585C541.108 236.63 541.198 236.675 541.258 236.63ZM540.778 241.775C541.663 241.775 542.323 241.025 542.323 240.14C542.323 239.21 541.423 238.4 540.553 237.8C540.433 237.71 540.343 237.65 540.253 237.65C540.208 237.65 540.148 237.68 540.073 237.74C539.428 238.265 539.113 238.685 539.113 239.645C539.113 240.695 539.728 241.775 540.778 241.775ZM545.151 242.465C544.986 242.465 544.941 242.405 544.941 242.345C544.941 242.24 545.046 242.195 545.151 242.195C546.051 242.195 547.521 241.22 548.481 239.99C549.441 238.745 549.816 237.62 549.816 236.165C549.816 234.725 548.811 233.105 547.716 233.105C546.741 233.105 546.246 234.035 546.246 234.77C546.246 235.685 546.996 236.645 547.791 236.645C548.406 236.645 548.616 236.435 548.991 236.255C549.066 236.225 549.126 236.36 549.096 236.42C548.991 236.615 548.766 236.825 548.601 236.945C548.376 237.11 547.776 237.44 547.221 237.44C546.186 237.44 545.121 236.63 545.121 235.55C545.121 234.185 546.396 232.565 548.211 232.565C549.666 232.565 551.091 234.275 551.091 236C551.091 237.875 550.296 239.21 548.931 240.695C547.836 241.895 546.201 242.465 545.151 242.465ZM552.523 245.21C552.328 245.21 552.118 245.09 552.118 244.88C552.118 244.85 552.328 244.625 552.343 244.595C553.258 243.53 554.233 240.335 554.233 237.785C554.233 235.235 553.213 233.015 552.298 231.95C552.268 231.92 552.103 231.695 552.103 231.665C552.103 231.53 552.328 231.425 552.433 231.425C552.583 231.425 552.748 231.5 552.838 231.59C553.903 232.655 555.478 235.415 555.478 237.965C555.478 240.515 553.843 244.04 552.778 245.105C552.703 245.18 552.613 245.21 552.523 245.21Z" fill="#3170B7"/>
<path d="M901.555 428.21C901.465 428.21 901.375 428.18 901.3 428.105C900.235 427.04 898.6 423.515 898.6 420.965C898.6 418.415 900.175 415.655 901.24 414.59C901.33 414.5 901.495 414.425 901.645 414.425C901.75 414.425 901.975 414.53 901.975 414.665C901.975 414.695 901.81 414.92 901.78 414.95C900.865 416.015 899.845 418.235 899.845 420.785C899.845 423.335 900.82 426.53 901.735 427.595C901.75 427.625 901.96 427.85 901.96 427.88C901.96 428.09 901.75 428.21 901.555 428.21ZM905.881 425.045C905.776 425.045 905.611 424.985 905.611 424.85C905.611 424.745 905.761 424.685 905.881 424.67C906.811 424.55 907.036 424.28 907.036 423.8V422.405C907.036 422.315 906.826 422.27 906.811 422.27C905.581 422.27 904.741 422.36 903.166 422.375C903.091 422.375 903.016 422.285 903.016 422.225C903.016 422.21 903.016 422.195 903.031 422.18C903.406 421.715 903.421 421.745 903.616 421.475L907.576 415.79C907.696 415.61 907.876 415.37 908.026 415.37H908.341C908.431 415.37 908.311 415.58 908.311 415.58L904.261 421.4C904.231 421.445 904.201 421.535 904.261 421.535H906.856C906.931 421.535 907.036 421.475 907.036 421.415V419.09C907.036 418.88 907.051 418.82 907.171 418.76C907.471 418.595 907.876 418.565 908.011 418.565C908.236 418.565 908.236 418.895 908.236 419.525V421.46C908.236 421.505 908.266 421.55 908.311 421.55C908.536 421.565 908.731 421.565 908.911 421.565C909.196 421.565 909.466 421.55 909.796 421.535C909.886 421.535 909.961 421.595 909.961 421.655C909.961 421.895 909.706 422.225 909.646 422.225C909.421 422.225 909.151 422.21 908.911 422.21C908.731 422.21 908.566 422.225 908.446 422.24C908.371 422.255 908.251 422.315 908.251 422.33V423.74C908.251 424.325 908.446 424.46 909.256 424.67C909.376 424.7 909.526 424.79 909.526 424.88C909.526 424.97 909.421 425.045 909.301 425.045C908.446 425.045 908.311 424.97 907.606 424.97C906.841 424.97 906.691 425.045 905.881 425.045ZM913.568 425.21C912.188 425.21 910.913 424.265 910.913 422.885C910.913 421.565 912.158 420.89 912.923 420.47C913.058 420.395 912.998 420.38 912.878 420.275C911.978 419.51 911.138 418.94 911.138 417.665C911.138 416.495 912.533 415.55 913.868 415.55C915.068 415.55 916.253 416.345 916.253 417.56C916.253 418.28 915.803 418.7 915.458 419C915.173 419.24 915.008 419.375 914.663 419.63C914.408 419.81 914.423 419.84 914.588 419.945C915.713 420.725 916.523 421.385 916.523 422.54C916.523 424.1 915.038 425.21 913.568 425.21ZM914.258 419.63C914.948 419.06 915.098 418.37 915.098 417.455C915.098 416.615 914.663 415.91 913.793 415.91C913.103 415.91 912.293 416.555 912.293 417.365C912.293 418.52 912.998 418.73 914.048 419.585C914.108 419.63 914.198 419.675 914.258 419.63ZM913.778 424.775C914.663 424.775 915.323 424.025 915.323 423.14C915.323 422.21 914.423 421.4 913.553 420.8C913.433 420.71 913.343 420.65 913.253 420.65C913.208 420.65 913.148 420.68 913.073 420.74C912.428 421.265 912.113 421.685 912.113 422.645C912.113 423.695 912.728 424.775 913.778 424.775ZM918.151 425.465C917.986 425.465 917.941 425.405 917.941 425.345C917.941 425.24 918.046 425.195 918.151 425.195C919.051 425.195 920.521 424.22 921.481 422.99C922.441 421.745 922.816 420.62 922.816 419.165C922.816 417.725 921.811 416.105 920.716 416.105C919.741 416.105 919.246 417.035 919.246 417.77C919.246 418.685 919.996 419.645 920.791 419.645C921.406 419.645 921.616 419.435 921.991 419.255C922.066 419.225 922.126 419.36 922.096 419.42C921.991 419.615 921.766 419.825 921.601 419.945C921.376 420.11 920.776 420.44 920.221 420.44C919.186 420.44 918.121 419.63 918.121 418.55C918.121 417.185 919.396 415.565 921.211 415.565C922.666 415.565 924.091 417.275 924.091 419C924.091 420.875 923.296 422.21 921.931 423.695C920.836 424.895 919.201 425.465 918.151 425.465ZM925.523 428.21C925.328 428.21 925.118 428.09 925.118 427.88C925.118 427.85 925.328 427.625 925.343 427.595C926.258 426.53 927.233 423.335 927.233 420.785C927.233 418.235 926.213 416.015 925.298 414.95C925.268 414.92 925.103 414.695 925.103 414.665C925.103 414.53 925.328 414.425 925.433 414.425C925.583 414.425 925.748 414.5 925.838 414.59C926.903 415.655 928.478 418.415 928.478 420.965C928.478 423.515 926.843 427.04 925.778 428.105C925.703 428.18 925.613 428.21 925.523 428.21Z" fill="#3170B7"/>
<path d="M258 539.5C257.053 539.198 254.888 539.141 253.658 540.749C252.429 542.358 251.843 544.909 252.486 545.852C253.13 546.794 255.348 548.028 258.146 546.394C260.945 544.76 265.004 543.422 264.597 537.711C264.189 531.999 263.859 531.052 264.801 531.036C265.743 531.021 267.003 531.318 267.029 532.906C267.055 534.494 265.538 537.695 262.719 538.059C259.899 538.423 257.09 539.422 256.797 540.698C256.504 541.973 256.53 543.561 257.477 543.864C258.424 544.166 259.988 543.822 260.291 543.182C260.534 542.67 260.79 541.691 260.888 541.266" stroke="#FDFEF0"/>
</g>
</g>
<defs>
<clipPath id="clip0_483_1437">
<rect width="1440" height="680" fill="white"/>
</clipPath>
<clipPath id="clip1_483_1437">
<rect width="1440" height="4484" fill="white" transform="translate(0 -1417)"/>
</clipPath>
</defs>
</svg>
