<svg width="1440" height="680" viewBox="0 0 1440 680" fill="none" xmlns="http://www.w3.org/2000/svg">
<g clip-path="url(#clip0_483_1657)">
<ellipse cx="196" cy="223.5" rx="143" ry="143.5" fill="#EA6FAE"/>
<circle cx="294" cy="437" r="56" fill="#EA6FAE"/>
<ellipse cx="395" cy="493" rx="24" ry="25" fill="#EA6FAE"/>
<circle cx="529.5" cy="492.5" r="74.5" fill="#EA6FAE"/>
<circle cx="725" cy="327" r="149" fill="#EA6FAE"/>
<circle cx="907" cy="217" r="49" fill="#EA6FAE"/>
<ellipse cx="1049" cy="190.5" rx="74" ry="73.5" fill="#EA6FAE"/>
<circle cx="1195.3" cy="210.326" r="42.1013" transform="rotate(-15 1195.3 210.326)" fill="#EA6FAE"/>
<circle cx="1280.5" cy="363.5" r="106.5" fill="#EA6FAE"/>
<circle cx="1345.5" cy="126.5" r="41.5" fill="#EA6FAE"/>
<ellipse cx="1197.5" cy="497.5" rx="42.5" ry="41.5" fill="#EA6FAE"/>
<circle cx="308" cy="353" r="14" fill="#3170B7"/>
<circle cx="67" cy="99" r="14" fill="#EA6FAE"/>
<ellipse cx="1163.5" cy="313" rx="13.5" ry="14" fill="#3170B7"/>
<ellipse cx="636" cy="517" rx="20" ry="21" fill="#EA6FAE"/>
<ellipse cx="403.5" cy="413" rx="38.5" ry="38" fill="#3170B7"/>
<ellipse cx="1332.5" cy="545.5" rx="54.5" ry="53.5" fill="#3170B7"/>
<ellipse cx="394.5" cy="149.5" rx="54.5" ry="53.5" fill="#3170B7"/>
<ellipse cx="974.5" cy="292" rx="35.5" ry="35" fill="#3170B7"/>
<ellipse cx="1135.5" cy="265" rx="22.5" ry="22" fill="#EA6FAE"/>
<circle cx="1267" cy="502" r="20" fill="#EA6FAE"/>
<circle cx="1149" cy="543" r="11" fill="#3170B7"/>
</g>
<defs>
<clipPath id="clip0_483_1657">
<rect width="1440" height="680" fill="white"/>
</clipPath>
</defs>
</svg>
