<svg width="1440" height="721" viewBox="0 0 1440 721" fill="none" xmlns="http://www.w3.org/2000/svg">
<g clip-path="url(#clip0_4_2)">
<rect width="1440" height="721" fill="white"/>
<g clip-path="url(#clip1_4_2)">
<rect width="1440" height="4449" transform="translate(0 -680)" fill="#FDFEF0"/>
<line x1="1389.5" y1="-691" x2="1389.5" y2="3844" stroke="#3170B7"/>
<line x1="54.5002" y1="-779" x2="54.5" y2="3953" stroke="#3170B7"/>
<line x1="-2607" y1="468.5" x2="2125" y2="468.5" stroke="#3170B7"/>
<line x1="-2607" y1="580.5" x2="2125" y2="580.5" stroke="#3170B7"/>
<line x1="-2358" y1="720.5" x2="2374" y2="720.5" stroke="#3170B7"/>
<line x1="-2597" y1="131.5" x2="2135" y2="131.5" stroke="#3170B7"/>
<path d="M34.555 0.21C34.465 0.21 34.375 0.18 34.3 0.105C33.235 -0.96 31.6 -4.485 31.6 -7.035C31.6 -9.585 33.175 -12.345 34.24 -13.41C34.33 -13.5 34.495 -13.575 34.645 -13.575C34.75 -13.575 34.975 -13.47 34.975 -13.335C34.975 -13.305 34.81 -13.08 34.78 -13.05C33.865 -11.985 32.845 -9.765 32.845 -7.215C32.845 -4.665 33.82 -1.47 34.735 -0.405C34.75 -0.375 34.96 -0.15 34.96 -0.12C34.96 0.0900002 34.75 0.21 34.555 0.21ZM37.3664 -2.43C37.1414 -2.43 36.8114 -2.475 36.8114 -2.61C36.8114 -2.76 37.1714 -2.895 37.3514 -2.895C39.7214 -2.895 40.8464 -4.395 40.8464 -5.685C40.8464 -6.84 39.9014 -7.575 37.2464 -8.265C36.9764 -8.49 36.8864 -8.685 36.8864 -8.955C36.8864 -9.495 37.3964 -10.68 37.6064 -11.34C37.7114 -11.64 37.9064 -11.805 38.2214 -11.88C39.1364 -12.12 40.1564 -12.3 41.3264 -12.405C41.4764 -12.42 41.5664 -12.285 41.4914 -12.15C41.4014 -11.985 41.3114 -11.805 41.2364 -11.655C41.1014 -11.355 40.9364 -11.205 40.6814 -11.175C39.9014 -11.085 38.5514 -10.98 38.1014 -10.905C37.8914 -10.875 37.4564 -9.96 37.4414 -9.72C37.4264 -9.585 37.4564 -9.48 37.6364 -9.435C38.7614 -9.105 39.6764 -8.79 40.3664 -8.43C41.4764 -7.845 42.0314 -7.11 42.0314 -5.895C42.0314 -4.8 41.3114 -3.795 40.2014 -3.15C39.4064 -2.7 38.4314 -2.43 37.3664 -2.43ZM46.0885 -2.955C45.9835 -2.955 45.8185 -3.015 45.8185 -3.15C45.8185 -3.255 45.9685 -3.315 46.0885 -3.33C47.0185 -3.45 47.2435 -3.72 47.2435 -4.2V-5.595C47.2435 -5.685 47.0335 -5.73 47.0185 -5.73C45.7885 -5.73 44.9485 -5.64 43.3735 -5.625C43.2985 -5.625 43.2235 -5.715 43.2235 -5.775C43.2235 -5.79 43.2235 -5.805 43.2385 -5.82C43.6135 -6.285 43.6285 -6.255 43.8235 -6.525L47.7835 -12.21C47.9035 -12.39 48.0835 -12.63 48.2335 -12.63H48.5485C48.6385 -12.63 48.5185 -12.42 48.5185 -12.42L44.4685 -6.6C44.4385 -6.555 44.4085 -6.465 44.4685 -6.465H47.0635C47.1385 -6.465 47.2435 -6.525 47.2435 -6.585V-8.91C47.2435 -9.12 47.2585 -9.18 47.3785 -9.24C47.6785 -9.405 48.0835 -9.435 48.2185 -9.435C48.4435 -9.435 48.4435 -9.105 48.4435 -8.475V-6.54C48.4435 -6.495 48.4735 -6.45 48.5185 -6.45C48.7435 -6.435 48.9385 -6.435 49.1185 -6.435C49.4035 -6.435 49.6735 -6.45 50.0035 -6.465C50.0935 -6.465 50.1685 -6.405 50.1685 -6.345C50.1685 -6.105 49.9135 -5.775 49.8535 -5.775C49.6285 -5.775 49.3585 -5.79 49.1185 -5.79C48.9385 -5.79 48.7735 -5.775 48.6535 -5.76C48.5785 -5.745 48.4585 -5.685 48.4585 -5.67V-4.26C48.4585 -3.675 48.6535 -3.54 49.4635 -3.33C49.5835 -3.3 49.7335 -3.21 49.7335 -3.12C49.7335 -3.03 49.6285 -2.955 49.5085 -2.955C48.6535 -2.955 48.5185 -3.03 47.8135 -3.03C47.0485 -3.03 46.8985 -2.955 46.0885 -2.955ZM51.3155 0.21C51.1205 0.21 50.9105 0.0900002 50.9105 -0.12C50.9105 -0.15 51.1205 -0.375 51.1355 -0.405C52.0505 -1.47 53.0255 -4.665 53.0255 -7.215C53.0255 -9.765 52.0055 -11.985 51.0905 -13.05C51.0605 -13.08 50.8955 -13.305 50.8955 -13.335C50.8955 -13.47 51.1205 -13.575 51.2255 -13.575C51.3755 -13.575 51.5405 -13.5 51.6305 -13.41C52.6955 -12.345 54.2705 -9.585 54.2705 -7.035C54.2705 -4.485 52.6355 -0.96 51.5705 0.105C51.4955 0.18 51.4055 0.21 51.3155 0.21Z" fill="white"/>
<path d="M34.555 468.21C34.465 468.21 34.375 468.18 34.3 468.105C33.235 467.04 31.6 463.515 31.6 460.965C31.6 458.415 33.175 455.655 34.24 454.59C34.33 454.5 34.495 454.425 34.645 454.425C34.75 454.425 34.975 454.53 34.975 454.665C34.975 454.695 34.81 454.92 34.78 454.95C33.865 456.015 32.845 458.235 32.845 460.785C32.845 463.335 33.82 466.53 34.735 467.595C34.75 467.625 34.96 467.85 34.96 467.88C34.96 468.09 34.75 468.21 34.555 468.21ZM37.3664 465.57C37.1414 465.57 36.8114 465.525 36.8114 465.39C36.8114 465.24 37.1714 465.105 37.3514 465.105C39.7214 465.105 40.8464 463.605 40.8464 462.315C40.8464 461.16 39.9014 460.425 37.2464 459.735C36.9764 459.51 36.8864 459.315 36.8864 459.045C36.8864 458.505 37.3964 457.32 37.6064 456.66C37.7114 456.36 37.9064 456.195 38.2214 456.12C39.1364 455.88 40.1564 455.7 41.3264 455.595C41.4764 455.58 41.5664 455.715 41.4914 455.85C41.4014 456.015 41.3114 456.195 41.2364 456.345C41.1014 456.645 40.9364 456.795 40.6814 456.825C39.9014 456.915 38.5514 457.02 38.1014 457.095C37.8914 457.125 37.4564 458.04 37.4414 458.28C37.4264 458.415 37.4564 458.52 37.6364 458.565C38.7614 458.895 39.6764 459.21 40.3664 459.57C41.4764 460.155 42.0314 460.89 42.0314 462.105C42.0314 463.2 41.3114 464.205 40.2014 464.85C39.4064 465.3 38.4314 465.57 37.3664 465.57ZM46.0885 465.045C45.9835 465.045 45.8185 464.985 45.8185 464.85C45.8185 464.745 45.9685 464.685 46.0885 464.67C47.0185 464.55 47.2435 464.28 47.2435 463.8V462.405C47.2435 462.315 47.0335 462.27 47.0185 462.27C45.7885 462.27 44.9485 462.36 43.3735 462.375C43.2985 462.375 43.2235 462.285 43.2235 462.225C43.2235 462.21 43.2235 462.195 43.2385 462.18C43.6135 461.715 43.6285 461.745 43.8235 461.475L47.7835 455.79C47.9035 455.61 48.0835 455.37 48.2335 455.37H48.5485C48.6385 455.37 48.5185 455.58 48.5185 455.58L44.4685 461.4C44.4385 461.445 44.4085 461.535 44.4685 461.535H47.0635C47.1385 461.535 47.2435 461.475 47.2435 461.415V459.09C47.2435 458.88 47.2585 458.82 47.3785 458.76C47.6785 458.595 48.0835 458.565 48.2185 458.565C48.4435 458.565 48.4435 458.895 48.4435 459.525V461.46C48.4435 461.505 48.4735 461.55 48.5185 461.55C48.7435 461.565 48.9385 461.565 49.1185 461.565C49.4035 461.565 49.6735 461.55 50.0035 461.535C50.0935 461.535 50.1685 461.595 50.1685 461.655C50.1685 461.895 49.9135 462.225 49.8535 462.225C49.6285 462.225 49.3585 462.21 49.1185 462.21C48.9385 462.21 48.7735 462.225 48.6535 462.24C48.5785 462.255 48.4585 462.315 48.4585 462.33V463.74C48.4585 464.325 48.6535 464.46 49.4635 464.67C49.5835 464.7 49.7335 464.79 49.7335 464.88C49.7335 464.97 49.6285 465.045 49.5085 465.045C48.6535 465.045 48.5185 464.97 47.8135 464.97C47.0485 464.97 46.8985 465.045 46.0885 465.045ZM51.3155 468.21C51.1205 468.21 50.9105 468.09 50.9105 467.88C50.9105 467.85 51.1205 467.625 51.1355 467.595C52.0505 466.53 53.0255 463.335 53.0255 460.785C53.0255 458.235 52.0055 456.015 51.0905 454.95C51.0605 454.92 50.8955 454.695 50.8955 454.665C50.8955 454.53 51.1205 454.425 51.2255 454.425C51.3755 454.425 51.5405 454.5 51.6305 454.59C52.6955 455.655 54.2705 458.415 54.2705 460.965C54.2705 463.515 52.6355 467.04 51.5705 468.105C51.4955 468.18 51.4055 468.21 51.3155 468.21Z" fill="#3170B7"/>
<path d="M34.555 720.21C34.465 720.21 34.375 720.18 34.3 720.105C33.235 719.04 31.6 715.515 31.6 712.965C31.6 710.415 33.175 707.655 34.24 706.59C34.33 706.5 34.495 706.425 34.645 706.425C34.75 706.425 34.975 706.53 34.975 706.665C34.975 706.695 34.81 706.92 34.78 706.95C33.865 708.015 32.845 710.235 32.845 712.785C32.845 715.335 33.82 718.53 34.735 719.595C34.75 719.625 34.96 719.85 34.96 719.88C34.96 720.09 34.75 720.21 34.555 720.21ZM37.3664 717.57C37.1414 717.57 36.8114 717.525 36.8114 717.39C36.8114 717.24 37.1714 717.105 37.3514 717.105C39.7214 717.105 40.8464 715.605 40.8464 714.315C40.8464 713.16 39.9014 712.425 37.2464 711.735C36.9764 711.51 36.8864 711.315 36.8864 711.045C36.8864 710.505 37.3964 709.32 37.6064 708.66C37.7114 708.36 37.9064 708.195 38.2214 708.12C39.1364 707.88 40.1564 707.7 41.3264 707.595C41.4764 707.58 41.5664 707.715 41.4914 707.85C41.4014 708.015 41.3114 708.195 41.2364 708.345C41.1014 708.645 40.9364 708.795 40.6814 708.825C39.9014 708.915 38.5514 709.02 38.1014 709.095C37.8914 709.125 37.4564 710.04 37.4414 710.28C37.4264 710.415 37.4564 710.52 37.6364 710.565C38.7614 710.895 39.6764 711.21 40.3664 711.57C41.4764 712.155 42.0314 712.89 42.0314 714.105C42.0314 715.2 41.3114 716.205 40.2014 716.85C39.4064 717.3 38.4314 717.57 37.3664 717.57ZM46.0885 717.045C45.9835 717.045 45.8185 716.985 45.8185 716.85C45.8185 716.745 45.9685 716.685 46.0885 716.67C47.0185 716.55 47.2435 716.28 47.2435 715.8V714.405C47.2435 714.315 47.0335 714.27 47.0185 714.27C45.7885 714.27 44.9485 714.36 43.3735 714.375C43.2985 714.375 43.2235 714.285 43.2235 714.225C43.2235 714.21 43.2235 714.195 43.2385 714.18C43.6135 713.715 43.6285 713.745 43.8235 713.475L47.7835 707.79C47.9035 707.61 48.0835 707.37 48.2335 707.37H48.5485C48.6385 707.37 48.5185 707.58 48.5185 707.58L44.4685 713.4C44.4385 713.445 44.4085 713.535 44.4685 713.535H47.0635C47.1385 713.535 47.2435 713.475 47.2435 713.415V711.09C47.2435 710.88 47.2585 710.82 47.3785 710.76C47.6785 710.595 48.0835 710.565 48.2185 710.565C48.4435 710.565 48.4435 710.895 48.4435 711.525V713.46C48.4435 713.505 48.4735 713.55 48.5185 713.55C48.7435 713.565 48.9385 713.565 49.1185 713.565C49.4035 713.565 49.6735 713.55 50.0035 713.535C50.0935 713.535 50.1685 713.595 50.1685 713.655C50.1685 713.895 49.9135 714.225 49.8535 714.225C49.6285 714.225 49.3585 714.21 49.1185 714.21C48.9385 714.21 48.7735 714.225 48.6535 714.24C48.5785 714.255 48.4585 714.315 48.4585 714.33V715.74C48.4585 716.325 48.6535 716.46 49.4635 716.67C49.5835 716.7 49.7335 716.79 49.7335 716.88C49.7335 716.97 49.6285 717.045 49.5085 717.045C48.6535 717.045 48.5185 716.97 47.8135 716.97C47.0485 716.97 46.8985 717.045 46.0885 717.045ZM51.3155 720.21C51.1205 720.21 50.9105 720.09 50.9105 719.88C50.9105 719.85 51.1205 719.625 51.1355 719.595C52.0505 718.53 53.0255 715.335 53.0255 712.785C53.0255 710.235 52.0055 708.015 51.0905 706.95C51.0605 706.92 50.8955 706.695 50.8955 706.665C50.8955 706.53 51.1205 706.425 51.2255 706.425C51.3755 706.425 51.5405 706.5 51.6305 706.59C52.6955 707.655 54.2705 710.415 54.2705 712.965C54.2705 715.515 52.6355 719.04 51.5705 720.105C51.4955 720.18 51.4055 720.21 51.3155 720.21Z" fill="#3170B7"/>
<path d="M1375.79 583.555C1375.79 583.465 1375.82 583.375 1375.89 583.3C1376.96 582.235 1380.49 580.6 1383.04 580.6C1385.59 580.6 1388.35 582.175 1389.41 583.24C1389.5 583.33 1389.58 583.495 1389.58 583.645C1389.58 583.75 1389.47 583.975 1389.33 583.975C1389.31 583.975 1389.08 583.81 1389.05 583.78C1387.99 582.865 1385.77 581.845 1383.22 581.845C1380.67 581.845 1377.47 582.82 1376.4 583.735C1376.37 583.75 1376.15 583.96 1376.12 583.96C1375.91 583.96 1375.79 583.75 1375.79 583.555ZM1378.95 586.336C1378.95 586.186 1379.04 586.111 1379.13 586.111C1379.21 586.111 1379.3 586.216 1379.33 586.336C1379.61 587.476 1379.75 587.986 1380.63 587.986L1386.37 587.986C1386.94 587.986 1387.04 587.371 1387.09 586.726C1387.1 586.531 1387.17 586.336 1387.34 586.336C1387.47 586.336 1387.58 586.501 1387.61 586.711C1387.74 587.611 1387.86 588.286 1388.54 588.961C1388.55 588.976 1388.55 589.006 1388.55 589.036C1388.55 589.126 1388.49 589.231 1388.42 589.216C1388.12 589.171 1387.78 589.156 1387.36 589.156L1380.45 589.156C1379.69 589.156 1379.61 589.516 1379.31 590.746C1379.28 590.866 1379.21 591.001 1379.12 591.001C1379.03 591.001 1378.95 590.911 1378.95 590.791C1378.95 589.936 1379.03 589.381 1379.03 588.586C1379.03 587.776 1378.95 587.146 1378.95 586.336ZM1378.95 595.088C1378.95 594.983 1379.01 594.818 1379.15 594.818C1379.25 594.818 1379.31 594.968 1379.33 595.088C1379.45 596.018 1379.72 596.243 1380.2 596.243L1381.59 596.243C1381.68 596.243 1381.73 596.033 1381.73 596.018C1381.73 594.788 1381.64 593.948 1381.62 592.373C1381.62 592.298 1381.71 592.223 1381.77 592.223C1381.79 592.223 1381.8 592.223 1381.82 592.238C1382.28 592.613 1382.25 592.628 1382.52 592.823L1388.21 596.783C1388.39 596.903 1388.63 597.083 1388.63 597.233L1388.63 597.548C1388.63 597.638 1388.42 597.518 1388.42 597.518L1382.6 593.468C1382.55 593.438 1382.46 593.408 1382.46 593.468L1382.46 596.063C1382.46 596.138 1382.52 596.243 1382.58 596.243L1384.91 596.243C1385.12 596.243 1385.18 596.258 1385.24 596.378C1385.4 596.678 1385.43 597.083 1385.43 597.218C1385.43 597.443 1385.1 597.443 1384.47 597.443L1382.54 597.443C1382.49 597.443 1382.45 597.473 1382.45 597.518C1382.43 597.743 1382.43 597.938 1382.43 598.118C1382.43 598.403 1382.45 598.673 1382.46 599.003C1382.46 599.093 1382.4 599.168 1382.34 599.168C1382.1 599.168 1381.77 598.913 1381.77 598.853C1381.77 598.628 1381.79 598.358 1381.79 598.118C1381.79 597.938 1381.77 597.773 1381.76 597.653C1381.74 597.578 1381.68 597.458 1381.67 597.458L1380.26 597.458C1379.67 597.458 1379.54 597.653 1379.33 598.463C1379.3 598.583 1379.21 598.733 1379.12 598.733C1379.03 598.733 1378.95 598.628 1378.95 598.508C1378.95 597.653 1379.03 597.518 1379.03 596.813C1379.03 596.048 1378.95 595.898 1378.95 595.088ZM1378.79 602.821C1378.79 600.781 1381.31 599.821 1383.53 599.821C1385.81 599.821 1388.45 600.751 1388.45 602.971C1388.45 605.011 1385.91 605.971 1383.74 605.971C1381.49 605.971 1378.79 605.041 1378.79 602.821ZM1379.18 603.076C1379.18 604.276 1381.22 604.741 1383.47 604.741C1385.72 604.741 1388.03 604.036 1388.03 602.686C1388.03 601.486 1386.05 601.066 1383.8 601.066C1381.55 601.066 1379.18 601.726 1379.18 603.076ZM1375.79 607.523C1375.79 607.328 1375.91 607.118 1376.12 607.118C1376.15 607.118 1376.37 607.328 1376.4 607.343C1377.47 608.258 1380.66 609.233 1383.21 609.233C1385.76 609.233 1387.98 608.213 1389.05 607.298C1389.08 607.268 1389.3 607.103 1389.33 607.103C1389.47 607.103 1389.57 607.328 1389.57 607.433C1389.57 607.583 1389.5 607.748 1389.41 607.838C1388.34 608.903 1385.58 610.478 1383.03 610.478C1380.48 610.478 1376.96 608.843 1375.89 607.778C1375.82 607.703 1375.79 607.613 1375.79 607.523Z" fill="#3170B7"/>
<path d="M54.79 583.555C54.79 583.465 54.82 583.375 54.895 583.3C55.96 582.235 59.485 580.6 62.035 580.6C64.585 580.6 67.345 582.175 68.41 583.24C68.5 583.33 68.575 583.495 68.575 583.645C68.575 583.75 68.47 583.975 68.335 583.975C68.305 583.975 68.08 583.81 68.05 583.78C66.985 582.865 64.765 581.845 62.215 581.845C59.665 581.845 56.47 582.82 55.405 583.735C55.375 583.75 55.15 583.96 55.12 583.96C54.91 583.96 54.79 583.75 54.79 583.555ZM57.955 586.336C57.955 586.186 58.045 586.111 58.135 586.111C58.21 586.111 58.3 586.216 58.33 586.336C58.615 587.476 58.75 587.986 59.635 587.986L65.365 587.986C65.935 587.986 66.04 587.371 66.085 586.726C66.1 586.531 66.175 586.336 66.34 586.336C66.475 586.336 66.58 586.501 66.61 586.711C66.745 587.611 66.865 588.286 67.54 588.961C67.555 588.976 67.555 589.006 67.555 589.036C67.555 589.126 67.495 589.231 67.42 589.216C67.12 589.171 66.775 589.156 66.355 589.156L59.455 589.156C58.69 589.156 58.615 589.516 58.315 590.746C58.285 590.866 58.21 591.001 58.12 591.001C58.03 591.001 57.955 590.911 57.955 590.791C57.955 589.936 58.03 589.381 58.03 588.586C58.03 587.776 57.955 587.146 57.955 586.336ZM57.955 595.088C57.955 594.983 58.015 594.818 58.15 594.818C58.255 594.818 58.315 594.968 58.33 595.088C58.45 596.018 58.72 596.243 59.2 596.243L60.595 596.243C60.685 596.243 60.73 596.033 60.73 596.018C60.73 594.788 60.64 593.948 60.625 592.373C60.625 592.298 60.715 592.223 60.775 592.223C60.79 592.223 60.805 592.223 60.82 592.238C61.285 592.613 61.255 592.628 61.525 592.823L67.21 596.783C67.39 596.903 67.63 597.083 67.63 597.233L67.63 597.548C67.63 597.638 67.42 597.518 67.42 597.518L61.6 593.468C61.555 593.438 61.465 593.408 61.465 593.468L61.465 596.063C61.465 596.138 61.525 596.243 61.585 596.243L63.91 596.243C64.12 596.243 64.18 596.258 64.24 596.378C64.405 596.678 64.435 597.083 64.435 597.218C64.435 597.443 64.105 597.443 63.475 597.443L61.54 597.443C61.495 597.443 61.45 597.473 61.45 597.518C61.435 597.743 61.435 597.938 61.435 598.118C61.435 598.403 61.45 598.673 61.465 599.003C61.465 599.093 61.405 599.168 61.345 599.168C61.105 599.168 60.775 598.913 60.775 598.853C60.775 598.628 60.79 598.358 60.79 598.118C60.79 597.938 60.775 597.773 60.76 597.653C60.745 597.578 60.685 597.458 60.67 597.458L59.26 597.458C58.675 597.458 58.54 597.653 58.33 598.463C58.3 598.583 58.21 598.733 58.12 598.733C58.03 598.733 57.955 598.628 57.955 598.508C57.955 597.653 58.03 597.518 58.03 596.813C58.03 596.048 57.955 595.898 57.955 595.088ZM57.79 602.821C57.79 600.781 60.31 599.821 62.53 599.821C64.81 599.821 67.45 600.751 67.45 602.971C67.45 605.011 64.915 605.971 62.74 605.971C60.49 605.971 57.79 605.041 57.79 602.821ZM58.18 603.076C58.18 604.276 60.22 604.741 62.47 604.741C64.72 604.741 67.03 604.036 67.03 602.686C67.03 601.486 65.05 601.066 62.8 601.066C60.55 601.066 58.18 601.726 58.18 603.076ZM54.79 607.523C54.79 607.328 54.91 607.118 55.12 607.118C55.15 607.118 55.375 607.328 55.405 607.343C56.47 608.258 59.665 609.233 62.215 609.233C64.765 609.233 66.985 608.213 68.05 607.298C68.08 607.268 68.305 607.103 68.335 607.103C68.47 607.103 68.575 607.328 68.575 607.433C68.575 607.583 68.5 607.748 68.41 607.838C67.345 608.903 64.585 610.478 62.035 610.478C59.485 610.478 55.96 608.843 54.895 607.778C54.82 607.703 54.79 607.613 54.79 607.523Z" fill="#3170B7"/>
<path d="M1392.56 720.21C1392.47 720.21 1392.38 720.18 1392.3 720.105C1391.24 719.04 1389.6 715.515 1389.6 712.965C1389.6 710.415 1391.18 707.655 1392.24 706.59C1392.33 706.5 1392.5 706.425 1392.65 706.425C1392.75 706.425 1392.98 706.53 1392.98 706.665C1392.98 706.695 1392.81 706.92 1392.78 706.95C1391.87 708.015 1390.85 710.235 1390.85 712.785C1390.85 715.335 1391.82 718.53 1392.74 719.595C1392.75 719.625 1392.96 719.85 1392.96 719.88C1392.96 720.09 1392.75 720.21 1392.56 720.21ZM1395.37 717.57C1395.14 717.57 1394.81 717.525 1394.81 717.39C1394.81 717.24 1395.17 717.105 1395.35 717.105C1397.72 717.105 1398.85 715.605 1398.85 714.315C1398.85 713.16 1397.9 712.425 1395.25 711.735C1394.98 711.51 1394.89 711.315 1394.89 711.045C1394.89 710.505 1395.4 709.32 1395.61 708.66C1395.71 708.36 1395.91 708.195 1396.22 708.12C1397.14 707.88 1398.16 707.7 1399.33 707.595C1399.48 707.58 1399.57 707.715 1399.49 707.85C1399.4 708.015 1399.31 708.195 1399.24 708.345C1399.1 708.645 1398.94 708.795 1398.68 708.825C1397.9 708.915 1396.55 709.02 1396.1 709.095C1395.89 709.125 1395.46 710.04 1395.44 710.28C1395.43 710.415 1395.46 710.52 1395.64 710.565C1396.76 710.895 1397.68 711.21 1398.37 711.57C1399.48 712.155 1400.03 712.89 1400.03 714.105C1400.03 715.2 1399.31 716.205 1398.2 716.85C1397.41 717.3 1396.43 717.57 1395.37 717.57ZM1404.09 717.045C1403.98 717.045 1403.82 716.985 1403.82 716.85C1403.82 716.745 1403.97 716.685 1404.09 716.67C1405.02 716.55 1405.24 716.28 1405.24 715.8V714.405C1405.24 714.315 1405.03 714.27 1405.02 714.27C1403.79 714.27 1402.95 714.36 1401.37 714.375C1401.3 714.375 1401.22 714.285 1401.22 714.225C1401.22 714.21 1401.22 714.195 1401.24 714.18C1401.61 713.715 1401.63 713.745 1401.82 713.475L1405.78 707.79C1405.9 707.61 1406.08 707.37 1406.23 707.37H1406.55C1406.64 707.37 1406.52 707.58 1406.52 707.58L1402.47 713.4C1402.44 713.445 1402.41 713.535 1402.47 713.535H1405.06C1405.14 713.535 1405.24 713.475 1405.24 713.415V711.09C1405.24 710.88 1405.26 710.82 1405.38 710.76C1405.68 710.595 1406.08 710.565 1406.22 710.565C1406.44 710.565 1406.44 710.895 1406.44 711.525V713.46C1406.44 713.505 1406.47 713.55 1406.52 713.55C1406.74 713.565 1406.94 713.565 1407.12 713.565C1407.4 713.565 1407.67 713.55 1408 713.535C1408.09 713.535 1408.17 713.595 1408.17 713.655C1408.17 713.895 1407.91 714.225 1407.85 714.225C1407.63 714.225 1407.36 714.21 1407.12 714.21C1406.94 714.21 1406.77 714.225 1406.65 714.24C1406.58 714.255 1406.46 714.315 1406.46 714.33V715.74C1406.46 716.325 1406.65 716.46 1407.46 716.67C1407.58 716.7 1407.73 716.79 1407.73 716.88C1407.73 716.97 1407.63 717.045 1407.51 717.045C1406.65 717.045 1406.52 716.97 1405.81 716.97C1405.05 716.97 1404.9 717.045 1404.09 717.045ZM1409.32 720.21C1409.12 720.21 1408.91 720.09 1408.91 719.88C1408.91 719.85 1409.12 719.625 1409.14 719.595C1410.05 718.53 1411.03 715.335 1411.03 712.785C1411.03 710.235 1410.01 708.015 1409.09 706.95C1409.06 706.92 1408.9 706.695 1408.9 706.665C1408.9 706.53 1409.12 706.425 1409.23 706.425C1409.38 706.425 1409.54 706.5 1409.63 706.59C1410.7 707.655 1412.27 710.415 1412.27 712.965C1412.27 715.515 1410.64 719.04 1409.57 720.105C1409.5 720.18 1409.41 720.21 1409.32 720.21Z" fill="#3170B7"/>
<path d="M54.79 471.555C54.79 471.465 54.82 471.375 54.895 471.3C55.96 470.235 59.485 468.6 62.035 468.6C64.585 468.6 67.345 470.175 68.41 471.24C68.5 471.33 68.575 471.495 68.575 471.645C68.575 471.75 68.47 471.975 68.335 471.975C68.305 471.975 68.08 471.81 68.05 471.78C66.985 470.865 64.765 469.845 62.215 469.845C59.665 469.845 56.47 470.82 55.405 471.735C55.375 471.75 55.15 471.96 55.12 471.96C54.91 471.96 54.79 471.75 54.79 471.555ZM57.535 473.736C57.535 473.571 57.595 473.526 57.655 473.526C57.76 473.526 57.805 473.631 57.805 473.736C57.805 474.636 58.78 476.106 60.01 477.066C61.255 478.026 62.38 478.401 63.835 478.401C65.275 478.401 66.895 477.396 66.895 476.301C66.895 475.326 65.965 474.831 65.23 474.831C64.315 474.831 63.355 475.581 63.355 476.376C63.355 476.991 63.565 477.201 63.745 477.576C63.775 477.651 63.64 477.711 63.58 477.681C63.385 477.576 63.175 477.351 63.055 477.186C62.89 476.961 62.56 476.361 62.56 475.806C62.56 474.771 63.37 473.706 64.45 473.706C65.815 473.706 67.435 474.981 67.435 476.796C67.435 478.251 65.725 479.676 64 479.676C62.125 479.676 60.79 478.881 59.305 477.516C58.105 476.421 57.535 474.786 57.535 473.736ZM57.43 481.573C57.43 481.348 57.475 481.018 57.61 481.018C57.76 481.018 57.895 481.378 57.895 481.558C57.895 483.928 59.395 485.053 60.685 485.053C61.84 485.053 62.575 484.108 63.265 481.453C63.49 481.183 63.685 481.093 63.955 481.093C64.495 481.093 65.68 481.603 66.34 481.813C66.64 481.918 66.805 482.113 66.88 482.428C67.12 483.343 67.3 484.363 67.405 485.533C67.42 485.683 67.285 485.773 67.15 485.698C66.985 485.608 66.805 485.518 66.655 485.443C66.355 485.308 66.205 485.143 66.175 484.888C66.085 484.108 65.98 482.758 65.905 482.308C65.875 482.098 64.96 481.663 64.72 481.648C64.585 481.633 64.48 481.663 64.435 481.843C64.105 482.968 63.79 483.883 63.43 484.573C62.845 485.683 62.11 486.238 60.895 486.238C59.8 486.238 58.795 485.518 58.15 484.408C57.7 483.613 57.43 482.638 57.43 481.573ZM57.955 488.751C57.955 488.601 58.045 488.526 58.135 488.526C58.21 488.526 58.3 488.631 58.33 488.751C58.615 489.891 58.75 490.401 59.635 490.401L65.365 490.401C65.935 490.401 66.04 489.786 66.085 489.141C66.1 488.946 66.175 488.751 66.34 488.751C66.475 488.751 66.58 488.916 66.61 489.126C66.745 490.026 66.865 490.701 67.54 491.376C67.555 491.391 67.555 491.421 67.555 491.451C67.555 491.541 67.495 491.646 67.42 491.631C67.12 491.586 66.775 491.571 66.355 491.571L59.455 491.571C58.69 491.571 58.615 491.931 58.315 493.161C58.285 493.281 58.21 493.416 58.12 493.416C58.03 493.416 57.955 493.326 57.955 493.206C57.955 492.351 58.03 491.796 58.03 491.001C58.03 490.191 57.955 489.561 57.955 488.751ZM54.79 495.523C54.79 495.328 54.91 495.118 55.12 495.118C55.15 495.118 55.375 495.328 55.405 495.343C56.47 496.258 59.665 497.233 62.215 497.233C64.765 497.233 66.985 496.213 68.05 495.298C68.08 495.268 68.305 495.103 68.335 495.103C68.47 495.103 68.575 495.328 68.575 495.433C68.575 495.583 68.5 495.748 68.41 495.838C67.345 496.903 64.585 498.478 62.035 498.478C59.485 498.478 55.96 496.843 54.895 495.778C54.82 495.703 54.79 495.613 54.79 495.523Z" fill="#3170B7"/>
<path d="M1392.56 131.21C1392.47 131.21 1392.38 131.18 1392.3 131.105C1391.24 130.04 1389.6 126.515 1389.6 123.965C1389.6 121.415 1391.18 118.655 1392.24 117.59C1392.33 117.5 1392.5 117.425 1392.65 117.425C1392.75 117.425 1392.98 117.53 1392.98 117.665C1392.98 117.695 1392.81 117.92 1392.78 117.95C1391.87 119.015 1390.85 121.235 1390.85 123.785C1390.85 126.335 1391.82 129.53 1392.74 130.595C1392.75 130.625 1392.96 130.85 1392.96 130.88C1392.96 131.09 1392.75 131.21 1392.56 131.21ZM1395.37 128.57C1395.14 128.57 1394.81 128.525 1394.81 128.39C1394.81 128.24 1395.17 128.105 1395.35 128.105C1397.72 128.105 1398.85 126.605 1398.85 125.315C1398.85 124.16 1397.9 123.425 1395.25 122.735C1394.98 122.51 1394.89 122.315 1394.89 122.045C1394.89 121.505 1395.4 120.32 1395.61 119.66C1395.71 119.36 1395.91 119.195 1396.22 119.12C1397.14 118.88 1398.16 118.7 1399.33 118.595C1399.48 118.58 1399.57 118.715 1399.49 118.85C1399.4 119.015 1399.31 119.195 1399.24 119.345C1399.1 119.645 1398.94 119.795 1398.68 119.825C1397.9 119.915 1396.55 120.02 1396.1 120.095C1395.89 120.125 1395.46 121.04 1395.44 121.28C1395.43 121.415 1395.46 121.52 1395.64 121.565C1396.76 121.895 1397.68 122.21 1398.37 122.57C1399.48 123.155 1400.03 123.89 1400.03 125.105C1400.03 126.2 1399.31 127.205 1398.2 127.85C1397.41 128.3 1396.43 128.57 1395.37 128.57ZM1404.09 128.045C1403.98 128.045 1403.82 127.985 1403.82 127.85C1403.82 127.745 1403.97 127.685 1404.09 127.67C1405.02 127.55 1405.24 127.28 1405.24 126.8V125.405C1405.24 125.315 1405.03 125.27 1405.02 125.27C1403.79 125.27 1402.95 125.36 1401.37 125.375C1401.3 125.375 1401.22 125.285 1401.22 125.225C1401.22 125.21 1401.22 125.195 1401.24 125.18C1401.61 124.715 1401.63 124.745 1401.82 124.475L1405.78 118.79C1405.9 118.61 1406.08 118.37 1406.23 118.37H1406.55C1406.64 118.37 1406.52 118.58 1406.52 118.58L1402.47 124.4C1402.44 124.445 1402.41 124.535 1402.47 124.535H1405.06C1405.14 124.535 1405.24 124.475 1405.24 124.415V122.09C1405.24 121.88 1405.26 121.82 1405.38 121.76C1405.68 121.595 1406.08 121.565 1406.22 121.565C1406.44 121.565 1406.44 121.895 1406.44 122.525V124.46C1406.44 124.505 1406.47 124.55 1406.52 124.55C1406.74 124.565 1406.94 124.565 1407.12 124.565C1407.4 124.565 1407.67 124.55 1408 124.535C1408.09 124.535 1408.17 124.595 1408.17 124.655C1408.17 124.895 1407.91 125.225 1407.85 125.225C1407.63 125.225 1407.36 125.21 1407.12 125.21C1406.94 125.21 1406.77 125.225 1406.65 125.24C1406.58 125.255 1406.46 125.315 1406.46 125.33V126.74C1406.46 127.325 1406.65 127.46 1407.46 127.67C1407.58 127.7 1407.73 127.79 1407.73 127.88C1407.73 127.97 1407.63 128.045 1407.51 128.045C1406.65 128.045 1406.52 127.97 1405.81 127.97C1405.05 127.97 1404.9 128.045 1404.09 128.045ZM1409.32 131.21C1409.12 131.21 1408.91 131.09 1408.91 130.88C1408.91 130.85 1409.12 130.625 1409.14 130.595C1410.05 129.53 1411.03 126.335 1411.03 123.785C1411.03 121.235 1410.01 119.015 1409.09 117.95C1409.06 117.92 1408.9 117.695 1408.9 117.665C1408.9 117.53 1409.12 117.425 1409.23 117.425C1409.38 117.425 1409.54 117.5 1409.63 117.59C1410.7 118.655 1412.27 121.415 1412.27 123.965C1412.27 126.515 1410.64 130.04 1409.57 131.105C1409.5 131.18 1409.41 131.21 1409.32 131.21Z" fill="#3170B7"/>
<path d="M1389.79 441.555C1389.79 441.465 1389.82 441.375 1389.89 441.3C1390.96 440.235 1394.49 438.6 1397.04 438.6C1399.59 438.6 1402.35 440.175 1403.41 441.24C1403.5 441.33 1403.58 441.495 1403.58 441.645C1403.58 441.75 1403.47 441.975 1403.33 441.975C1403.31 441.975 1403.08 441.81 1403.05 441.78C1401.99 440.865 1399.77 439.845 1397.22 439.845C1394.67 439.845 1391.47 440.82 1390.4 441.735C1390.37 441.75 1390.15 441.96 1390.12 441.96C1389.91 441.96 1389.79 441.75 1389.79 441.555ZM1392.43 445.146C1392.43 444.441 1392.83 443.481 1393.07 443.481C1393.28 443.481 1393.76 443.916 1393.76 444.141C1393.76 444.366 1393.61 444.531 1393.46 444.726C1393.24 444.981 1393 445.296 1393 445.851C1393 446.946 1393.94 448.041 1395.19 448.041C1396.34 448.041 1397.56 447.456 1397.56 446.301C1397.56 446.076 1397.53 445.671 1397.33 445.326C1397.28 445.221 1397.36 445.041 1397.47 445.071C1397.73 445.146 1397.89 445.326 1397.98 445.521C1398.15 445.866 1398.92 447.411 1399.99 447.411C1400.82 447.411 1401.55 446.811 1401.55 446.001C1401.55 444.456 1400.22 444.216 1400.22 443.991C1400.22 443.916 1400.35 443.751 1400.5 443.751C1401.03 443.751 1402.45 444.606 1402.45 446.646C1402.45 447.636 1401.76 448.596 1400.74 448.596C1400.02 448.596 1399.16 448.191 1398.49 447.021C1398.46 446.961 1398.4 446.961 1398.4 447.036C1398.4 448.311 1397.32 449.316 1396.04 449.316C1393.79 449.316 1392.43 447.186 1392.43 445.146ZM1392.43 452.353C1392.43 451.648 1392.83 450.688 1393.07 450.688C1393.28 450.688 1393.76 451.123 1393.76 451.348C1393.76 451.573 1393.61 451.738 1393.46 451.933C1393.24 452.188 1393 452.503 1393 453.058C1393 454.153 1393.94 455.248 1395.19 455.248C1396.34 455.248 1397.56 454.663 1397.56 453.508C1397.56 453.283 1397.53 452.878 1397.33 452.533C1397.27 452.428 1397.36 452.248 1397.47 452.278C1397.72 452.353 1397.89 452.533 1397.98 452.728C1398.14 453.073 1398.92 454.618 1399.99 454.618C1400.81 454.618 1401.55 454.018 1401.55 453.208C1401.55 451.663 1400.21 451.423 1400.21 451.198C1400.21 451.123 1400.35 450.958 1400.5 450.958C1401.02 450.958 1402.45 451.813 1402.45 453.853C1402.45 454.843 1401.76 455.803 1400.74 455.803C1400.02 455.803 1399.16 455.398 1398.49 454.228C1398.46 454.168 1398.4 454.168 1398.4 454.243C1398.4 455.518 1397.32 456.523 1396.04 456.523C1393.79 456.523 1392.43 454.393 1392.43 452.353ZM1392.79 460.776C1392.79 459.396 1393.73 458.121 1395.11 458.121C1396.43 458.121 1397.11 459.366 1397.53 460.131C1397.6 460.266 1397.62 460.206 1397.72 460.086C1398.49 459.186 1399.06 458.346 1400.33 458.346C1401.5 458.346 1402.45 459.741 1402.45 461.076C1402.45 462.276 1401.65 463.461 1400.44 463.461C1399.72 463.461 1399.3 463.011 1399 462.666C1398.76 462.381 1398.62 462.216 1398.37 461.871C1398.19 461.616 1398.16 461.631 1398.05 461.796C1397.27 462.921 1396.61 463.731 1395.46 463.731C1393.9 463.731 1392.79 462.246 1392.79 460.776ZM1398.37 461.466C1398.94 462.156 1399.63 462.306 1400.54 462.306C1401.38 462.306 1402.09 461.871 1402.09 461.001C1402.09 460.311 1401.44 459.501 1400.63 459.501C1399.48 459.501 1399.27 460.206 1398.41 461.256C1398.37 461.316 1398.32 461.406 1398.37 461.466ZM1393.22 460.986C1393.22 461.871 1393.97 462.531 1394.86 462.531C1395.79 462.531 1396.6 461.631 1397.2 460.761C1397.29 460.641 1397.35 460.551 1397.35 460.461C1397.35 460.416 1397.32 460.356 1397.26 460.281C1396.73 459.636 1396.31 459.321 1395.35 459.321C1394.3 459.321 1393.22 459.936 1393.22 460.986ZM1389.79 465.523C1389.79 465.328 1389.91 465.118 1390.12 465.118C1390.15 465.118 1390.37 465.328 1390.4 465.343C1391.47 466.258 1394.66 467.233 1397.21 467.233C1399.76 467.233 1401.98 466.213 1403.05 465.298C1403.08 465.268 1403.3 465.103 1403.33 465.103C1403.47 465.103 1403.57 465.328 1403.57 465.433C1403.57 465.583 1403.5 465.748 1403.41 465.838C1402.34 466.903 1399.58 468.478 1397.03 468.478C1394.48 468.478 1390.96 466.843 1389.89 465.778C1389.82 465.703 1389.79 465.613 1389.79 465.523Z" fill="#3170B7"/>
<path d="M639.555 483.21C639.465 483.21 639.375 483.18 639.3 483.105C638.235 482.04 636.6 478.515 636.6 475.965C636.6 473.415 638.175 470.655 639.24 469.59C639.33 469.5 639.495 469.425 639.645 469.425C639.75 469.425 639.975 469.53 639.975 469.665C639.975 469.695 639.81 469.92 639.78 469.95C638.865 471.015 637.845 473.235 637.845 475.785C637.845 478.335 638.82 481.53 639.735 482.595C639.75 482.625 639.96 482.85 639.96 482.88C639.96 483.09 639.75 483.21 639.555 483.21ZM642.336 480.045C642.186 480.045 642.111 479.955 642.111 479.865C642.111 479.79 642.216 479.7 642.336 479.67C643.476 479.385 643.986 479.25 643.986 478.365V472.635C643.986 472.065 643.371 471.96 642.726 471.915C642.531 471.9 642.336 471.825 642.336 471.66C642.336 471.525 642.501 471.42 642.711 471.39C643.611 471.255 644.286 471.135 644.961 470.46C644.976 470.445 645.006 470.445 645.036 470.445C645.126 470.445 645.231 470.505 645.216 470.58C645.171 470.88 645.156 471.225 645.156 471.645V478.545C645.156 479.31 645.516 479.385 646.746 479.685C646.866 479.715 647.001 479.79 647.001 479.88C647.001 479.97 646.911 480.045 646.791 480.045C645.936 480.045 645.381 479.97 644.586 479.97C643.776 479.97 643.146 480.045 642.336 480.045ZM651.613 480.21C649.573 480.21 648.613 477.69 648.613 475.47C648.613 473.19 649.543 470.55 651.763 470.55C653.803 470.55 654.763 473.085 654.763 475.26C654.763 477.51 653.833 480.21 651.613 480.21ZM651.868 479.82C653.068 479.82 653.533 477.78 653.533 475.53C653.533 473.28 652.828 470.97 651.478 470.97C650.278 470.97 649.858 472.95 649.858 475.2C649.858 477.45 650.518 479.82 651.868 479.82ZM656.751 480.045C656.601 480.045 656.526 479.955 656.526 479.865C656.526 479.79 656.631 479.7 656.751 479.67C657.891 479.385 658.401 479.25 658.401 478.365V472.635C658.401 472.065 657.786 471.96 657.141 471.915C656.946 471.9 656.751 471.825 656.751 471.66C656.751 471.525 656.916 471.42 657.126 471.39C658.026 471.255 658.701 471.135 659.376 470.46C659.391 470.445 659.421 470.445 659.451 470.445C659.541 470.445 659.646 470.505 659.631 470.58C659.586 470.88 659.571 471.225 659.571 471.645V478.545C659.571 479.31 659.931 479.385 661.161 479.685C661.281 479.715 661.416 479.79 661.416 479.88C661.416 479.97 661.326 480.045 661.206 480.045C660.351 480.045 659.796 479.97 659.001 479.97C658.191 479.97 657.561 480.045 656.751 480.045ZM663.523 483.21C663.328 483.21 663.118 483.09 663.118 482.88C663.118 482.85 663.328 482.625 663.343 482.595C664.258 481.53 665.233 478.335 665.233 475.785C665.233 473.235 664.213 471.015 663.298 469.95C663.268 469.92 663.103 469.695 663.103 469.665C663.103 469.53 663.328 469.425 663.433 469.425C663.583 469.425 663.748 469.5 663.838 469.59C664.903 470.655 666.478 473.415 666.478 475.965C666.478 478.515 664.843 482.04 663.778 483.105C663.703 483.18 663.613 483.21 663.523 483.21Z" fill="#3170B7"/>
<path d="M792.555 145.21C792.465 145.21 792.375 145.18 792.3 145.105C791.235 144.04 789.6 140.515 789.6 137.965C789.6 135.415 791.175 132.655 792.24 131.59C792.33 131.5 792.495 131.425 792.645 131.425C792.75 131.425 792.975 131.53 792.975 131.665C792.975 131.695 792.81 131.92 792.78 131.95C791.865 133.015 790.845 135.235 790.845 137.785C790.845 140.335 791.82 143.53 792.735 144.595C792.75 144.625 792.96 144.85 792.96 144.88C792.96 145.09 792.75 145.21 792.555 145.21ZM795.336 142.045C795.186 142.045 795.111 141.955 795.111 141.865C795.111 141.79 795.216 141.7 795.336 141.67C796.476 141.385 796.986 141.25 796.986 140.365V134.635C796.986 134.065 796.371 133.96 795.726 133.915C795.531 133.9 795.336 133.825 795.336 133.66C795.336 133.525 795.501 133.42 795.711 133.39C796.611 133.255 797.286 133.135 797.961 132.46C797.976 132.445 798.006 132.445 798.036 132.445C798.126 132.445 798.231 132.505 798.216 132.58C798.171 132.88 798.156 133.225 798.156 133.645V140.545C798.156 141.31 798.516 141.385 799.746 141.685C799.866 141.715 800.001 141.79 800.001 141.88C800.001 141.97 799.911 142.045 799.791 142.045C798.936 142.045 798.381 141.97 797.586 141.97C796.776 141.97 796.146 142.045 795.336 142.045ZM802.543 142.045C802.393 142.045 802.318 141.955 802.318 141.865C802.318 141.79 802.423 141.7 802.543 141.67C803.683 141.385 804.193 141.25 804.193 140.365V134.635C804.193 134.065 803.578 133.96 802.933 133.915C802.738 133.9 802.543 133.825 802.543 133.66C802.543 133.525 802.708 133.42 802.918 133.39C803.818 133.255 804.493 133.135 805.168 132.46C805.183 132.445 805.213 132.445 805.243 132.445C805.333 132.445 805.438 132.505 805.423 132.58C805.378 132.88 805.363 133.225 805.363 133.645V140.545C805.363 141.31 805.723 141.385 806.953 141.685C807.073 141.715 807.208 141.79 807.208 141.88C807.208 141.97 807.118 142.045 806.998 142.045C806.143 142.045 805.588 141.97 804.793 141.97C803.983 141.97 803.353 142.045 802.543 142.045ZM810.051 142.48C809.826 142.48 809.736 142.315 809.736 142.09C809.736 142.03 809.916 141.715 810.051 141.475L814.296 133.885C814.326 133.825 814.371 133.75 814.146 133.735H810.306C809.826 133.735 809.481 133.87 809.151 134.425C809.091 134.53 808.941 134.8 808.791 134.8C808.701 134.8 808.686 134.665 808.686 134.59C808.686 134.485 808.731 134.335 808.746 134.26C808.851 133.825 808.941 133.15 808.986 132.775C809.001 132.64 809.091 132.61 809.136 132.61C809.181 132.61 809.766 132.745 810.396 132.745C810.846 132.745 811.176 132.76 811.881 132.76C813.351 132.76 815.046 132.73 815.331 132.685C815.376 132.685 815.421 132.805 815.421 132.88C815.421 133.12 815.001 133.675 814.851 133.93L810.336 142.075C810.246 142.24 810.111 142.48 810.051 142.48ZM816.523 145.21C816.328 145.21 816.118 145.09 816.118 144.88C816.118 144.85 816.328 144.625 816.343 144.595C817.258 143.53 818.233 140.335 818.233 137.785C818.233 135.235 817.213 133.015 816.298 131.95C816.268 131.92 816.103 131.695 816.103 131.665C816.103 131.53 816.328 131.425 816.433 131.425C816.583 131.425 816.748 131.5 816.838 131.59C817.903 132.655 819.478 135.415 819.478 137.965C819.478 140.515 817.843 144.04 816.778 145.105C816.703 145.18 816.613 145.21 816.523 145.21Z" fill="#3170B7"/>
<path d="M805.79 441.555C805.79 441.465 805.82 441.375 805.895 441.3C806.96 440.235 810.485 438.6 813.035 438.6C815.585 438.6 818.345 440.175 819.41 441.24C819.5 441.33 819.575 441.495 819.575 441.645C819.575 441.75 819.47 441.975 819.335 441.975C819.305 441.975 819.08 441.81 819.05 441.78C817.985 440.865 815.765 439.845 813.215 439.845C810.665 439.845 807.47 440.82 806.405 441.735C806.375 441.75 806.15 441.96 806.12 441.96C805.91 441.96 805.79 441.75 805.79 441.555ZM808.43 445.146C808.43 444.441 808.835 443.481 809.075 443.481C809.285 443.481 809.765 443.916 809.765 444.141C809.765 444.366 809.615 444.531 809.465 444.726C809.24 444.981 809 445.296 809 445.851C809 446.946 809.945 448.041 811.19 448.041C812.345 448.041 813.56 447.456 813.56 446.301C813.56 446.076 813.53 445.671 813.335 445.326C813.275 445.221 813.365 445.041 813.47 445.071C813.725 445.146 813.89 445.326 813.98 445.521C814.145 445.866 814.925 447.411 815.99 447.411C816.815 447.411 817.55 446.811 817.55 446.001C817.55 444.456 816.215 444.216 816.215 443.991C816.215 443.916 816.35 443.751 816.5 443.751C817.025 443.751 818.45 444.606 818.45 446.646C818.45 447.636 817.76 448.596 816.74 448.596C816.02 448.596 815.165 448.191 814.49 447.021C814.46 446.961 814.4 446.961 814.4 447.036C814.4 448.311 813.32 449.316 812.045 449.316C809.795 449.316 808.43 447.186 808.43 445.146ZM808.43 452.353C808.43 451.648 808.835 450.688 809.075 450.688C809.285 450.688 809.765 451.123 809.765 451.348C809.765 451.573 809.615 451.738 809.465 451.933C809.24 452.188 809 452.503 809 453.058C809 454.153 809.945 455.248 811.19 455.248C812.345 455.248 813.56 454.663 813.56 453.508C813.56 453.283 813.53 452.878 813.335 452.533C813.275 452.428 813.365 452.248 813.47 452.278C813.725 452.353 813.89 452.533 813.98 452.728C814.145 453.073 814.925 454.618 815.99 454.618C816.815 454.618 817.55 454.018 817.55 453.208C817.55 451.663 816.215 451.423 816.215 451.198C816.215 451.123 816.35 450.958 816.5 450.958C817.025 450.958 818.45 451.813 818.45 453.853C818.45 454.843 817.76 455.803 816.74 455.803C816.02 455.803 815.165 455.398 814.49 454.228C814.46 454.168 814.4 454.168 814.4 454.243C814.4 455.518 813.32 456.523 812.045 456.523C809.795 456.523 808.43 454.393 808.43 452.353ZM808.52 459.051C808.52 458.826 808.685 458.736 808.91 458.736C808.97 458.736 809.285 458.916 809.525 459.051L817.115 463.296C817.175 463.326 817.25 463.371 817.265 463.146L817.265 459.306C817.265 458.826 817.13 458.481 816.575 458.151C816.47 458.091 816.2 457.941 816.2 457.791C816.2 457.701 816.335 457.686 816.41 457.686C816.515 457.686 816.665 457.731 816.74 457.746C817.175 457.851 817.85 457.941 818.225 457.986C818.36 458.001 818.39 458.091 818.39 458.136C818.39 458.181 818.255 458.766 818.255 459.396C818.255 459.846 818.24 460.176 818.24 460.881C818.24 462.351 818.27 464.046 818.315 464.331C818.315 464.376 818.195 464.421 818.12 464.421C817.88 464.421 817.325 464.001 817.07 463.851L808.925 459.336C808.76 459.246 808.52 459.111 808.52 459.051ZM805.79 465.523C805.79 465.328 805.91 465.118 806.12 465.118C806.15 465.118 806.375 465.328 806.405 465.343C807.47 466.258 810.665 467.233 813.215 467.233C815.765 467.233 817.985 466.213 819.05 465.298C819.08 465.268 819.305 465.103 819.335 465.103C819.47 465.103 819.575 465.328 819.575 465.433C819.575 465.583 819.5 465.748 819.41 465.838C818.345 466.903 815.585 468.478 813.035 468.478C810.485 468.478 806.96 466.843 805.895 465.778C805.82 465.703 805.79 465.613 805.79 465.523Z" fill="#3170B7"/>
<path d="M1389.79 -26.445C1389.79 -26.535 1389.82 -26.625 1389.89 -26.7C1390.96 -27.765 1394.49 -29.4 1397.04 -29.4C1399.59 -29.4 1402.35 -27.825 1403.41 -26.76C1403.5 -26.67 1403.58 -26.505 1403.58 -26.355C1403.58 -26.25 1403.47 -26.025 1403.33 -26.025C1403.31 -26.025 1403.08 -26.19 1403.05 -26.22C1401.99 -27.135 1399.77 -28.155 1397.22 -28.155C1394.67 -28.155 1391.47 -27.18 1390.4 -26.265C1390.37 -26.25 1390.15 -26.04 1390.12 -26.04C1389.91 -26.04 1389.79 -26.25 1389.79 -26.445ZM1392.76 -21.4886C1392.76 -23.0336 1393.79 -24.5636 1395.89 -24.5636C1398.13 -24.5636 1399.58 -23.3186 1400.16 -22.7486C1400.92 -21.9986 1402.12 -20.5886 1402.61 -18.7436C1402.66 -18.5636 1402.57 -18.4436 1402.51 -18.4736C1402.33 -18.5636 1402.26 -18.7586 1402.21 -18.8636C1401.63 -20.2136 1400.94 -21.1286 1399.84 -21.8936C1399.12 -22.3886 1397.49 -23.2736 1395.92 -23.2736C1394.26 -23.2436 1393.34 -22.1186 1393.33 -21.1286C1393.31 -20.3186 1393.88 -19.5836 1395.13 -19.5836C1396.04 -19.5836 1396.9 -20.1536 1396.9 -20.9486C1396.9 -21.4736 1396.85 -21.8036 1396.67 -22.1486C1396.58 -22.3286 1396.72 -22.3586 1396.84 -22.2536C1397 -22.1036 1397.08 -22.0136 1397.2 -21.8486C1397.36 -21.6236 1397.69 -20.9336 1397.69 -20.3786C1397.69 -19.3436 1396.93 -18.4136 1395.85 -18.4136C1393.97 -18.4136 1392.76 -20.0336 1392.76 -21.4886ZM1392.79 -14.4315C1392.79 -15.8115 1393.73 -17.0865 1395.11 -17.0865C1396.43 -17.0865 1397.11 -15.8415 1397.53 -15.0765C1397.6 -14.9415 1397.62 -15.0015 1397.72 -15.1215C1398.49 -16.0215 1399.06 -16.8615 1400.33 -16.8615C1401.5 -16.8615 1402.45 -15.4665 1402.45 -14.1315C1402.45 -12.9315 1401.65 -11.7465 1400.44 -11.7465C1399.72 -11.7465 1399.3 -12.1965 1399 -12.5415C1398.76 -12.8265 1398.62 -12.9915 1398.37 -13.3365C1398.19 -13.5915 1398.16 -13.5765 1398.05 -13.4115C1397.27 -12.2865 1396.61 -11.4765 1395.46 -11.4765C1393.9 -11.4765 1392.79 -12.9615 1392.79 -14.4315ZM1398.37 -13.7415C1398.94 -13.0515 1399.63 -12.9015 1400.54 -12.9015C1401.38 -12.9015 1402.09 -13.3365 1402.09 -14.2065C1402.09 -14.8965 1401.44 -15.7065 1400.63 -15.7065C1399.48 -15.7065 1399.27 -15.0015 1398.41 -13.9515C1398.37 -13.8915 1398.32 -13.8015 1398.37 -13.7415ZM1393.22 -14.2215C1393.22 -13.3365 1393.97 -12.6765 1394.86 -12.6765C1395.79 -12.6765 1396.6 -13.5765 1397.2 -14.4465C1397.29 -14.5665 1397.35 -14.6565 1397.35 -14.7465C1397.35 -14.7915 1397.32 -14.8515 1397.26 -14.9265C1396.73 -15.5715 1396.31 -15.8865 1395.35 -15.8865C1394.3 -15.8865 1393.22 -15.2715 1393.22 -14.2215ZM1392.79 -7.17949C1392.79 -9.21949 1395.31 -10.1795 1397.53 -10.1795C1399.81 -10.1795 1402.45 -9.24949 1402.45 -7.02949C1402.45 -4.98949 1399.91 -4.02949 1397.74 -4.02949C1395.49 -4.02949 1392.79 -4.95949 1392.79 -7.17949ZM1393.18 -6.92449C1393.18 -5.72449 1395.22 -5.25949 1397.47 -5.25949C1399.72 -5.25949 1402.03 -5.96449 1402.03 -7.31449C1402.03 -8.51449 1400.05 -8.93449 1397.8 -8.93449C1395.55 -8.93449 1393.18 -8.27449 1393.18 -6.92449ZM1389.79 -2.47746C1389.79 -2.67246 1389.91 -2.88246 1390.12 -2.88246C1390.15 -2.88246 1390.37 -2.67246 1390.4 -2.65746C1391.47 -1.74246 1394.66 -0.767461 1397.21 -0.767461C1399.76 -0.767461 1401.98 -1.78746 1403.05 -2.70246C1403.08 -2.73246 1403.3 -2.89746 1403.33 -2.89746C1403.47 -2.89746 1403.57 -2.67246 1403.57 -2.56746C1403.57 -2.41746 1403.5 -2.25246 1403.41 -2.16246C1402.34 -1.09746 1399.58 0.477539 1397.03 0.477539C1394.48 0.477539 1390.96 -1.15746 1389.89 -2.22246C1389.82 -2.29746 1389.79 -2.38746 1389.79 -2.47746Z" fill="white"/>
<path d="M57.555 13.21C57.465 13.21 57.375 13.18 57.3 13.105C56.235 12.04 54.6 8.515 54.6 5.965C54.6 3.415 56.175 0.655 57.24 -0.41C57.33 -0.500001 57.495 -0.575001 57.645 -0.575001C57.75 -0.575001 57.975 -0.47 57.975 -0.335C57.975 -0.305001 57.81 -0.0800008 57.78 -0.0500003C56.865 1.015 55.845 3.235 55.845 5.785C55.845 8.335 56.82 11.53 57.735 12.595C57.75 12.625 57.96 12.85 57.96 12.88C57.96 13.09 57.75 13.21 57.555 13.21ZM60.3364 10.045C60.1864 10.045 60.1114 9.955 60.1114 9.865C60.1114 9.79 60.2164 9.7 60.3364 9.67C61.4764 9.385 61.9864 9.25 61.9864 8.365V2.635C61.9864 2.065 61.3714 1.96 60.7264 1.915C60.5314 1.9 60.3364 1.825 60.3364 1.66C60.3364 1.525 60.5014 1.42 60.7114 1.39C61.6114 1.255 62.2864 1.135 62.9614 0.459999C62.9764 0.445 63.0064 0.445 63.0364 0.445C63.1264 0.445 63.2314 0.505 63.2164 0.58C63.1714 0.879999 63.1564 1.225 63.1564 1.645V8.545C63.1564 9.31 63.5164 9.385 64.7464 9.685C64.8664 9.715 65.0014 9.79 65.0014 9.88C65.0014 9.97 64.9114 10.045 64.7914 10.045C63.9364 10.045 63.3814 9.97 62.5864 9.97C61.7764 9.97 61.1464 10.045 60.3364 10.045ZM68.3535 10.57C67.6485 10.57 66.6885 10.165 66.6885 9.925C66.6885 9.715 67.1235 9.235 67.3485 9.235C67.5735 9.235 67.7385 9.385 67.9335 9.535C68.1885 9.76 68.5035 10 69.0585 10C70.1535 10 71.2485 9.055 71.2485 7.81C71.2485 6.655 70.6635 5.44 69.5085 5.44C69.2835 5.44 68.8785 5.47 68.5335 5.665C68.4285 5.725 68.2485 5.635 68.2785 5.53C68.3535 5.275 68.5335 5.11 68.7285 5.02C69.0735 4.855 70.6185 4.075 70.6185 3.01C70.6185 2.185 70.0185 1.45 69.2085 1.45C67.6635 1.45 67.4235 2.785 67.1985 2.785C67.1235 2.785 66.9585 2.65 66.9585 2.5C66.9585 1.975 67.8135 0.549999 69.8535 0.549999C70.8435 0.549999 71.8035 1.24 71.8035 2.26C71.8035 2.98 71.3985 3.835 70.2285 4.51C70.1685 4.54 70.1685 4.6 70.2435 4.6C71.5185 4.6 72.5235 5.68 72.5235 6.955C72.5235 9.205 70.3935 10.57 68.3535 10.57ZM75.5605 10.57C74.8555 10.57 73.8955 10.165 73.8955 9.925C73.8955 9.715 74.3305 9.235 74.5555 9.235C74.7805 9.235 74.9455 9.385 75.1405 9.535C75.3955 9.76 75.7105 10 76.2655 10C77.3605 10 78.4555 9.055 78.4555 7.81C78.4555 6.655 77.8705 5.44 76.7155 5.44C76.4905 5.44 76.0855 5.47 75.7405 5.665C75.6355 5.725 75.4555 5.635 75.4855 5.53C75.5605 5.275 75.7405 5.11 75.9355 5.02C76.2805 4.855 77.8255 4.075 77.8255 3.01C77.8255 2.185 77.2255 1.45 76.4155 1.45C74.8705 1.45 74.6305 2.785 74.4055 2.785C74.3305 2.785 74.1655 2.65 74.1655 2.5C74.1655 1.975 75.0205 0.549999 77.0605 0.549999C78.0505 0.549999 79.0105 1.24 79.0105 2.26C79.0105 2.98 78.6055 3.835 77.4355 4.51C77.3755 4.54 77.3755 4.6 77.4505 4.6C78.7255 4.6 79.7305 5.68 79.7305 6.955C79.7305 9.205 77.6005 10.57 75.5605 10.57ZM83.5025 10.045C83.3975 10.045 83.2325 9.985 83.2325 9.85C83.2325 9.745 83.3825 9.685 83.5025 9.67C84.4325 9.55 84.6575 9.28 84.6575 8.8V7.405C84.6575 7.315 84.4475 7.27 84.4325 7.27C83.2025 7.27 82.3625 7.36 80.7875 7.375C80.7125 7.375 80.6375 7.285 80.6375 7.225C80.6375 7.21 80.6375 7.195 80.6525 7.18C81.0275 6.715 81.0425 6.745 81.2375 6.475L85.1975 0.79C85.3175 0.609999 85.4975 0.37 85.6475 0.37H85.9625C86.0525 0.37 85.9325 0.58 85.9325 0.58L81.8825 6.4C81.8525 6.445 81.8225 6.535 81.8825 6.535H84.4775C84.5525 6.535 84.6575 6.475 84.6575 6.415V4.09C84.6575 3.88 84.6725 3.82 84.7925 3.76C85.0925 3.595 85.4975 3.565 85.6325 3.565C85.8575 3.565 85.8575 3.895 85.8575 4.525V6.46C85.8575 6.505 85.8875 6.55 85.9325 6.55C86.1575 6.565 86.3525 6.565 86.5325 6.565C86.8175 6.565 87.0875 6.55 87.4175 6.535C87.5075 6.535 87.5825 6.595 87.5825 6.655C87.5825 6.895 87.3275 7.225 87.2675 7.225C87.0425 7.225 86.7725 7.21 86.5325 7.21C86.3525 7.21 86.1875 7.225 86.0675 7.24C85.9925 7.255 85.8725 7.315 85.8725 7.33V8.74C85.8725 9.325 86.0675 9.46 86.8775 9.67C86.9975 9.7 87.1475 9.79 87.1475 9.88C87.1475 9.97 87.0425 10.045 86.9225 10.045C86.0675 10.045 85.9325 9.97 85.2275 9.97C84.4625 9.97 84.3125 10.045 83.5025 10.045ZM88.7296 13.21C88.5346 13.21 88.3246 13.09 88.3246 12.88C88.3246 12.85 88.5346 12.625 88.5496 12.595C89.4646 11.53 90.4396 8.335 90.4396 5.785C90.4396 3.235 89.4196 1.015 88.5046 -0.0500003C88.4746 -0.0800008 88.3096 -0.305001 88.3096 -0.335C88.3096 -0.47 88.5346 -0.575001 88.6396 -0.575001C88.7896 -0.575001 88.9546 -0.500001 89.0446 -0.41C90.1096 0.655 91.6846 3.415 91.6846 5.965C91.6846 8.515 90.0496 12.04 88.9846 13.105C88.9096 13.18 88.8196 13.21 88.7296 13.21Z" fill="#3170B7"/>
<path d="M40.79 104.555C40.79 104.465 40.82 104.375 40.895 104.3C41.96 103.235 45.485 101.6 48.035 101.6C50.585 101.6 53.345 103.175 54.41 104.24C54.5 104.33 54.575 104.495 54.575 104.645C54.575 104.75 54.47 104.975 54.335 104.975C54.305 104.975 54.08 104.81 54.05 104.78C52.985 103.865 50.765 102.845 48.215 102.845C45.665 102.845 42.47 103.82 41.405 104.735C41.375 104.75 41.15 104.96 41.12 104.96C40.91 104.96 40.79 104.75 40.79 104.555ZM43.955 107.336C43.955 107.186 44.045 107.111 44.135 107.111C44.21 107.111 44.3 107.216 44.33 107.336C44.615 108.476 44.75 108.986 45.635 108.986L51.365 108.986C51.935 108.986 52.04 108.371 52.085 107.726C52.1 107.531 52.175 107.336 52.34 107.336C52.475 107.336 52.58 107.501 52.61 107.711C52.745 108.611 52.865 109.286 53.54 109.961C53.555 109.976 53.555 110.006 53.555 110.036C53.555 110.126 53.495 110.231 53.42 110.216C53.12 110.171 52.775 110.156 52.355 110.156L45.455 110.156C44.69 110.156 44.615 110.516 44.315 111.746C44.285 111.866 44.21 112.001 44.12 112.001C44.03 112.001 43.955 111.911 43.955 111.791C43.955 110.936 44.03 110.381 44.03 109.586C44.03 108.776 43.955 108.146 43.955 107.336ZM43.43 115.353C43.43 114.648 43.835 113.688 44.075 113.688C44.285 113.688 44.765 114.123 44.765 114.348C44.765 114.573 44.615 114.738 44.465 114.933C44.24 115.188 44 115.503 44 116.058C44 117.153 44.945 118.248 46.19 118.248C47.345 118.248 48.56 117.663 48.56 116.508C48.56 116.283 48.53 115.878 48.335 115.533C48.275 115.428 48.365 115.248 48.47 115.278C48.725 115.353 48.89 115.533 48.98 115.728C49.145 116.073 49.925 117.618 50.99 117.618C51.815 117.618 52.55 117.018 52.55 116.208C52.55 114.663 51.215 114.423 51.215 114.198C51.215 114.123 51.35 113.958 51.5 113.958C52.025 113.958 53.45 114.813 53.45 116.853C53.45 117.843 52.76 118.803 51.74 118.803C51.02 118.803 50.165 118.398 49.49 117.228C49.46 117.168 49.4 117.168 49.4 117.243C49.4 118.518 48.32 119.523 47.045 119.523C44.795 119.523 43.43 117.393 43.43 115.353ZM43.43 122.561C43.43 121.856 43.835 120.896 44.075 120.896C44.285 120.896 44.765 121.331 44.765 121.556C44.765 121.781 44.615 121.946 44.465 122.141C44.24 122.396 44 122.711 44 123.266C44 124.361 44.945 125.456 46.19 125.456C47.345 125.456 48.56 124.871 48.56 123.716C48.56 123.491 48.53 123.086 48.335 122.741C48.275 122.636 48.365 122.456 48.47 122.486C48.725 122.561 48.89 122.741 48.98 122.936C49.145 123.281 49.925 124.826 50.99 124.826C51.815 124.826 52.55 124.226 52.55 123.416C52.55 121.871 51.215 121.631 51.215 121.406C51.215 121.331 51.35 121.166 51.5 121.166C52.025 121.166 53.45 122.021 53.45 124.061C53.45 125.051 52.76 126.011 51.74 126.011C51.02 126.011 50.165 125.606 49.49 124.436C49.46 124.376 49.4 124.376 49.4 124.451C49.4 125.726 48.32 126.731 47.045 126.731C44.795 126.731 43.43 124.601 43.43 122.561ZM40.79 128.523C40.79 128.328 40.91 128.118 41.12 128.118C41.15 128.118 41.375 128.328 41.405 128.343C42.47 129.258 45.665 130.233 48.215 130.233C50.765 130.233 52.985 129.213 54.05 128.298C54.08 128.268 54.305 128.103 54.335 128.103C54.47 128.103 54.575 128.328 54.575 128.433C54.575 128.583 54.5 128.748 54.41 128.838C53.345 129.903 50.585 131.478 48.035 131.478C45.485 131.478 41.96 129.843 40.895 128.778C40.82 128.703 40.79 128.613 40.79 128.523Z" fill="#3170B7"/>
<line x1="819.5" y1="132" x2="819.5" y2="469" stroke="#3170B7"/>
</g>
</g>
<defs>
<clipPath id="clip0_4_2">
<rect width="1440" height="721" fill="white"/>
</clipPath>
<clipPath id="clip1_4_2">
<rect width="1440" height="4449" fill="white" transform="translate(0 -680)"/>
</clipPath>
</defs>
</svg>
