<svg width="577" height="161" viewBox="0 0 577 161" fill="none" xmlns="http://www.w3.org/2000/svg">
<path d="M80.0596 35.16C79.6596 35.16 79.2596 34.96 79.2596 34.6C79.2596 34.16 79.5396 33.88 80.0996 33.76C82.0196 33.28 82.6196 32.76 82.6196 31.04V12.88C82.6196 11.2 82.0196 10.72 80.1796 10.28C79.6196 10.16 79.3396 9.88004 79.3396 9.44004C79.3396 9.08004 79.7396 8.84004 80.1396 8.84004C81.7796 8.84004 84.0596 9.04004 85.6996 9.04004C87.2996 9.04004 89.4596 8.88004 91.2596 8.88004C91.6996 8.88004 91.9796 9.08004 91.9796 9.44004C91.9796 9.96004 91.6596 10.12 91.0996 10.28C89.3396 10.76 88.8196 11.24 88.8196 12.76V31.96C88.8196 32.52 89.1396 32.96 89.6996 32.96H95.6196C96.3796 32.96 96.5396 32.48 96.5396 31.92V12.76C96.5396 11.16 96.0596 10.8 94.2596 10.28C93.6996 10.12 93.4196 9.96004 93.4196 9.44004C93.4196 9.08004 93.6996 8.88004 94.1396 8.88004C95.8996 8.88004 98.1396 9.04004 99.7396 9.04004C101.38 9.04004 103.3 8.84004 104.94 8.84004C105.3 8.84004 105.74 9.08004 105.74 9.44004C105.74 9.88004 105.42 10.16 104.86 10.28C103.14 10.68 102.7 11.16 102.7 12.72V32C102.7 32.52 102.9 32.96 103.62 32.96H109.54C110.14 32.96 110.46 32.44 110.46 31.92V12.76C110.46 11.32 110.1 10.8 108.18 10.28C107.62 10.12 107.3 9.96004 107.3 9.44004C107.3 9.08004 107.62 8.88004 108.06 8.88004C109.82 8.88004 112.02 9.04004 113.66 9.04004C115.26 9.04004 117.54 8.84004 119.14 8.84004C119.54 8.84004 119.94 9.08004 119.94 9.44004C119.94 9.88004 119.66 10.16 119.1 10.28C117.26 10.72 116.62 11.2 116.62 12.88V31.04C116.62 32.76 117.26 33.28 119.14 33.76C119.7 33.88 120.02 34.16 120.02 34.6C120.02 34.96 119.62 35.16 119.22 35.16C117.38 35.16 115.3 34.96 113.66 34.96C108.86 34.96 104.18 34.96 99.5796 34.96C95.0196 34.96 90.4596 34.96 85.6996 34.96C84.0196 34.96 81.8996 35.16 80.0596 35.16ZM122.172 35.16C121.772 35.16 121.372 34.96 121.372 34.6C121.372 34.16 121.692 33.88 122.212 33.76C124.252 33.32 124.812 32.84 124.812 31.16V13C124.812 11.24 124.372 10.76 122.292 10.28C121.732 10.16 121.412 9.88004 121.412 9.44004C121.412 9.08004 121.852 8.84004 122.212 8.84004C124.052 8.84004 126.292 9.04004 127.892 9.04004C129.452 9.04004 131.972 8.88004 133.732 8.88004C134.172 8.88004 134.452 9.08004 134.452 9.44004C134.452 9.96004 134.172 10.12 133.612 10.28C131.452 10.88 130.972 11.44 130.972 13.04V26.6C130.972 27.36 131.092 27.4 131.572 26.88L143.132 14.16C143.372 13.92 143.532 13.64 143.532 13.28V12.88C143.492 11.24 142.932 10.76 140.892 10.28C140.332 10.16 140.012 9.88004 140.012 9.44004C140.012 9.08004 140.452 8.84004 140.812 8.84004C142.652 8.84004 144.932 9.04004 146.572 9.04004C148.132 9.04004 150.572 8.88004 152.332 8.88004C152.772 8.88004 153.052 9.08004 153.052 9.44004C153.052 9.96004 152.772 10.12 152.212 10.28C150.052 10.88 149.692 11.44 149.692 13.04V31.12C149.692 32.68 150.132 33.2 152.212 33.76C152.772 33.92 153.092 34.08 153.092 34.56C153.092 34.96 152.812 35.16 152.332 35.16C150.572 35.16 148.052 34.96 146.492 34.96C144.892 34.96 142.652 35.16 140.812 35.16C140.412 35.16 140.012 34.96 140.012 34.6C140.012 34.16 140.292 33.88 140.852 33.76C142.852 33.32 143.532 32.88 143.532 31.24V17.44C143.532 17.12 143.372 17.08 143.172 17.24L131.492 30.12C131.132 30.52 130.972 30.72 130.972 31.2C130.972 32.72 131.652 33.2 133.692 33.76C134.252 33.92 134.532 34.08 134.532 34.56C134.532 34.96 134.252 35.16 133.812 35.16C132.052 35.16 129.492 34.96 127.892 34.96C126.252 34.96 124.012 35.16 122.172 35.16ZM155.178 35.16C154.778 35.16 154.378 34.96 154.378 34.6C154.378 34.16 154.658 33.88 155.218 33.76C157.258 33.32 157.898 32.84 157.898 31.12V13.2C157.898 11.36 157.418 10.72 155.498 10.28C154.818 10.12 154.578 9.80004 154.578 9.44004C154.578 9.12004 154.938 8.84004 155.458 8.84004C157.258 8.84004 159.258 9.04004 160.858 9.04004C162.738 9.04004 163.738 8.64004 166.378 8.64004C172.858 8.64004 176.978 11.6 176.978 16.36C176.978 21.4 173.818 25.68 167.298 25.68C165.898 25.68 165.178 25.24 165.178 24.64C165.178 24.24 165.618 24 165.898 24C166.458 24 166.778 24.2 167.538 24.2C169.778 24.2 170.938 21.48 170.938 17.36C170.938 12.44 169.218 10.4 166.378 10.4C164.858 10.4 164.098 11.04 164.098 12.44L164.058 31.04C164.058 32.76 164.858 33.28 167.098 33.76C167.658 33.88 167.978 34.08 167.978 34.56C167.978 34.96 167.698 35.16 167.218 35.16C165.458 35.16 162.578 34.96 161.018 34.96C159.338 34.96 156.978 35.16 155.178 35.16ZM190.115 35.6C183.875 35.6 181.115 30.84 181.115 25.32C181.115 17.64 186.715 8.48004 196.715 8.48004C202.955 8.48004 205.715 13.24 205.715 18.76C205.715 26.44 200.115 35.6 190.115 35.6ZM190.235 34.36C197.475 34.36 202.315 25 202.315 17.24C202.315 13.48 200.675 9.60004 196.595 9.60004C189.675 9.60004 184.515 19.08 184.515 26.84C184.515 30.6 186.155 34.36 190.235 34.36ZM229.288 35.76C226.128 35.76 224.488 34.8 223.008 32L218.968 24.4C218.408 23.36 217.848 22.72 217.248 22.52C216.928 22.4 216.688 22.4 216.448 22.4C216.208 22.4 216.128 22.72 216.128 23.04L216.208 31.04C216.288 32.56 216.528 33.2 218.568 33.76C219.128 33.92 219.648 34.08 219.648 34.56C219.648 34.96 219.048 35.2 218.488 35.2C216.008 35.2 214.648 34.88 213.128 34.88C211.448 34.88 210.248 35.28 207.608 35.28C207.088 35.28 206.488 34.96 206.488 34.6C206.488 34.16 206.848 33.88 207.528 33.76C209.568 33.36 210.008 32.84 210.008 31.12V13C210.008 11.24 209.448 10.76 207.328 10.28C206.768 10.16 206.488 9.88004 206.488 9.44004C206.488 9.08004 206.888 8.84004 207.288 8.84004C209.128 8.84004 211.408 9.04004 213.048 9.04004C214.568 9.04004 217.008 8.88004 218.808 8.88004C219.248 8.88004 219.528 9.08004 219.528 9.44004C219.528 9.96004 219.208 10.12 218.648 10.28C216.488 10.88 216.128 11.44 216.128 13.04V20.12C216.128 20.6 216.328 20.76 216.528 20.76H217.448C219.408 20.76 220.808 19 221.728 16.76L223.128 13.36C224.208 10.68 225.328 8.48004 228.768 8.48004C230.968 8.48004 231.968 9.76004 231.968 11.24C231.968 12.44 231.288 13.88 229.928 13.88C228.888 13.88 227.848 13.04 226.968 13.04C226.008 13.04 225.048 13.56 224.448 15.08L223.288 18C222.888 19.12 222.168 19.92 221.368 20.4C221.048 20.6 221.288 20.88 221.448 20.96C223.488 21.28 224.368 22.16 225.688 24.52L228.968 30.4C230.488 33.08 231.928 33.32 233.768 33.32C234.128 33.32 234.408 33.64 234.408 33.96C234.408 34.24 234.168 34.48 233.968 34.6C233.328 35.12 231.368 35.76 229.288 35.76ZM235.492 35.16C235.092 35.16 234.692 34.96 234.692 34.6C234.692 34.16 235.012 33.88 235.532 33.76C237.572 33.32 238.132 32.84 238.132 31.16V13C238.132 11.24 237.692 10.76 235.612 10.28C235.052 10.16 234.732 9.88004 234.732 9.44004C234.732 9.08004 235.172 8.84004 235.532 8.84004C237.372 8.84004 239.612 9.04004 241.212 9.04004C242.772 9.04004 245.292 8.88004 247.052 8.88004C247.492 8.88004 247.772 9.08004 247.772 9.44004C247.772 9.96004 247.492 10.12 246.932 10.28C244.772 10.88 244.292 11.44 244.292 13.04V26.6C244.292 27.36 244.412 27.4 244.892 26.88L256.452 14.16C256.692 13.92 256.852 13.64 256.852 13.28V12.88C256.812 11.24 256.252 10.76 254.212 10.28C253.652 10.16 253.332 9.88004 253.332 9.44004C253.332 9.08004 253.772 8.84004 254.132 8.84004C255.972 8.84004 258.252 9.04004 259.892 9.04004C261.452 9.04004 263.892 8.88004 265.652 8.88004C266.092 8.88004 266.372 9.08004 266.372 9.44004C266.372 9.96004 266.092 10.12 265.532 10.28C263.372 10.88 263.012 11.44 263.012 13.04V31.12C263.012 32.68 263.452 33.2 265.532 33.76C266.092 33.92 266.412 34.08 266.412 34.56C266.412 34.96 266.132 35.16 265.652 35.16C263.892 35.16 261.372 34.96 259.812 34.96C258.212 34.96 255.972 35.16 254.132 35.16C253.732 35.16 253.332 34.96 253.332 34.6C253.332 34.16 253.612 33.88 254.172 33.76C256.172 33.32 256.852 32.88 256.852 31.24V17.44C256.852 17.12 256.692 17.08 256.492 17.24L244.812 30.12C244.452 30.52 244.292 30.72 244.292 31.2C244.292 32.72 244.972 33.2 247.012 33.76C247.572 33.92 247.852 34.08 247.852 34.56C247.852 34.96 247.572 35.16 247.132 35.16C245.372 35.16 242.812 34.96 241.212 34.96C239.572 34.96 237.332 35.16 235.492 35.16ZM283.858 7.32004C279.018 7.32004 277.298 4.92004 277.298 2.88004C277.298 1.08004 278.298 3.71933e-05 279.698 3.71933e-05C281.258 3.71933e-05 281.858 0.680038 281.858 1.64004C281.858 2.00004 281.778 2.32004 281.738 2.68004C281.658 2.96004 281.578 3.28004 281.578 3.60004C281.578 4.40004 282.378 5.24004 284.098 5.24004C286.458 5.24004 287.778 3.88004 288.458 1.56004C288.658 0.800036 288.858 0.560037 289.258 0.560037C289.618 0.560037 289.818 0.960037 289.818 1.40004C289.818 4.40004 287.458 7.32004 283.858 7.32004ZM268.578 35.16C268.178 35.16 267.778 34.96 267.778 34.6C267.778 34.16 268.098 33.88 268.618 33.76C270.658 33.32 271.218 32.84 271.218 31.16V13C271.218 11.24 270.778 10.76 268.698 10.28C268.138 10.16 267.818 9.88004 267.818 9.44004C267.818 9.08004 268.258 8.84004 268.618 8.84004C270.458 8.84004 272.698 9.04004 274.298 9.04004C275.858 9.04004 278.378 8.88004 280.138 8.88004C280.578 8.88004 280.858 9.08004 280.858 9.44004C280.858 9.96004 280.578 10.12 280.018 10.28C277.858 10.88 277.378 11.44 277.378 13.04V26.6C277.378 27.36 277.498 27.4 277.978 26.88L289.538 14.16C289.778 13.92 289.938 13.64 289.938 13.28V12.88C289.898 11.24 289.338 10.76 287.298 10.28C286.738 10.16 286.418 9.88004 286.418 9.44004C286.418 9.08004 286.858 8.84004 287.218 8.84004C289.058 8.84004 291.338 9.04004 292.978 9.04004C294.538 9.04004 296.978 8.88004 298.738 8.88004C299.178 8.88004 299.458 9.08004 299.458 9.44004C299.458 9.96004 299.178 10.12 298.618 10.28C296.458 10.88 296.098 11.44 296.098 13.04V31.12C296.098 32.68 296.538 33.2 298.618 33.76C299.178 33.92 299.498 34.08 299.498 34.56C299.498 34.96 299.218 35.16 298.738 35.16C296.978 35.16 294.458 34.96 292.898 34.96C291.298 34.96 289.058 35.16 287.218 35.16C286.818 35.16 286.418 34.96 286.418 34.6C286.418 34.16 286.698 33.88 287.258 33.76C289.258 33.32 289.938 32.88 289.938 31.24V17.44C289.938 17.12 289.778 17.08 289.578 17.24L277.898 30.12C277.538 30.52 277.378 30.72 277.378 31.2C277.378 32.72 278.058 33.2 280.098 33.76C280.658 33.92 280.938 34.08 280.938 34.56C280.938 34.96 280.658 35.16 280.218 35.16C278.458 35.16 275.898 34.96 274.298 34.96C272.658 34.96 270.418 35.16 268.578 35.16ZM311.356 35.24C310.836 35.24 310.516 34.96 310.516 34.64C310.516 34.32 310.836 33.96 311.396 33.8C313.196 33.32 313.956 32.92 313.956 31.2V13C313.956 11.24 313.396 10.76 311.276 10.28C310.716 10.16 310.436 9.88004 310.436 9.44004C310.436 9.08004 310.836 8.84004 311.236 8.84004C313.076 8.84004 315.316 9.04004 316.956 9.04004H328.236C328.756 9.04004 329.556 8.84004 330.036 8.84004C330.636 8.84004 330.916 9.04004 330.916 9.44004C330.996 11.36 331.156 13.4 331.156 14.8C331.156 15.36 330.916 15.6 330.636 15.6C330.276 15.6 329.916 15.32 329.756 14.88C328.956 12.32 328.516 10.64 325.716 10.64H322.156C320.916 10.64 320.076 11.32 320.076 13.44V18.76C320.076 19.76 320.476 20.28 321.276 20.28C321.356 20.28 321.476 20.28 321.676 20.24C322.396 20.08 323.596 19.88 325.116 19.88C330.076 19.88 333.276 22.52 333.276 27.12C333.276 31.68 330.636 33 329.196 33.84C327.556 34.8 325.516 35.2 322.796 35.2C322.236 35.2 321.116 35 316.836 35C315.196 35 313.036 35.24 311.356 35.24ZM322.236 32.88C324.476 32.88 326.676 30.52 326.676 27.28C326.676 24.4 325.356 23.08 324.556 22.52C324.076 22.2 323.036 21.64 321.636 21.64C320.676 21.64 320.076 22.04 320.076 22.96V30.36C320.076 32 320.876 32.88 322.236 32.88ZM342.886 36.64C340.246 36.64 338.126 34.84 338.126 32.32C338.126 32 338.766 30.96 339.086 30.96C339.286 30.96 340.046 31.24 340.966 31.52C341.886 31.8 343.006 32.08 343.886 32.08C344.966 32.08 345.806 31.64 346.326 30.72C346.486 30.44 346.646 30.2 346.646 29.84C346.646 29.4 346.366 29 346.126 28.48L338.246 13.12C337.566 11.72 336.726 10.72 335.126 10.32C334.566 10.16 334.166 9.96004 334.166 9.44004C334.166 9.08004 334.526 8.88004 335.006 8.88004C336.606 8.88004 339.206 9.04004 340.806 9.04004C342.366 9.04004 345.286 8.88004 346.886 8.88004C347.366 8.88004 347.966 9.08004 347.966 9.44004C347.966 9.88004 347.366 10.16 346.806 10.28C345.446 10.6 344.686 10.92 344.686 11.88C344.686 12.2 344.806 12.72 345.086 13.2L350.126 22.68C350.206 23 350.286 23.12 350.406 23.12C350.566 23.12 350.686 23 350.806 22.64L353.886 14.6C354.406 13.24 354.526 12.8 354.526 12.12C354.526 11.16 353.486 10.6 352.086 10.36C351.566 10.28 350.886 9.96004 350.886 9.52004C350.886 9.16004 351.446 8.96004 352.046 8.96004C353.686 8.96004 354.846 9.08004 355.726 9.08004C357.286 9.08004 358.446 8.84004 360.006 8.84004C360.606 8.84004 361.206 9.00004 361.206 9.48004C361.206 10 360.686 10.12 360.126 10.28C358.526 10.72 357.566 11.76 357.046 13L352.246 23.88C348.046 33.48 345.606 36.64 342.886 36.64ZM361.172 35.72C358.892 35.72 357.812 34.44 357.812 32.92C357.812 31.76 358.252 30.76 359.132 30.76C360.692 31.16 361.932 31.28 362.892 31.28C365.532 31.28 367.532 26.68 367.532 12.96C367.532 11.36 366.532 10.84 364.052 10.28C363.492 10.16 363.172 9.88004 363.172 9.44004C363.172 9.08004 363.572 8.84004 363.972 8.84004C365.572 8.84004 368.252 9.04004 369.852 9.04004C372.732 9.04004 371.092 9.04004 379.492 9.04004C381.052 9.04004 383.572 8.88004 385.332 8.88004C385.812 8.88004 386.092 9.08004 386.092 9.44004C386.092 9.96004 385.772 10.12 385.212 10.28C383.052 10.88 382.572 11.4 382.572 13.04V31.12C382.572 32.68 383.212 33.2 385.292 33.76C385.812 33.92 386.132 34.08 386.132 34.56C386.132 34.96 385.852 35.16 385.412 35.16C383.652 35.16 381.092 34.96 379.492 34.96C377.812 34.96 375.452 35.16 373.612 35.16C373.252 35.16 372.852 34.96 372.852 34.6C372.852 34.16 373.132 33.88 373.692 33.76C375.732 33.32 376.412 32.8 376.412 31.16V13.8C376.412 12.12 375.972 11.2 374.012 11.2H371.932C370.372 11.2 369.892 11.88 369.892 13.12C369.892 32.2 364.292 35.72 361.172 35.72ZM388.58 35.24C388.06 35.24 387.74 34.96 387.74 34.64C387.74 34.32 388.02 33.96 388.62 33.8C390.42 33.32 391.14 32.92 391.14 31.2V13C391.14 11.24 390.62 10.76 388.5 10.28C387.94 10.16 387.66 9.88004 387.66 9.44004C387.66 9.08004 388.06 8.84004 388.46 8.84004C390.26 8.84004 392.54 9.04004 394.22 9.04004C395.78 9.04004 398.3 8.88004 400.06 8.88004C400.54 8.88004 400.82 9.08004 400.82 9.44004C400.82 9.96004 400.5 10.12 399.94 10.28C397.78 10.88 397.26 11.4 397.26 13.04V18.92C397.26 19.84 397.74 20.24 398.5 20.24C398.62 20.24 398.74 20.24 398.9 20.2C399.58 20.08 400.86 19.84 402.3 19.84C407.3 19.84 410.5 22.52 410.5 27.12C410.5 31.68 407.86 33 406.38 33.84C404.74 34.8 402.74 35.2 400.02 35.2C399.46 35.2 398.5 35.04 394.22 35.04C392.54 35.04 390.26 35.24 388.58 35.24ZM399.46 33.6C401.66 33.6 403.86 30.92 403.86 27.32C403.86 24.44 402.58 23.08 401.78 22.52C401.3 22.2 400.38 21.64 398.98 21.64C398.7 21.64 398.3 21.68 398.06 21.8C397.58 21.92 397.3 22.24 397.3 22.96V31.04C397.3 31.8 397.42 32.48 397.78 32.88C398.18 33.32 398.78 33.6 399.46 33.6ZM413.683 43.24C412.963 43.24 412.603 42.68 412.523 41.44C412.323 38.24 411.483 34.88 411.483 33.68C411.483 33.36 411.643 33.08 412.123 33.04C418.083 33.04 420.443 26.76 420.443 12.96C420.443 11.36 419.403 10.88 416.923 10.28C416.363 10.16 416.043 9.88004 416.043 9.44004C416.043 9.08004 416.483 8.84004 416.843 8.84004C418.443 8.84004 421.163 9.04004 422.723 9.04004C425.643 9.04004 423.923 9.04004 431.963 9.04004C433.563 9.04004 436.083 8.88004 437.843 8.88004C438.323 8.88004 438.603 9.08004 438.603 9.44004C438.603 9.96004 438.283 10.12 437.723 10.28C435.563 10.88 435.043 11.4 435.043 13.04V30.6C435.043 32.48 436.843 32.96 438.283 33.04C438.763 33.08 438.883 33.4 438.883 33.72C438.883 34.68 438.003 38.24 437.843 41.44C437.763 42.68 437.443 43.24 436.683 43.24C436.003 43.24 435.843 42.44 435.763 41.52C435.483 37.24 434.963 35.04 431.883 35.04H418.483C415.363 35.04 414.803 37.32 414.643 41.52C414.603 42.44 414.363 43.24 413.683 43.24ZM418.763 33.32H427.043C428.563 33.32 428.923 32.68 428.923 31.48V13.36C428.923 11.72 428.483 10.76 426.523 10.76H424.643C422.883 10.76 422.483 11.64 422.483 12.88C422.483 22.96 420.923 29.36 418.283 32.56C417.963 32.96 418.123 33.32 418.763 33.32ZM451.755 35.6C445.515 35.6 442.755 30.84 442.755 25.32C442.755 17.64 448.355 8.48004 458.355 8.48004C464.595 8.48004 467.355 13.24 467.355 18.76C467.355 26.44 461.755 35.6 451.755 35.6ZM451.875 34.36C459.115 34.36 463.955 25 463.955 17.24C463.955 13.48 462.315 9.60004 458.235 9.60004C451.315 9.60004 446.155 19.08 446.155 26.84C446.155 30.6 447.795 34.36 451.875 34.36ZM468.849 35.16C468.449 35.16 468.049 34.96 468.049 34.6C468.049 34.16 468.329 33.88 468.889 33.76C470.929 33.32 471.609 32.84 471.609 31.16V13C471.609 11.24 471.089 10.72 469.169 10.28C468.489 10.12 468.249 9.80004 468.249 9.44004C468.249 9.12004 468.609 8.84004 469.129 8.84004C470.929 8.84004 473.049 9.04004 474.689 9.04004H484.689C486.249 9.04004 486.969 8.84004 487.409 8.84004C488.009 8.84004 488.329 9.00004 488.329 9.40004C488.409 11.32 488.569 13.72 488.569 15.16C488.569 15.64 488.329 15.88 488.049 15.88C487.729 15.88 487.369 15.72 487.289 15.24C486.929 13.76 486.329 12.52 485.529 11.68C484.769 11.04 483.889 10.64 482.809 10.64H479.969C478.569 10.64 477.769 11.32 477.769 13.8V31.12C477.769 32.68 478.409 33.2 480.489 33.76C481.049 33.92 481.329 34.08 481.329 34.56C481.329 34.96 481.049 35.16 480.609 35.16C478.849 35.16 476.289 34.96 474.689 34.96C473.009 34.96 470.689 35.16 468.849 35.16ZM7.1201 92.64C3.0801 92.64 9.76622e-05 89.28 9.76622e-05 84.84C9.76622e-05 79.64 3.7601 75.48 8.4401 75.48C10.1601 75.48 11.7201 75.96 13.0001 76.88C13.3201 77.12 13.4801 77.36 13.4801 77.64C13.4801 78.32 12.4401 79.28 11.7601 79.28C11.4801 79.28 11.2401 79.08 10.9201 78.84C9.7601 77.96 8.1201 76.96 7.1601 76.96C4.5601 76.96 2.7601 79.64 2.7601 83.56C2.7601 87.32 5.4401 90.24 8.8401 90.24C10.4001 90.24 11.3601 89.8 12.6401 88.52C12.7601 88.4 12.9201 88.32 13.0401 88.32C13.2801 88.32 13.4801 88.56 13.4801 88.88C13.4801 89.2 13.2801 89.6 12.8801 90.12C11.6001 91.76 9.5601 92.64 7.1201 92.64ZM25.417 92.68C24.777 92.68 24.137 91.6 24.417 90.92L29.057 79.56C29.537 78.4 29.657 77.8 29.137 77.8C28.337 77.8 27.457 77.96 26.177 79.64C25.977 79.88 25.657 79.88 25.577 79.48C25.537 79 26.097 77.96 26.417 77.48C27.217 76.28 28.617 75.52 30.417 75.48C31.257 75.48 32.097 76.24 31.737 77.2L29.097 84C28.937 84.4 29.297 84.44 29.457 84.16C32.737 78.56 36.377 75.48 38.817 75.48C40.497 75.48 41.777 77.36 40.697 79.88L37.017 88.6C36.577 89.64 36.737 90.04 37.217 90.04C38.497 90.04 41.377 87.72 41.777 87.32C41.817 87.28 41.857 87.28 41.897 87.28C42.057 87.28 42.217 87.44 42.217 87.64C42.217 87.84 42.137 88.08 42.057 88.2C39.977 90.72 37.377 92.6 34.857 92.6C34.137 92.6 33.217 91.72 33.617 90.84C35.177 87.28 36.777 83.72 38.177 80.16C39.017 77.96 38.617 77.2 37.857 77.16C36.977 77.12 35.577 78.12 33.817 80.28C32.577 81.8 29.257 86.92 26.657 91.44C26.177 92.32 25.857 92.68 25.417 92.68ZM48.2307 92.64C46.5107 92.64 44.5507 90.36 44.5507 88.48C44.5507 83.12 49.3107 75.48 54.9907 75.48C56.8707 75.48 57.9507 76.32 57.9507 77.68C57.9507 81.04 53.2707 82.44 48.8307 83.28C48.5107 83.36 48.3507 83.36 48.2307 83.68C47.8307 84.84 47.3907 86.32 47.3907 87.56C47.3907 89.44 48.1107 90.48 49.5107 90.48C51.4307 90.48 52.7107 89.28 53.5907 88.32C53.8707 88 54.1107 87.88 54.3107 87.88C54.5507 87.88 54.7107 88.04 54.7107 88.28C54.7107 88.36 54.7107 88.48 54.6307 88.6C53.0307 91.2 50.8307 92.64 48.2307 92.64ZM49.1107 82.36C50.3107 82.36 55.6307 80.96 55.6307 77.76C55.6307 77.08 55.2307 76.48 54.5507 76.48C52.3507 76.48 48.8307 80.92 48.8307 82.12C48.8307 82.36 48.9107 82.36 49.1107 82.36ZM53.3435 103.48C53.0635 103.48 52.7035 103.4 52.7035 103.12C52.7035 102.72 53.4235 102.4 53.9035 102.32C55.0235 102.12 55.6235 101.88 55.9835 100.84L63.7035 79.28C64.1035 78.16 64.0635 77.92 63.2635 78.04C61.9835 78.24 61.1835 78.44 60.0635 78.96C59.6235 79.16 59.2235 79 59.2235 78.68C59.2235 78.24 59.5035 78 59.8235 77.84C60.6635 77.4 62.3435 76.56 64.4635 76C64.8235 75.92 65.0635 75.76 65.1835 75.36C65.9435 72.84 66.3835 71.8 67.5835 71.8C68.0235 71.8 68.4235 72.08 68.3035 72.56L67.6235 74.88C67.4635 75.4 67.6235 75.64 67.8235 75.6C68.5035 75.48 69.0235 75.44 69.5835 75.44C73.5835 75.44 74.7835 77.64 74.7835 80.44C74.7835 85.52 69.5835 92.6 64.3035 92.6C63.8235 92.6 63.1835 92.2 62.6635 91.88C62.1835 91.56 61.9435 91.6 61.5835 92.6L58.9435 100.4C58.5435 101.52 59.2235 102.04 60.5835 102.16C61.1035 102.2 61.7835 102.36 61.7835 102.76C61.7835 103.08 61.2235 103.2 60.6235 103.2C59.3835 103.2 58.0235 103.12 57.3035 103.2C55.9835 103.36 54.7835 103.48 53.3435 103.48ZM65.0635 91.24C67.5435 91.24 71.8235 85.04 71.8235 80.8C71.8235 77.8 70.7035 76.96 68.7835 76.92C68.3035 76.92 67.8235 76.92 67.2635 77L63.5835 87.8C63.2635 88.76 63.2635 89.6 63.4635 90.2C63.7035 90.88 64.2235 91.24 65.0635 91.24ZM77.4017 103.64C75.3217 103.64 73.5217 102.64 73.5217 101.68C73.5217 100.6 74.3217 99.76 75.0017 99.76C75.5617 99.76 76.0417 100.32 76.6417 100.84C77.1617 101.28 77.8817 101.88 78.6817 101.88C80.0817 101.88 81.3617 99.32 82.2417 95.64L83.3617 91C82.6017 91.96 81.0017 92.6 79.8017 92.6C78.2017 92.6 76.0017 90.92 76.0017 87.88C76.0017 83.08 79.5617 75.48 85.5617 75.48C86.2817 75.48 87.0417 75.84 87.5217 76.68L89.0417 71.72C90.4417 67.24 95.7217 63.84 97.8017 63.84C98.9617 63.84 99.8817 64 100.522 64.92C100.962 65.56 99.6817 67.44 99.1217 66.96C98.2817 66.24 97.6817 65.6 96.8017 65.52C95.7217 65.44 94.6417 65.92 93.9217 66.88C92.8817 68.24 92.1217 70.4 91.2817 73L90.0817 76.64C90.7617 75.92 92.2817 75.48 93.4017 75.48C95.0017 75.48 97.2017 77.16 97.2017 80.2C97.2017 85 93.2017 92.6 88.1217 92.6C86.9217 92.6 86.3217 92.12 85.8817 91.48L84.7617 95.68C83.6817 99.68 79.0417 103.64 77.4017 103.64ZM80.2817 91.4C81.4017 91.4 83.4817 90.28 84.4817 86.84L86.6017 79.4C87.0417 77.8 86.0017 76.68 85.1617 76.68C81.9617 76.68 78.5617 84.48 78.5617 88.2C78.5617 90.2 78.9217 91.4 80.2817 91.4ZM88.4817 91.4C91.6817 91.4 94.6817 83.6 94.6817 79.88C94.6817 77.72 94.0417 76.68 92.8017 76.68C91.4017 76.68 89.5217 78 88.8417 80.52L86.4817 89.12C86.2417 90.04 87.2417 91.4 88.4817 91.4ZM102.176 92.64C100.456 92.64 98.496 90.36 98.496 88.48C98.496 83.12 103.256 75.48 108.936 75.48C110.816 75.48 111.896 76.32 111.896 77.68C111.896 81.04 107.216 82.44 102.776 83.28C102.456 83.36 102.296 83.36 102.176 83.68C101.776 84.84 101.336 86.32 101.336 87.56C101.336 89.44 102.056 90.48 103.456 90.48C105.376 90.48 106.656 89.28 107.536 88.32C107.816 88 108.056 87.88 108.256 87.88C108.496 87.88 108.656 88.04 108.656 88.28C108.656 88.36 108.656 88.48 108.576 88.6C106.976 91.2 104.776 92.64 102.176 92.64ZM103.056 82.36C104.256 82.36 109.576 80.96 109.576 77.76C109.576 77.08 109.176 76.48 108.496 76.48C106.296 76.48 102.776 80.92 102.776 82.12C102.776 82.36 102.856 82.36 103.056 82.36ZM115.089 92.64C114.689 92.64 114.049 91.92 114.049 91.44C114.049 90.6 114.009 90.88 114.409 89.8C115.769 86.2 116.969 82.72 117.809 79.56C118.129 78.4 118.329 77.8 117.809 77.8C117.009 77.8 116.209 77.96 114.929 79.64C114.729 79.88 114.289 79.84 114.289 79.44C114.289 78.96 114.649 77.92 115.009 77.48C115.889 76.36 116.929 75.48 118.729 75.48C120.169 75.48 121.009 76.44 120.449 78.12L118.729 83.2C118.529 83.8 118.889 83.64 119.089 83.36C121.969 79.56 126.689 75.48 128.609 75.48C130.369 75.48 130.849 76.84 130.809 77.64C130.809 77.96 130.649 78.24 130.369 78.24C130.089 78.24 129.649 78.16 129.169 78.08C128.729 78.04 128.289 77.96 127.889 77.96C125.649 77.96 122.329 81.28 121.249 82.56C121.049 82.8 121.009 82.92 121.129 83C122.569 84.6 123.329 87 124.089 89.16C124.289 89.72 124.729 90.12 125.249 90.12C126.249 90.12 127.289 89.12 128.369 87.8C128.689 87.4 128.769 87.12 128.969 87.12C129.129 87.12 129.289 87.28 129.289 87.68C129.289 89.36 125.249 92.6 123.969 92.6C123.129 92.6 122.569 92.08 122.049 90.68L120.529 86.56C120.049 85.24 119.729 84.92 119.009 84.92C118.689 84.92 118.329 85.4 118.129 85.84C117.049 88.24 116.729 89.8 116.129 91.4C115.809 92.28 115.569 92.64 115.089 92.64ZM133.272 92.6C132.352 92.6 131.272 91.16 131.552 90.48L135.752 80.36C136.112 79.48 136.272 78.72 135.872 78.72C135.432 78.72 134.152 79.8 132.992 80.84C132.872 80.96 132.472 80.88 132.472 80.72C132.472 80.52 132.512 80.12 132.952 79.52C134.952 76.84 137.992 75.32 139.152 75.32C139.552 75.32 140.312 76.08 140.032 76.64C138.272 80.28 136.712 84.08 135.112 87.68C134.632 88.76 134.432 89.84 134.992 89.84C135.792 89.84 137.912 87.56 140.152 85.08C143.152 81.68 146.232 77.36 146.912 76.12C147.192 75.6 147.592 75.48 147.912 75.48C148.392 75.48 148.992 76.4 148.792 76.84L143.672 88.6C143.232 89.64 143.312 90.16 143.792 90.16C144.832 90.16 147.152 88.16 148.352 86.96C148.392 86.92 148.432 86.92 148.472 86.92C148.632 86.92 148.832 87.08 148.832 87.28C148.832 87.44 148.672 87.76 148.312 88.24L148.352 88.2C147.392 89.36 146.752 91.08 146.592 92.04C146.072 95.16 145.312 97.88 143.312 99.24C141.912 100.2 139.552 100.84 139.192 100.84C138.912 100.84 138.552 100.76 138.552 100.44C138.552 100.24 138.712 100.16 138.912 100.08C140.592 99.52 142.152 98.84 143.112 96.04C143.552 94.76 143.872 94.16 144.432 93.2C144.872 92.44 145.512 91.56 146.272 90.44C144.952 91.64 143.352 92.6 141.632 92.6C140.952 92.6 140.192 91.44 140.512 90.72C141.632 88.32 143.152 85.04 143.552 83.92C143.792 83.28 143.352 83.28 143.072 83.6C137.512 89.68 134.632 92.6 133.272 92.6ZM153.624 92.6C152.704 92.6 151.624 91.16 151.904 90.48L156.104 80.36C156.464 79.48 156.624 78.72 156.224 78.72C155.784 78.72 154.504 79.8 153.344 80.84C153.224 80.96 152.824 80.88 152.824 80.72C152.824 80.52 152.864 80.12 153.304 79.52C155.304 76.84 158.344 75.32 159.504 75.32C159.904 75.32 160.664 76.08 160.384 76.64C158.624 80.28 157.064 84.08 155.464 87.68C154.984 88.76 154.784 89.84 155.344 89.84C156.144 89.84 158.264 87.56 160.504 85.08C163.504 81.68 166.584 77.36 167.264 76.12C167.544 75.6 167.944 75.48 168.264 75.48C168.744 75.48 169.344 76.4 169.144 76.84L164.024 88.6C163.584 89.64 163.664 90.16 164.144 90.16C165.184 90.16 167.504 88.16 168.704 86.96C168.744 86.92 168.784 86.92 168.824 86.92C168.984 86.92 169.184 87.08 169.184 87.28C169.184 87.48 168.944 87.92 168.304 88.68C166.784 90.56 164.504 92.6 161.984 92.6C161.304 92.6 160.544 91.44 160.864 90.72C161.984 88.32 163.504 85.04 163.904 83.92C164.144 83.28 163.704 83.28 163.424 83.6C157.864 89.68 154.984 92.6 153.624 92.6ZM174.834 92.6C172.874 92.6 171.194 90.4 171.194 88.08C171.194 83.08 175.434 75.48 180.794 75.48C183.474 75.48 184.994 77.56 184.994 80.2C184.994 85 180.994 92.6 174.834 92.6ZM175.474 91.4C178.674 91.4 182.434 83.6 182.434 79.08C182.434 77.68 182.074 76.68 180.714 76.68C177.634 76.68 173.754 83.64 173.754 88.92C173.754 90.68 174.394 91.4 175.474 91.4ZM188.549 92.64C187.829 92.64 187.589 92.2 187.589 91.52C187.589 91.28 187.589 91.12 187.669 90.96L192.429 78.96C192.669 78.4 192.869 77.8 192.349 77.8C191.549 77.8 190.509 78.28 189.069 79.24C188.789 79.44 188.469 79.48 188.469 79.08C188.549 78.12 192.109 75.48 194.069 75.44C194.789 75.44 195.589 76.6 195.269 77.44L193.189 82.56C193.029 83 193.269 83.04 193.389 83.04L199.469 82.8C199.549 82.8 199.669 82.72 199.749 82.48L202.109 76.6C202.429 75.92 203.789 75.48 204.189 75.48C204.589 75.48 204.629 75.68 204.629 76.16C204.629 76.4 204.309 77.08 203.909 78.04L199.709 88.6C199.309 89.68 199.269 90.16 199.749 90.16C201.029 90.16 203.829 87.72 204.229 87.32C204.269 87.28 204.309 87.28 204.349 87.28C204.509 87.28 204.709 87.44 204.709 87.64C204.709 87.84 204.509 88.08 204.429 88.2C202.189 90.72 200.029 92.6 197.829 92.6C196.989 92.6 196.269 91.36 196.509 90.76L198.869 84.8C199.029 84.4 199.189 84.28 198.909 84.28L192.829 84.52C192.709 84.52 192.509 84.56 192.349 84.8L189.509 91.88C189.349 92.32 188.909 92.64 188.549 92.64ZM209.639 92.6C208.719 92.6 207.639 91.16 207.919 90.48L212.119 80.36C212.479 79.48 212.639 78.72 212.239 78.72C211.799 78.72 210.519 79.8 209.359 80.84C209.239 80.96 208.839 80.88 208.839 80.72C208.839 80.52 208.879 80.12 209.319 79.52C211.319 76.84 214.359 75.32 215.519 75.32C215.919 75.32 216.679 76.08 216.399 76.64C214.639 80.28 213.079 84.08 211.479 87.68C210.999 88.76 210.799 89.84 211.359 89.84C212.159 89.84 214.279 87.56 216.519 85.08C219.519 81.68 222.599 77.36 223.279 76.12C223.559 75.6 223.959 75.48 224.279 75.48C224.759 75.48 225.359 76.4 225.159 76.84L220.039 88.6C219.599 89.64 219.679 90.16 220.159 90.16C221.199 90.16 223.519 88.16 224.719 86.96C224.759 86.92 224.799 86.92 224.839 86.92C224.999 86.92 225.199 87.08 225.199 87.28C225.199 87.48 224.959 87.92 224.319 88.68C222.799 90.56 220.519 92.6 217.999 92.6C217.319 92.6 216.559 91.44 216.879 90.72C217.999 88.32 219.519 85.04 219.919 83.92C220.159 83.28 219.719 83.28 219.439 83.6C213.879 89.68 210.999 92.6 209.639 92.6ZM229.671 92.6C227.911 92.6 225.951 91.96 225.951 90.6C225.951 89.72 226.391 88.88 227.031 88.88C227.231 88.88 227.351 89 227.591 89.52C227.991 90.36 229.311 91.36 230.751 91.36C233.231 91.36 234.871 89.4 234.871 86.76C234.871 84.96 233.951 83.92 232.511 83.92C231.511 83.92 230.871 84.36 230.391 84.36C230.151 84.36 229.991 84.32 229.991 84.04C229.991 83.56 230.431 83.32 231.191 83L232.831 82.28C234.311 81.64 236.111 80.72 236.111 78.84C236.111 77.56 234.951 76.96 233.991 76.96C232.551 76.96 231.351 78.28 230.831 79.12C230.751 79.28 230.591 79.52 230.311 79.52C229.991 79.52 229.671 78.96 229.671 78.56C229.671 77.4 232.391 75.48 234.871 75.48C237.231 75.48 238.831 76.68 238.831 78.48C238.831 80.96 235.951 81.92 234.311 82.56C234.111 82.64 234.151 82.8 234.351 82.84C236.671 83.4 237.751 84.64 237.751 85.96C237.751 89.24 234.351 92.6 229.671 92.6ZM239.734 92.6C239.214 92.6 238.054 91.44 238.054 90.76C238.054 90.2 238.174 89.72 238.654 89.72C241.614 89.72 242.854 89.12 243.534 87.52C244.654 84.96 245.774 81.16 246.614 78.12C247.494 76.36 247.974 75.44 249.214 75.44C249.534 75.44 249.454 76.32 249.494 77.16L250.734 87.28C250.774 87.48 250.974 87.52 251.094 87.36L256.454 79.84C258.774 76.6 260.534 75.44 261.774 75.44C262.294 75.44 262.574 75.8 262.254 76.2C261.974 76.6 261.534 77.28 261.214 78.24L257.974 88.28C257.614 89.36 257.614 89.84 258.094 89.84C259.374 89.84 261.974 87.72 262.374 87.32C262.414 87.28 262.454 87.28 262.494 87.28C262.654 87.28 262.854 87.44 262.854 87.64C262.854 88.76 258.294 92.6 256.014 92.6C255.454 92.6 254.414 91.6 254.654 90.88L258.454 79.76C258.654 79.16 258.494 78.96 258.134 79.44L250.054 91.16C249.654 91.76 249.254 92.24 248.934 92.24C248.614 92.24 248.574 91.8 248.534 91.4L247.494 79.92C247.494 79.76 247.334 79.72 247.254 80.04C245.014 88.96 243.294 92.6 239.734 92.6ZM268.623 92.6C266.663 92.6 264.983 90.4 264.983 88.08C264.983 83.08 269.223 75.48 274.583 75.48C277.263 75.48 278.783 77.56 278.783 80.2C278.783 85 274.783 92.6 268.623 92.6ZM269.263 91.4C272.463 91.4 276.223 83.6 276.223 79.08C276.223 77.68 275.863 76.68 274.503 76.68C271.423 76.68 267.543 83.64 267.543 88.92C267.543 90.68 268.183 91.4 269.263 91.4ZM279.539 92.6C279.019 92.6 277.859 91.44 277.859 90.76C277.859 90.2 277.979 89.72 278.459 89.72C281.419 89.72 282.659 89.12 283.339 87.52C284.459 84.96 285.579 81.16 286.419 78.12C287.299 76.36 287.779 75.44 289.019 75.44C289.339 75.44 289.259 76.32 289.299 77.16L290.539 87.28C290.579 87.48 290.779 87.52 290.899 87.36L296.259 79.84C298.579 76.6 300.339 75.44 301.579 75.44C302.099 75.44 302.379 75.8 302.059 76.2C301.779 76.6 301.339 77.28 301.019 78.24L297.779 88.28C297.419 89.36 297.419 89.84 297.899 89.84C299.179 89.84 301.779 87.72 302.179 87.32C302.219 87.28 302.259 87.28 302.299 87.28C302.459 87.28 302.659 87.44 302.659 87.64C302.659 88.76 298.099 92.6 295.819 92.6C295.259 92.6 294.219 91.6 294.459 90.88L298.259 79.76C298.459 79.16 298.299 78.96 297.939 79.44L289.859 91.16C289.459 91.76 289.059 92.24 288.739 92.24C288.419 92.24 288.379 91.8 288.339 91.4L287.299 79.92C287.299 79.76 287.139 79.72 287.059 80.04C284.819 88.96 283.099 92.6 279.539 92.6ZM317.177 92.76C315.377 92.76 313.577 92.2 312.977 91.76C312.777 91.6 312.537 91.4 312.537 91.16C312.537 90.88 312.817 90.56 313.137 90.56C315.857 90.4 317.737 87.6 319.497 84.64C321.177 81.84 322.737 78.84 324.737 77.68C325.057 77.48 324.977 77.28 324.697 76.96C324.177 76.36 323.697 75.6 323.177 74.32L322.017 71.64C321.297 69.92 320.417 69.6 319.537 69.6C318.737 69.6 317.497 70.48 316.537 70.48C315.457 70.48 314.697 69.2 314.697 67.96C314.697 66.6 315.297 65.48 317.377 65.48C320.697 65.48 322.057 67.52 323.177 70.04L324.737 73.6C325.937 76.12 327.097 77.64 329.337 77.72H330.417C330.697 77.72 330.777 77.6 330.777 77.08V69.92C330.777 68.12 330.177 67.68 328.137 67.24C327.457 67.12 327.097 66.84 327.097 66.4C327.097 66.08 327.537 65.88 328.017 65.88C329.977 65.88 331.737 66.04 333.457 66.04C335.057 66.04 336.897 65.88 338.817 65.88C339.337 65.88 339.697 66.08 339.697 66.44C339.697 66.88 339.337 67.08 338.657 67.24C336.577 67.76 335.977 68.2 335.977 69.92V77.08C335.977 77.6 336.057 77.72 336.337 77.72H337.417C339.657 77.64 340.897 76.16 341.977 73.6L343.497 70.04C344.577 67.52 346.137 65.48 349.457 65.48C351.497 65.48 352.017 66.6 352.017 67.96C352.017 69.2 351.297 70.48 350.177 70.48C349.257 70.48 348.017 69.6 347.217 69.6C346.337 69.6 345.377 69.96 344.737 71.64L343.617 74.32C343.097 75.64 342.697 76.16 342.177 76.8C341.937 77.12 341.857 77.32 342.177 77.52C343.977 78.64 345.537 81.52 347.177 84.28C349.057 87.52 351.057 90.56 353.617 90.56C353.937 90.56 354.177 90.88 354.177 91.16C354.177 91.4 353.977 91.6 353.777 91.76C353.177 92.2 351.377 92.76 349.577 92.76C346.057 92.76 343.817 89.08 342.017 85.72C340.577 83.04 339.417 80.52 338.297 79.96C337.817 79.6 337.697 79.28 336.297 79.28C336.057 79.28 335.937 79.6 335.937 79.92L336.017 88.12C336.057 89.76 336.657 90.36 338.697 90.84C339.377 91 339.817 91.2 339.817 91.64C339.817 92 339.297 92.2 338.697 92.2C336.297 92.2 335.137 91.96 333.457 91.96C331.657 91.96 330.537 92.28 328.057 92.28C327.497 92.28 326.897 92 326.897 91.68C326.897 91.24 327.297 91 328.057 90.84C330.097 90.48 330.777 89.88 330.777 88.12V79.92C330.777 79.6 330.697 79.28 330.417 79.28C329.017 79.28 328.897 79.6 328.417 79.96C327.097 80.48 325.817 83.36 324.217 86.24C322.457 89.48 320.257 92.76 317.177 92.76ZM354.834 92.24C354.194 92.24 353.714 92.08 353.714 91.64C353.714 91.2 354.154 90.96 354.794 90.72C356.314 90.32 357.514 89.48 358.194 87.92C360.914 81.64 362.914 76.52 365.314 69.92C365.914 68.24 366.034 67.4 366.194 67C366.994 66.8 367.634 66.64 368.474 66.28C369.234 65.92 369.754 65.2 370.034 64.88C370.194 64.76 370.394 64.72 370.514 64.96C370.674 65.28 370.754 65.6 370.874 65.96C373.234 73.52 375.994 81.76 377.914 87.56C378.634 89.72 379.874 90.4 381.474 90.8C382.154 90.96 382.554 91.2 382.554 91.68C382.554 92.04 382.154 92.16 381.634 92.16C380.194 92.16 377.274 91.96 375.474 91.96C373.874 91.96 371.474 92.12 370.074 92.12C369.514 92.12 369.074 91.92 369.074 91.56C369.074 91.12 369.554 90.84 370.154 90.72C372.074 90.36 372.954 89.8 372.714 88.52C372.474 87.16 371.834 84.84 371.314 83.08C371.194 82.64 371.034 82.48 370.474 82.48H363.274C362.914 82.48 362.714 82.72 362.594 83.2C362.154 84.52 361.354 87 361.114 88.08C360.834 89.56 361.554 90.28 363.514 90.76C364.234 90.92 364.594 91.16 364.594 91.6C364.594 91.92 364.234 92.12 363.634 92.12C362.314 92.12 361.034 92 359.474 92C357.834 92 356.354 92.24 354.834 92.24ZM364.354 80.64H369.914C370.314 80.64 370.474 80.6 370.474 80.4C370.474 80.24 370.434 80.16 370.394 79.96L367.594 70.72C367.474 70.36 367.394 70.16 367.314 70.16C367.234 70.16 367.154 70.4 367.034 70.68L363.674 79.96C363.634 80.04 363.594 80.16 363.594 80.28C363.594 80.56 363.954 80.64 364.354 80.64ZM384.791 100.24C384.071 100.24 383.751 99.68 383.711 98.64C383.471 95.24 382.751 92.32 382.751 90.84C382.751 90.52 382.911 90.2 383.351 90.16C388.831 90.16 391.631 84.08 391.631 69.88C391.631 68.32 390.751 67.76 388.431 67.24C387.751 67.12 387.431 66.84 387.431 66.4C387.431 66.08 387.871 65.88 388.351 65.88C389.671 65.88 391.991 66.04 393.551 66.04C396.711 66.04 396.511 66.04 403.111 66.04C404.791 66.04 406.671 65.88 408.551 65.88C409.111 65.88 409.431 66.08 409.431 66.44C409.431 66.88 409.111 67.08 408.431 67.24C406.311 67.76 405.671 68.32 405.671 70.04V88.12C405.671 89.8 407.911 90.12 409.231 90.16C409.711 90.2 409.791 90.52 409.791 90.84C409.791 91.84 409.031 95.24 408.871 98.64C408.791 99.68 408.471 100.24 407.751 100.24C407.031 100.24 406.991 99.4 406.911 98.52C406.631 94.04 406.111 92.04 403.031 92.04H389.511C386.431 92.04 385.871 94.12 385.671 98.52C385.631 99.44 385.511 100.24 384.791 100.24ZM389.631 90.4H398.751C400.151 90.4 400.511 89.84 400.511 88.76L400.471 70.16C400.471 68.6 400.071 67.68 398.431 67.68H395.351C393.911 67.68 393.511 68.44 393.511 69.64C393.511 80.6 391.711 86.64 389.071 89.64C388.631 90.16 388.991 90.4 389.631 90.4ZM412.747 92.2C412.267 92.2 411.827 91.96 411.827 91.64C411.827 91.2 412.147 91 412.827 90.84C414.707 90.44 415.227 89.88 415.227 88.12V70C415.227 68.24 414.907 67.68 412.947 67.24C412.267 67.12 411.947 66.88 411.947 66.44C411.947 66.08 412.347 65.88 412.867 65.88C414.827 65.88 416.307 66.04 417.907 66.04C419.467 66.04 421.307 65.88 423.227 65.88C423.787 65.88 424.067 66.08 424.067 66.48C424.067 66.92 423.747 67.08 423.067 67.24C420.947 67.76 420.427 68.44 420.427 70.04V77.48C420.427 77.84 420.707 77.96 421.027 77.96H432.987C433.307 77.96 433.427 77.8 433.427 77.4V70C433.427 68.48 432.907 67.76 430.827 67.24C430.147 67.08 429.787 66.92 429.787 66.48C429.787 66.08 430.147 65.88 430.667 65.88C432.587 65.88 434.507 66.04 436.187 66.04C437.707 66.04 439.027 65.88 440.987 65.88C441.507 65.88 441.907 66.08 441.907 66.44C441.907 66.88 441.547 67.12 440.907 67.24C438.947 67.68 438.627 68.36 438.627 70V88.12C438.627 89.88 439.067 90.44 440.947 90.84C441.627 91 441.947 91.2 441.947 91.64C441.947 91.96 441.507 92.2 441.027 92.2C439.227 92.2 437.587 92 435.987 92C434.347 92 432.547 92.16 430.627 92.16C430.107 92.16 429.787 91.96 429.787 91.6C429.787 91.16 430.067 91 430.747 90.84C432.667 90.4 433.427 89.72 433.427 88.12V80.52C433.427 80.16 433.347 79.88 433.027 79.88H420.867C420.507 79.88 420.427 80.08 420.427 80.48V87.96C420.427 89.56 421.307 90.4 423.267 90.84C423.947 91 424.267 91.16 424.267 91.6C424.267 91.96 423.947 92.16 423.387 92.16C421.507 92.16 419.587 92 417.907 92C416.227 92 414.547 92.2 412.747 92.2ZM454.975 92.6C448.975 92.6 445.815 88.04 445.815 82.32C445.815 74.32 451.975 65.48 461.735 65.48C467.695 65.48 470.895 70.04 470.895 75.76C470.895 83.76 464.695 92.6 454.975 92.6ZM455.055 91.28C461.775 91.28 466.735 81.28 466.735 73.92C466.735 70.28 465.255 66.68 461.615 66.68C455.135 66.68 449.975 76.8 449.975 84.16C449.975 87.8 451.415 91.28 455.055 91.28ZM482.934 92.6C480.814 92.6 479.854 91.48 479.854 90.36C479.854 89.4 480.534 88.48 481.614 88.48C482.254 88.48 482.734 88.84 483.094 89.2C483.414 89.48 483.694 89.76 484.014 89.76C485.574 89.76 486.614 83.16 486.614 78.96C486.614 77.48 485.814 77.28 484.414 77C484.054 76.92 483.614 76.68 483.614 76.24C483.614 75.88 484.294 75.64 484.494 75.64C485.654 75.64 486.294 75.76 487.334 75.76H495.254C496.414 75.76 497.054 75.64 498.214 75.64C498.414 75.64 499.054 75.88 499.054 76.24C499.054 76.64 498.614 76.92 498.334 77C497.174 77.28 496.574 77.56 496.574 79.4V89.48C496.574 90.56 497.254 90.72 498.054 90.96C498.494 91.12 498.934 91.32 498.934 91.72C498.934 92.08 498.494 92.16 498.174 92.16C496.574 92.16 496.094 91.96 494.694 91.96C493.294 91.96 492.774 92.16 491.254 92.16C490.934 92.16 490.494 92.08 490.494 91.72C490.494 91.32 490.934 91.12 491.374 90.96C492.174 90.72 492.934 90.56 492.934 89.48V78.68C492.934 78.08 492.774 77.24 492.054 77.24H488.974C488.254 77.24 488.174 78.24 488.174 78.72C488.174 84.2 486.814 92.6 482.934 92.6ZM509.367 92.6C504.767 92.6 501.207 89.2 501.207 84.44C501.207 79.76 505.167 75.2 510.207 75.2C514.927 75.2 518.647 79 518.647 83.36C518.647 88.2 515.527 92.6 509.367 92.6ZM510.207 91.2C511.727 91.2 513.007 90.64 513.727 89.32C514.367 88.12 514.567 86.2 514.567 84.32C514.567 80.36 512.567 76.64 509.527 76.64C508.327 76.64 507.367 76.96 506.527 77.96C505.527 79.2 505.287 81.24 505.287 83.52C505.287 87.4 507.367 91.2 510.207 91.2ZM536.569 87.24C536.569 90.76 533.529 92.16 528.769 92.16C527.849 92.16 526.449 91.96 525.089 91.96C523.609 92 521.329 92.12 521.569 92.16H521.649C521.649 92.16 521.649 92.16 521.569 92.16C521.249 92.16 520.849 92.08 520.849 91.76C520.849 91.44 521.249 91.24 521.649 91.08C522.569 90.8 523.329 90.76 523.329 89.64V78.52C523.329 77.36 522.769 76.92 521.769 76.64C521.329 76.52 520.969 76.32 520.969 76C520.969 75.64 521.529 75.6 521.769 75.6C523.489 75.6 523.729 75.76 525.089 75.76C526.289 75.76 526.969 75.56 528.809 75.56C533.169 75.56 535.729 76.88 535.729 79.36C535.729 81.44 534.329 82.76 532.529 83.16C532.329 83.24 532.249 83.32 532.529 83.4C534.329 83.72 536.569 84.76 536.569 87.24ZM528.129 82.84C531.049 82.84 532.209 81.48 532.209 79.84C532.209 78.12 531.329 77.04 528.689 77.04C527.369 77.04 527.009 77.44 527.009 78.24V81.88C527.009 82.72 527.689 82.84 528.129 82.84ZM529.049 90.72C531.289 90.72 532.689 89.48 532.689 87.44C532.689 84.96 530.929 84.12 528.449 84.12C527.689 84.12 527.009 84.28 527.009 85.04V88.68C527.009 90 527.689 90.72 529.049 90.72ZM539.462 92.16C539.142 92.16 538.662 92.08 538.662 91.72C538.662 91.32 539.142 91.12 539.582 90.96C540.382 90.72 541.182 90.52 541.182 89.44V78.36C541.182 77.28 540.462 77.04 539.662 76.8C539.222 76.64 538.742 76.48 538.742 76.04C538.742 75.72 539.262 75.64 539.542 75.64C541.142 75.64 541.662 75.84 543.062 75.84C544.462 75.84 544.862 75.64 546.462 75.64C546.742 75.64 547.222 75.72 547.222 76.04C547.222 76.44 546.782 76.64 546.342 76.8C545.542 77.08 544.862 77.28 544.862 78.36V85.92C544.862 86.24 545.142 86.4 545.302 86.2L552.222 78.8C552.382 78.6 552.462 78.56 552.462 78.28C552.462 77.2 551.902 77.04 551.102 76.8C550.662 76.64 550.222 76.48 550.222 76.04C550.222 75.72 550.662 75.64 550.982 75.64C552.582 75.64 552.982 75.84 554.382 75.84C555.782 75.84 556.262 75.64 557.862 75.64C558.182 75.64 558.622 75.72 558.622 76.04C558.622 76.48 558.182 76.64 557.742 76.8C556.942 77.04 556.142 77.28 556.142 78.36V89.44C556.142 90.52 557.022 90.72 557.822 90.96C558.262 91.12 558.702 91.32 558.702 91.72C558.702 92.08 558.222 92.16 557.942 92.16C556.342 92.16 555.742 91.96 554.342 91.96C552.942 91.96 552.382 92.16 550.782 92.16C550.502 92.16 550.022 92.08 550.022 91.72C550.022 91.32 550.462 91.12 550.902 90.96C551.702 90.72 552.462 90.52 552.462 89.44V81.2C552.462 80.96 552.382 80.88 552.262 81L545.102 88.76C544.902 88.92 544.862 89.12 544.862 89.44C544.862 90.56 545.702 90.72 546.502 90.96C546.942 91.12 547.382 91.32 547.382 91.72C547.382 92.04 546.902 92.16 546.622 92.16C545.022 92.16 544.462 91.96 543.062 91.96C541.662 91.96 541.062 92.16 539.462 92.16ZM564.495 92.16C564.175 92.16 563.655 92.08 563.655 91.76C563.655 91.36 564.055 91.16 564.495 91C565.495 90.72 566.255 90.48 566.255 89.4L566.215 78.48C566.215 77.96 566.215 77.24 565.695 77.24H563.655C562.495 77.24 561.935 78.32 561.455 79.88C561.335 80.32 560.975 80.96 560.535 80.96C560.215 80.96 560.055 80.6 560.055 80.2C560.055 79.92 560.215 79.44 560.255 79.08C560.415 78.28 560.655 76.84 560.655 75.92C560.655 75.48 560.895 75.16 561.255 75.16C561.615 75.16 561.895 75.28 562.455 75.48C562.975 75.68 563.615 75.8 564.535 75.8H573.015C573.775 75.8 574.655 75.72 574.895 75.56C575.175 75.32 575.615 75.16 575.735 75.16C575.935 75.16 576.215 75.4 576.215 75.84C576.215 76.44 576.055 77.16 576.055 77.88C576.055 78.56 576.095 79.4 576.135 80C576.175 80.4 575.975 80.96 575.535 80.96C575.095 80.96 574.855 80.24 574.815 79.88C574.695 78.52 574.015 77.24 572.655 77.24H570.535C569.935 77.24 569.895 77.96 569.895 78.48V89.44C569.895 90.4 570.695 90.68 571.735 91C572.175 91.16 572.575 91.32 572.575 91.72C572.575 92.08 572.055 92.16 571.735 92.16C570.215 92.16 569.495 91.96 568.095 91.96C566.695 91.96 566.055 92.16 564.495 92.16ZM26.1087 149.6C18.1087 149.6 11.2687 144.32 11.2687 136.28C11.2687 128.84 17.8287 122.48 27.2287 122.48C29.9487 122.48 32.1887 123.04 34.4687 123.76C35.0687 123.96 35.3887 124.32 35.4687 124.96C35.6687 126.56 35.7887 128.12 35.7887 129.68C35.8287 130.48 34.5887 130.64 34.3087 129.72C33.8687 128.2 33.4287 126.88 32.3087 125.96C31.1087 124.96 29.2287 124.28 26.7087 124.28C20.9487 124.28 17.1487 129.52 17.1487 135.24C17.1487 142.08 20.6287 147.8 26.8287 147.8C30.7487 147.8 33.0687 146.12 34.7487 142.72C35.1487 141.88 36.1887 141.92 36.1887 142.76C36.1887 143.68 35.7887 145.52 35.2687 147.12C34.9887 147.8 34.7487 148 34.1087 148.24C32.1087 149.12 29.2287 149.6 26.1087 149.6ZM44.6681 149.24C44.0681 149.24 43.7081 149 43.7081 148.68C43.7081 148.36 44.0681 148.08 44.7481 147.92C46.6281 147.44 47.4681 146.92 47.4681 145.16V127.28C47.4681 125.56 47.1881 124.68 45.6281 124.68H44.0281C41.5081 124.68 41.0281 126.48 40.7081 127.76C40.5881 128.32 39.9081 129.36 39.5881 129.36C39.3481 129.36 38.9481 128.8 38.9481 128.08C38.9481 126.6 39.2681 125.36 39.3081 123.36C39.3081 123.16 39.4281 122.72 39.7881 122.72C40.0281 122.72 41.2281 122.96 41.7881 122.96C43.0681 122.96 44.9081 123.04 47.8681 123.04H50.1081C51.7481 123.04 53.5881 122.88 55.4681 122.88C55.9881 122.88 56.6281 123 56.6281 123.4C56.6281 123.84 56.0281 124.08 55.3481 124.24C53.2281 124.76 52.5881 125.32 52.5881 127.04V132.68C52.5881 133.6 52.7481 134.4 53.2281 134.4C53.4281 134.4 55.9481 133.88 57.6281 133.88C62.5481 133.88 65.7481 136.56 65.7481 141.16C65.7481 145.68 63.1481 147 61.6681 147.84C60.0681 148.8 57.9881 149.2 55.3081 149.2C54.7081 149.2 53.5481 149.04 50.1481 149.04C48.3481 149.04 46.5481 149.24 44.6681 149.24ZM55.1081 147.72C57.6281 147.72 60.1081 145.6 60.1081 141.44C60.1081 138.56 58.7081 137 57.7881 136.4C57.1881 136.08 56.3481 135.56 54.7481 135.56C54.3081 135.56 53.5481 135.72 53.2681 135.84C52.8281 136.04 52.6281 136.36 52.6281 136.96V145C52.6281 145.72 52.7481 146.44 53.1481 146.92C53.5481 147.32 54.3081 147.72 55.1081 147.72ZM68.4312 149.24C67.8712 149.24 67.4712 149 67.4712 148.68C67.4712 148.36 67.8312 148.08 68.5112 147.92C70.3912 147.44 71.1912 146.92 71.1912 145.16V127.04C71.1912 125.24 70.5912 124.64 68.6312 124.24C67.8712 124.08 67.5912 123.76 67.5912 123.44C67.5912 123.08 67.9912 122.88 68.5512 122.88C70.8712 122.88 72.7512 123.04 74.9112 123.04C77.3112 123.04 80.3112 123 82.5112 122.96C84.2312 122.92 85.5112 122.76 85.7112 122.76C86.0712 122.76 86.5512 122.88 86.6312 123.36C86.8712 125.16 87.2712 126.92 87.2712 128.2C87.2712 128.68 86.9912 128.92 86.7112 128.92C86.4312 128.92 86.2312 128.72 86.0712 128.36C85.6312 127.16 85.3112 126.2 84.8312 125.72C84.1512 125 83.2712 124.52 81.9912 124.52H78.2712C77.3512 124.52 76.3512 125.12 76.3512 126.12V133.96C76.3512 134.6 76.7112 134.88 77.2712 134.88H80.9112C82.3912 134.88 82.7912 134 83.2312 132.64C83.3912 132.12 83.6712 131.84 83.9912 131.84C84.2312 131.84 84.5112 132.12 84.5112 132.64C84.4312 133.44 84.3512 134.84 84.3512 135.72C84.3512 136.68 84.3912 138.16 84.4712 138.96C84.5112 139.56 84.3912 139.88 84.0712 139.88C83.6712 139.88 83.3112 139.44 83.1512 138.76C82.7512 137.28 82.2312 136.52 81.1912 136.52H77.4712C76.7112 136.52 76.3512 136.76 76.3512 137.48V145.08C76.3512 146.84 77.0712 147.4 78.6312 147.4H81.9112C83.2712 147.4 84.3512 147.2 85.1512 146.6C86.0312 145.92 86.7112 144.84 87.4312 143.48C87.6312 143.08 87.8312 142.96 88.1512 142.96C88.4312 143 88.5512 143.32 88.5512 143.64C88.5512 144.76 87.8312 147.08 87.3112 148.64C87.1512 149 86.8712 149.2 86.5112 149.2C83.9112 149.2 78.1112 149.04 73.6712 149.04C71.9912 149.04 70.2712 149.24 68.4312 149.24ZM91.8028 157.24C91.0828 157.24 90.7628 156.68 90.7228 155.64C90.4828 152.24 89.7628 149.32 89.7628 147.84C89.7628 147.52 89.9228 147.2 90.3628 147.16C95.8428 147.16 98.6428 141.08 98.6428 126.88C98.6428 125.32 97.7628 124.76 95.4428 124.24C94.7628 124.12 94.4428 123.84 94.4428 123.4C94.4428 123.08 94.8828 122.88 95.3628 122.88C96.6828 122.88 99.0028 123.04 100.563 123.04C103.723 123.04 103.523 123.04 110.123 123.04C111.803 123.04 113.683 122.88 115.563 122.88C116.123 122.88 116.443 123.08 116.443 123.44C116.443 123.88 116.123 124.08 115.443 124.24C113.323 124.76 112.683 125.32 112.683 127.04V145.12C112.683 146.8 114.923 147.12 116.243 147.16C116.723 147.2 116.803 147.52 116.803 147.84C116.803 148.84 116.043 152.24 115.883 155.64C115.803 156.68 115.483 157.24 114.763 157.24C114.043 157.24 114.003 156.4 113.923 155.52C113.643 151.04 113.123 149.04 110.043 149.04H96.5228C93.4428 149.04 92.8828 151.12 92.6828 155.52C92.6428 156.44 92.5228 157.24 91.8028 157.24ZM96.6428 147.4H105.763C107.163 147.4 107.523 146.84 107.523 145.76L107.483 127.16C107.483 125.6 107.083 124.68 105.443 124.68H102.363C100.923 124.68 100.523 125.44 100.523 126.64C100.523 137.6 98.7228 143.64 96.0828 146.64C95.6428 147.16 96.0028 147.4 96.6428 147.4ZM129.838 149.6C123.838 149.6 120.678 145.04 120.678 139.32C120.678 131.32 126.838 122.48 136.598 122.48C142.558 122.48 145.758 127.04 145.758 132.76C145.758 140.76 139.558 149.6 129.838 149.6ZM129.918 148.28C136.638 148.28 141.598 138.28 141.598 130.92C141.598 127.28 140.118 123.68 136.478 123.68C129.998 123.68 124.838 133.8 124.838 141.16C124.838 144.8 126.278 148.28 129.918 148.28ZM147.613 149.24C147.053 149.24 146.693 149 146.693 148.68C146.693 148.36 147.013 148.08 147.733 147.92C149.573 147.44 150.453 146.92 150.453 145.2V127C150.453 125.24 149.853 124.68 147.773 124.24C147.093 124.12 146.773 123.84 146.773 123.4C146.773 123.08 147.213 122.88 147.693 122.88C149.613 122.88 151.373 123.04 153.053 123.04H163.893C164.293 123.04 165.213 122.84 165.613 122.84C166.093 122.84 166.333 123.12 166.333 123.44C166.413 125.28 166.613 126.96 166.613 128.36C166.613 128.92 166.333 129.16 166.093 129.16C165.733 129.16 165.293 128.76 165.173 128.32C164.573 126.32 164.173 124.52 161.493 124.52H157.373C156.333 124.52 155.613 125.24 155.613 126.88V132.76C155.613 133.84 155.893 134.4 156.573 134.4C156.653 134.4 156.733 134.4 156.893 134.36C157.693 134.2 158.933 133.92 160.613 133.92C165.533 133.92 168.733 136.56 168.733 141.16C168.733 145.68 166.093 147 164.653 147.84C163.013 148.8 160.973 149.2 158.253 149.2C157.613 149.2 156.133 148.96 152.693 148.96C151.053 148.96 149.453 149.24 147.613 149.24ZM158.093 147.08C160.573 147.08 163.093 144.64 163.093 141.36C163.093 138.4 161.573 137.04 160.693 136.44C160.133 136.08 158.973 135.52 157.373 135.52C156.333 135.52 155.613 135.92 155.613 136.88V144.48C155.613 146.16 156.533 147.08 158.093 147.08ZM172.18 149.2C171.7 149.2 171.26 148.96 171.26 148.64C171.26 148.2 171.58 148 172.26 147.84C174.14 147.44 174.66 146.88 174.66 145.12V127C174.66 125.24 174.34 124.68 172.38 124.24C171.7 124.12 171.38 123.88 171.38 123.44C171.38 123.08 171.78 122.88 172.3 122.88C174.26 122.88 175.74 123.04 177.34 123.04C178.9 123.04 180.74 122.88 182.66 122.88C183.22 122.88 183.5 123.08 183.5 123.48C183.5 123.92 183.18 124.08 182.5 124.24C180.38 124.76 179.86 125.44 179.86 127.04V134.48C179.86 134.84 180.14 134.96 180.46 134.96H192.42C192.74 134.96 192.86 134.8 192.86 134.4V127C192.86 125.48 192.34 124.76 190.26 124.24C189.58 124.08 189.22 123.92 189.22 123.48C189.22 123.08 189.58 122.88 190.1 122.88C192.02 122.88 193.94 123.04 195.62 123.04C197.14 123.04 198.46 122.88 200.42 122.88C200.94 122.88 201.34 123.08 201.34 123.44C201.34 123.88 200.98 124.12 200.34 124.24C198.38 124.68 198.06 125.36 198.06 127V145.12C198.06 146.88 198.5 147.44 200.38 147.84C201.06 148 201.38 148.2 201.38 148.64C201.38 148.96 200.94 149.2 200.46 149.2C198.66 149.2 197.02 149 195.42 149C193.78 149 191.98 149.16 190.06 149.16C189.54 149.16 189.22 148.96 189.22 148.6C189.22 148.16 189.5 148 190.18 147.84C192.1 147.4 192.86 146.72 192.86 145.12V137.52C192.86 137.16 192.78 136.88 192.46 136.88H180.3C179.94 136.88 179.86 137.08 179.86 137.48V144.96C179.86 146.56 180.74 147.4 182.7 147.84C183.38 148 183.7 148.16 183.7 148.6C183.7 148.96 183.38 149.16 182.82 149.16C180.94 149.16 179.02 149 177.34 149C175.66 149 173.98 149.2 172.18 149.2ZM204.129 149.24C203.569 149.24 203.209 149 203.209 148.68C203.209 148.36 203.529 148.08 204.209 147.92C206.089 147.44 206.969 146.92 206.969 145.16V127.04C206.969 125.24 206.329 124.68 204.289 124.24C203.609 124.12 203.249 123.84 203.249 123.4C203.249 123.08 203.689 122.88 204.169 122.88C206.129 122.88 207.889 123.04 209.569 123.04C211.209 123.04 213.049 122.88 214.969 122.88C215.489 122.88 215.849 123.08 215.849 123.44C215.849 123.88 215.489 124.08 214.809 124.24C212.729 124.76 212.089 125.32 212.089 127.04V133.2C212.089 134 212.449 134.36 213.089 134.36C213.209 134.36 213.329 134.36 213.489 134.32C214.169 134.2 215.569 133.88 217.089 133.88C222.009 133.88 225.209 136.56 225.209 141.16C225.209 145.68 222.609 147 221.169 147.84C219.529 148.8 217.489 149.2 214.769 149.2C214.169 149.2 213.009 149.04 209.649 149.04C207.809 149.04 206.049 149.24 204.129 149.24ZM226.209 149.2C225.729 149.2 225.289 149 225.289 148.68C225.289 148.24 225.609 148 226.289 147.84C228.289 147.44 229.129 146.88 229.129 145.16V127C229.129 125.24 228.569 124.68 226.489 124.24C225.809 124.12 225.489 123.84 225.489 123.4C225.489 123.08 225.889 122.88 226.409 122.88C228.329 122.88 230.089 123.04 231.809 123.04C233.409 123.04 235.289 122.88 237.169 122.88C237.689 122.88 238.049 123.08 238.049 123.44C238.049 123.88 237.689 124.08 237.049 124.24C234.929 124.76 234.329 125.32 234.329 127.04V145.12C234.329 146.76 235.129 147.36 237.169 147.84C237.849 148 238.169 148.2 238.169 148.64C238.169 149 237.849 149.16 237.329 149.16C235.409 149.16 233.489 149 231.809 149C230.009 149 228.129 149.2 226.209 149.2ZM214.609 147.72C217.129 147.72 219.609 145.6 219.609 141.44C219.609 138.56 218.169 137.04 217.289 136.44C216.729 136.08 215.809 135.56 214.209 135.56C213.769 135.56 213.089 135.64 212.769 135.8C212.329 135.92 212.089 136.28 212.089 136.88V145C212.089 145.72 212.209 146.48 212.609 146.92C213.009 147.32 213.809 147.72 214.609 147.72ZM240.814 149.24C240.254 149.24 239.854 149 239.854 148.68C239.854 148.36 240.214 148.08 240.894 147.92C242.774 147.44 243.574 146.92 243.574 145.16V127.04C243.574 125.24 242.974 124.64 241.014 124.24C240.254 124.08 239.974 123.76 239.974 123.44C239.974 123.08 240.374 122.88 240.934 122.88C243.254 122.88 245.134 123.04 247.294 123.04C249.694 123.04 252.694 123 254.894 122.96C256.614 122.92 257.894 122.76 258.094 122.76C258.454 122.76 258.934 122.88 259.014 123.36C259.254 125.16 259.654 126.92 259.654 128.2C259.654 128.68 259.374 128.92 259.094 128.92C258.814 128.92 258.614 128.72 258.454 128.36C258.014 127.16 257.694 126.2 257.214 125.72C256.534 125 255.654 124.52 254.374 124.52H250.654C249.734 124.52 248.734 125.12 248.734 126.12V133.96C248.734 134.6 249.094 134.88 249.654 134.88H253.294C254.774 134.88 255.174 134 255.614 132.64C255.774 132.12 256.054 131.84 256.374 131.84C256.614 131.84 256.894 132.12 256.894 132.64C256.814 133.44 256.734 134.84 256.734 135.72C256.734 136.68 256.774 138.16 256.854 138.96C256.894 139.56 256.774 139.88 256.454 139.88C256.054 139.88 255.694 139.44 255.534 138.76C255.134 137.28 254.614 136.52 253.574 136.52H249.854C249.094 136.52 248.734 136.76 248.734 137.48V145.08C248.734 146.84 249.454 147.4 251.014 147.4H254.294C255.654 147.4 256.734 147.2 257.534 146.6C258.414 145.92 259.094 144.84 259.814 143.48C260.014 143.08 260.214 142.96 260.534 142.96C260.814 143 260.934 143.32 260.934 143.64C260.934 144.76 260.214 147.08 259.694 148.64C259.534 149 259.254 149.2 258.894 149.2C256.294 149.2 250.494 149.04 246.054 149.04C244.374 149.04 242.654 149.24 240.814 149.24ZM285.301 149.6C285.061 149.6 284.861 149.24 284.861 148.64C284.981 142.12 284.821 135.76 284.501 129.32C284.461 128.32 283.941 128.44 283.461 129.48C281.141 133.96 279.061 138.44 277.221 142.96C275.741 146.56 276.061 147.64 277.381 147.92C278.101 148.04 278.541 148.24 278.501 148.64C278.461 148.96 277.741 149.16 277.181 149.16C275.141 149.16 274.701 149.04 272.941 149.04C271.421 149.04 270.581 149.24 269.141 149.24C268.501 149.24 268.221 149.12 268.261 148.8C268.301 148.4 268.821 148.2 269.621 148.04C271.781 147.56 273.021 146.76 274.901 143.08L282.421 128.2C283.621 125.84 283.261 124.64 279.821 124.04C278.821 123.88 278.421 123.8 278.421 123.36C278.421 122.88 279.101 122.72 280.021 122.72C281.461 122.72 285.101 122.92 286.941 122.92C288.261 122.92 288.261 124.04 288.221 126.08L288.621 141.76C288.661 142.76 289.101 142.56 289.701 141.92C294.421 136.76 298.861 131.12 302.941 126.08C303.621 124.96 303.901 124.28 304.341 123.6C304.581 123.2 304.821 123.04 305.181 123.04H306.821C307.941 123.04 310.101 122.72 311.021 122.72C311.661 122.72 312.221 122.92 312.221 123.32C312.221 123.76 311.781 124.08 310.421 124.28C308.181 124.64 307.621 125.16 306.861 127.76C305.421 132.84 304.221 138.28 303.181 143.52C302.621 146.44 303.301 147.6 304.981 147.92C305.661 148.04 305.941 148.24 305.901 148.64C305.861 148.92 305.341 149.16 304.741 149.16C302.861 149.16 301.221 148.8 299.461 148.8C297.701 148.8 296.581 149.16 294.621 149.16C294.061 149.16 293.741 148.96 293.781 148.64C293.821 148.28 294.341 148.04 295.101 147.84C296.981 147.4 297.701 146.72 298.261 144.96C300.061 139.36 301.181 135 302.461 129.84C302.541 129.56 302.261 129.52 302.021 129.8L290.741 142.84L286.301 148.68C285.861 149.24 285.501 149.6 285.301 149.6ZM310.591 149.64C309.311 149.64 307.391 149.28 307.391 148.48C307.391 148.16 307.711 147.92 308.151 147.84C310.791 147.4 312.671 145.24 314.671 142.84C316.911 140.08 319.271 136.88 322.831 135.28C323.071 135.16 323.231 135 322.871 134.92C320.671 134.32 319.551 132.84 319.551 130C319.551 125.92 323.631 122.88 330.191 122.88C332.111 122.88 333.151 123.04 334.871 123.04C336.471 123.04 337.631 122.88 339.551 122.88C340.071 122.88 340.391 123.04 340.391 123.4C340.311 123.76 339.831 124.04 339.031 124.2C336.991 124.6 336.071 125.2 335.511 127.04L329.991 145.12C329.431 146.96 330.071 147.6 331.911 147.96C332.631 148.12 332.871 148.32 332.831 148.72C332.791 149.08 332.151 149.24 331.551 149.24C329.351 149.24 328.551 149 326.911 149C325.111 149 323.991 149.24 321.831 149.24C321.231 149.24 320.831 149.08 320.871 148.72C320.911 148.32 321.471 148.12 322.271 147.96C324.311 147.52 325.311 146.88 325.871 145.12L328.471 136.92C328.671 136.32 328.431 136 327.951 136C324.511 136 321.671 140.28 318.911 143.8C316.551 146.84 313.951 149.64 310.591 149.64ZM328.391 134.76C328.911 134.76 329.151 134.44 329.391 133.76L331.511 126.88C332.151 124.72 331.791 124.12 330.071 124.12C326.351 124.12 323.591 126.4 323.591 130.08C323.591 133.44 325.831 134.76 328.391 134.76ZM349.069 149.2C348.509 149.2 348.189 149.08 348.229 148.72C348.269 148.32 348.749 148.12 349.549 147.96C351.589 147.6 352.709 146.96 353.269 145.12L355.909 136.6C356.109 136 355.989 135.88 355.789 136C354.029 136.84 351.949 137.36 349.349 137.36C345.589 137.36 342.869 134.32 343.989 130.48L345.069 127.04C345.669 125.2 345.109 124.44 343.109 124.2C342.429 124.12 342.269 123.76 342.309 123.4C342.349 123.04 342.869 122.88 343.429 122.88C345.349 122.88 346.429 123.04 347.989 123.04C349.509 123.04 350.589 122.92 352.509 122.92C353.069 122.92 353.349 123.04 353.309 123.4C353.269 123.8 352.749 124.04 351.949 124.2C349.869 124.64 349.669 125.24 349.149 127.04L347.949 130.96C347.229 133.32 349.349 135.4 352.269 135.4C354.069 135.4 355.349 134.96 356.149 134.56C356.469 134.4 356.629 134.08 356.749 133.68L358.829 127.04C359.389 125.2 358.949 124.6 357.109 124.2C356.429 124.04 356.269 123.76 356.309 123.4C356.349 123.04 356.869 122.88 357.429 122.88C359.349 122.88 360.549 123.04 362.189 123.04C363.789 123.04 365.029 122.92 366.909 122.92C367.509 122.92 367.749 123.04 367.749 123.4C367.669 123.8 367.189 124.04 366.389 124.2C364.309 124.64 363.429 125.24 362.869 127.04L357.349 145.12C356.829 146.88 357.509 147.52 359.309 147.96C359.989 148.12 360.229 148.32 360.189 148.72C360.149 149.08 359.629 149.2 359.069 149.2C357.189 149.2 355.869 149 354.229 149C352.429 149 350.989 149.2 349.069 149.2ZM363.613 149.2C363.053 149.2 362.773 149.08 362.773 148.72C362.853 148.32 363.293 148.12 364.133 147.96C366.133 147.6 366.773 146.96 367.333 145.12L372.893 127C373.453 125.2 373.413 124.6 371.573 124.2C370.893 124.04 370.693 123.76 370.733 123.4C370.773 123.04 371.333 122.88 371.853 122.88C373.813 122.88 374.773 123.04 376.293 123.04C377.853 123.04 379.013 122.92 380.933 122.92C381.493 122.92 381.773 123.04 381.733 123.4C381.693 123.8 381.173 124.04 380.373 124.2C378.293 124.64 377.453 125.44 376.973 127L372.853 140.52C372.733 140.96 372.973 141.12 373.293 140.84L389.693 127.72C389.893 127.56 390.093 127.4 390.213 127L390.373 126.56C390.733 125.56 390.453 124.64 388.653 124.2C387.933 124.04 387.773 123.76 387.813 123.4C387.853 123.04 388.373 122.88 388.933 122.88C390.853 122.88 392.013 123.04 393.693 123.04C395.093 123.04 396.013 122.92 397.933 122.92C398.493 122.92 398.773 123.04 398.733 123.4C398.693 123.8 398.213 124.04 397.373 124.2C395.293 124.64 394.893 125.44 394.413 127L388.813 145.08C388.253 146.88 388.333 147.52 390.133 147.96C390.853 148.12 391.053 148.32 391.013 148.72C390.973 149.08 390.493 149.2 389.893 149.2C388.013 149.2 386.933 149 385.453 149C383.853 149 382.733 149.2 380.813 149.2C380.253 149.2 379.933 149.08 379.973 148.72C380.013 148.32 380.493 148.12 381.293 147.96C383.093 147.64 384.213 146.84 384.733 145.16L388.973 131.12C389.053 130.84 389.013 130.48 388.813 130.64L372.013 143.96C371.813 144.12 371.693 144.2 371.613 144.56L371.413 145.16C370.853 146.76 371.693 147.56 373.413 147.96C374.093 148.12 374.293 148.32 374.253 148.72C374.213 149.08 373.733 149.2 373.173 149.2C371.253 149.2 369.973 149 368.293 149C366.693 149 365.533 149.2 363.613 149.2ZM405.148 149.16C404.828 149.16 404.228 149.16 404.228 148.8C404.228 148.4 404.708 148.24 405.148 148.08C405.948 147.84 406.828 147.64 406.828 146.52V135.56C406.828 134.48 406.108 134.24 405.308 134C404.868 133.84 404.388 133.68 404.388 133.28C404.388 132.92 404.988 132.92 405.308 132.92C406.868 132.92 406.868 133.12 408.268 133.12C409.668 133.12 409.588 132.92 411.148 132.92C411.468 132.92 412.068 132.92 412.068 133.28C412.068 133.68 411.588 133.84 411.148 134C410.348 134.24 409.628 134.48 409.628 135.56V139.76C409.628 139.96 409.908 140 410.028 140H417.468C417.548 140 417.668 139.92 417.668 139.68V135.56C417.668 134.48 417.068 134.24 416.268 134C415.828 133.84 415.348 133.68 415.348 133.28C415.348 132.92 415.908 132.92 416.268 132.92C417.828 132.92 417.748 133.12 419.148 133.12C420.548 133.12 420.548 132.92 422.108 132.92C422.468 132.92 423.028 132.92 423.028 133.28C423.028 133.68 422.548 133.84 422.108 134C421.308 134.24 420.468 134.48 420.468 135.56V146.52C420.468 147.6 421.428 147.84 422.228 148.08C422.668 148.24 423.148 148.4 423.148 148.8C423.148 149.16 422.548 149.16 422.228 149.16C420.668 149.16 420.508 148.96 419.108 148.96C417.708 148.96 417.548 149.16 415.988 149.16C415.668 149.16 415.068 149.16 415.068 148.8C415.068 148.4 415.548 148.24 415.988 148.08C416.788 147.84 417.668 147.6 417.668 146.52V141.52C417.668 141.32 417.628 141.32 417.508 141.32H409.748C409.628 141.32 409.628 141.4 409.628 141.6V146.52C409.628 147.64 410.588 147.84 411.388 148.08C411.828 148.24 412.308 148.4 412.308 148.8C412.308 149.16 411.708 149.16 411.388 149.16C409.828 149.16 409.668 148.96 408.268 148.96C406.868 148.96 406.708 149.16 405.148 149.16ZM428.807 149.6C427.367 149.6 425.607 147.64 425.607 146.16C425.607 144.48 426.487 143.64 428.447 142.84L432.527 141.16C433.567 140.72 433.607 140.64 433.647 139.56L433.727 137C433.767 135.6 432.887 134.44 431.367 134.44C430.567 134.44 429.687 134.72 429.167 135.16C428.847 135.4 428.767 135.84 428.767 136.32C428.767 136.52 428.807 136.84 428.807 137.04C428.807 137.44 426.967 138.44 426.167 138.44C425.887 138.44 425.727 138.28 425.727 138.08C425.727 137.24 426.327 136.2 427.327 135.32C429.127 133.68 431.687 132.48 433.287 132.48C435.207 132.48 436.607 134 436.567 136.04L436.367 145.64C436.327 146.76 436.927 147.52 437.807 147.52C438.487 147.52 438.927 147.4 439.287 147.08C439.447 146.92 439.527 146.88 439.607 146.88C439.847 146.88 440.047 147.08 440.047 147.32C440.047 147.56 439.847 147.96 439.607 148.2C438.767 149.04 437.687 149.6 436.847 149.6C435.607 149.6 434.647 148.92 433.927 147.52H433.807C432.047 148.96 430.527 149.6 428.807 149.6ZM430.687 147.68C431.727 147.68 432.447 147.32 433.047 146.72C433.327 146.44 433.527 146.08 433.567 145.08L433.647 143.12C433.687 142.52 433.607 142.28 433.287 142.28C433.167 142.28 432.927 142.32 432.487 142.48C429.647 143.52 428.727 144.64 428.727 145.56C428.727 146.96 429.727 147.68 430.687 147.68ZM455.072 149.64C453.352 149.64 452.272 149.36 450.672 148.4C449.952 147.96 449.712 147.6 449.712 146.08C449.712 145.52 449.832 145 450.192 145C450.552 145 451.032 145.84 451.232 146.04C452.752 147.76 453.832 148.36 455.592 148.36C458.272 148.36 460.072 145.6 460.072 141.6C460.072 141.36 459.912 141.08 459.792 141.24C459.192 142.04 458.272 142.36 457.752 142.36C457.032 142.36 456.152 142.12 455.312 141.88C454.552 141.68 453.792 141.48 453.152 141.48C452.072 141.48 451.312 141.96 450.912 141.96C450.672 141.96 450.432 141.92 450.432 141.6C450.432 141.2 451.992 139.6 453.272 139.6C454.112 139.6 454.872 139.84 455.832 140.12C456.792 140.36 457.712 140.6 458.272 140.6C459.152 140.6 459.432 140.36 459.672 140.16C459.792 140.04 460.072 139.88 460.072 139.72C460.072 136.72 457.832 134.04 454.952 134.04C453.272 134.04 452.672 134.52 451.912 135.2C451.032 135.96 450.752 137.88 450.232 137.88C449.792 137.88 449.792 137.48 449.792 136.96C449.792 135.92 449.912 135.32 450.272 134.16C450.392 133.76 450.672 133.72 451.032 133.56C451.992 133.12 452.872 132.48 455.832 132.48C459.872 132.48 463.032 136.16 463.032 140.28C463.032 145.08 459.872 149.64 455.072 149.64ZM481.12 149.6C478.96 149.6 477.68 148.4 475.64 145.2C473.96 142.52 473.52 140.84 471.16 140.84C470.96 140.84 470.76 141 470.76 141.2V146.56C470.76 147.68 471.76 147.84 472.56 148.08C473 148.24 473.48 148.4 473.48 148.8C473.48 149.2 472.76 149.16 472.56 149.16C471 149.16 470.84 148.96 469.44 148.96C468.04 148.96 467.88 149.16 466.32 149.16C466.12 149.16 465.4 149.2 465.4 148.8C465.4 148.4 465.88 148.24 466.32 148.08C467.12 147.84 468.04 147.8 468.04 146.68V135.84C468.04 134.68 467.36 134.16 466.56 133.92C466.12 133.76 465.64 133.6 465.64 133.2C465.64 132.8 466.36 132.84 466.56 132.84C468.12 132.84 467.96 133.04 469.36 133.04C470.76 133.04 470.68 132.84 472.24 132.84C472.44 132.84 473.16 132.8 473.16 133.2C473.16 133.6 472.68 133.76 472.24 133.92C471.44 134.16 470.76 134.72 470.76 135.92V139.64C470.76 139.92 471 139.96 471.2 139.96C473.92 139.96 475.12 138.32 476.08 136.56C477.2 134.52 477.96 132.32 480.44 132.32C481.84 132.32 482.4 133.2 482.4 134C482.4 134.88 481.92 135.52 481.2 135.52C480.68 135.52 479.76 134.88 479.24 134.88C478.52 134.88 478.28 135.32 477.88 135.84C477.4 136.48 476.48 138.84 475.36 139.6C475.12 139.76 475.24 139.8 475.36 139.96C476.52 141.76 477.36 143.36 478.24 144.68C479.24 146.2 480.28 147.32 481.88 147.88C482.56 148.12 482.96 148.4 482.96 148.8C482.96 149.12 482.24 149.6 481.12 149.6ZM485.142 160.44C484.862 160.44 484.302 160.4 484.302 160.08C484.302 159.68 484.782 159.52 485.222 159.36C486.022 159.12 486.942 158.92 486.942 157.84V137.56C486.942 136.96 486.422 134.92 485.102 134.64C484.902 134.6 484.782 134.36 484.782 134.12C484.782 133.88 484.902 133.68 485.062 133.64C487.102 133.16 488.422 132.56 489.702 132.04C489.742 132.04 489.742 132 489.782 132C489.902 132 490.022 132.2 490.022 132.36C490.022 132.84 489.822 134.12 489.822 134.76C489.822 134.92 489.822 135.08 489.862 135.12C490.622 134.36 493.822 132.48 496.342 132.48C500.462 132.48 502.902 136.28 502.902 140.04C502.902 144.8 498.942 149.6 493.902 149.6C492.782 149.6 490.702 149.04 489.902 148.32C489.782 148.32 489.742 150.12 489.742 150.36V157.84C489.742 158.92 491.262 159.12 492.062 159.36C492.502 159.52 492.982 159.68 492.982 160.08C492.982 160.4 492.422 160.44 492.102 160.44C490.542 160.44 489.742 160.24 488.342 160.24C486.942 160.24 486.702 160.44 485.142 160.44ZM494.502 148.36C496.062 148.36 499.702 146.68 499.702 141.32C499.702 135.16 495.982 134.28 494.262 134.28C492.342 134.28 489.862 135.8 489.862 136.36C489.862 138.68 489.742 141.44 489.742 142.4C489.742 145.64 492.342 148.36 494.502 148.36ZM508.182 149.6C506.742 149.6 504.982 147.64 504.982 146.16C504.982 144.48 505.862 143.64 507.822 142.84L511.902 141.16C512.942 140.72 512.982 140.64 513.022 139.56L513.102 137C513.142 135.6 512.262 134.44 510.742 134.44C509.942 134.44 509.062 134.72 508.542 135.16C508.222 135.4 508.142 135.84 508.142 136.32C508.142 136.52 508.182 136.84 508.182 137.04C508.182 137.44 506.342 138.44 505.542 138.44C505.262 138.44 505.102 138.28 505.102 138.08C505.102 137.24 505.702 136.2 506.702 135.32C508.502 133.68 511.062 132.48 512.662 132.48C514.582 132.48 515.982 134 515.942 136.04L515.742 145.64C515.702 146.76 516.302 147.52 517.182 147.52C517.862 147.52 518.302 147.4 518.662 147.08C518.822 146.92 518.902 146.88 518.982 146.88C519.222 146.88 519.422 147.08 519.422 147.32C519.422 147.56 519.222 147.96 518.982 148.2C518.142 149.04 517.062 149.6 516.222 149.6C514.982 149.6 514.022 148.92 513.302 147.52H513.182C511.422 148.96 509.902 149.6 508.182 149.6ZM510.062 147.68C511.102 147.68 511.822 147.32 512.422 146.72C512.702 146.44 512.902 146.08 512.942 145.08L513.022 143.12C513.062 142.52 512.982 142.28 512.662 142.28C512.542 142.28 512.302 142.32 511.862 142.48C509.022 143.52 508.102 144.64 508.102 145.56C508.102 146.96 509.102 147.68 510.062 147.68ZM521.359 149.16C521.039 149.16 520.439 149.16 520.439 148.8C520.439 148.4 520.919 148.24 521.359 148.08C522.159 147.84 523.039 147.64 523.039 146.52V135.56C523.039 134.48 522.319 134.24 521.519 134C521.079 133.84 520.599 133.68 520.599 133.28C520.599 132.92 521.199 132.92 521.519 132.92C523.079 132.92 523.079 133.12 524.479 133.12C525.879 133.12 525.799 132.92 527.359 132.92C527.679 132.92 528.279 132.92 528.279 133.28C528.279 133.68 527.799 133.84 527.359 134C526.559 134.24 525.839 134.48 525.839 135.56V139.76C525.839 139.96 526.119 140 526.239 140H533.679C533.759 140 533.879 139.92 533.879 139.68V135.56C533.879 134.48 533.279 134.24 532.479 134C532.039 133.84 531.559 133.68 531.559 133.28C531.559 132.92 532.119 132.92 532.479 132.92C534.039 132.92 533.959 133.12 535.359 133.12C536.759 133.12 536.759 132.92 538.319 132.92C538.679 132.92 539.239 132.92 539.239 133.28C539.239 133.68 538.759 133.84 538.319 134C537.519 134.24 536.679 134.48 536.679 135.56V146.52C536.679 147.6 537.639 147.84 538.439 148.08C538.879 148.24 539.359 148.4 539.359 148.8C539.359 149.16 538.759 149.16 538.439 149.16C536.879 149.16 536.719 148.96 535.319 148.96C533.919 148.96 533.759 149.16 532.199 149.16C531.879 149.16 531.279 149.16 531.279 148.8C531.279 148.4 531.759 148.24 532.199 148.08C532.999 147.84 533.879 147.6 533.879 146.52V141.52C533.879 141.32 533.839 141.32 533.719 141.32H525.959C525.839 141.32 525.839 141.4 525.839 141.6V146.52C525.839 147.64 526.799 147.84 527.599 148.08C528.039 148.24 528.519 148.4 528.519 148.8C528.519 149.16 527.919 149.16 527.599 149.16C526.039 149.16 525.879 148.96 524.479 148.96C523.079 148.96 522.919 149.16 521.359 149.16ZM548.858 149.64C544.458 149.64 541.538 146.16 541.538 140.92C541.538 136.32 545.058 132.48 549.258 132.48C552.458 132.48 554.738 134.56 554.738 137.52C554.738 138.36 554.378 138.76 553.538 138.76H545.098C544.338 138.76 544.098 139.08 544.098 140.24C544.098 144.08 546.858 147.2 550.258 147.2C551.858 147.2 553.178 146.56 554.178 145.4C554.378 145.12 554.458 145.08 554.618 145.08C554.818 145.08 554.938 145.24 554.938 145.48C554.938 146 554.698 146.56 554.218 147.16C553.018 148.72 550.978 149.64 548.858 149.64ZM545.178 137.52H548.818C550.098 137.52 550.898 137.48 551.778 137.32C552.018 137.28 552.098 137 552.098 136.44C552.098 134.92 550.538 133.64 548.658 133.64C546.818 133.64 544.698 135.52 544.698 137.12C544.698 137.4 544.858 137.52 545.178 137.52ZM558.124 149.84C556.964 149.84 556.044 148.76 556.044 147.6C556.044 145.96 557.444 144.52 559.124 144.52C560.404 144.52 561.244 145.68 561.244 146.84C561.244 148.48 559.844 149.84 558.124 149.84Z" fill="#373E1F"/>
</svg>
