<svg width="316" height="207" viewBox="0 0 316 207" fill="none" xmlns="http://www.w3.org/2000/svg">
<g clip-path="url(#clip0_483_1714)">
<path d="M279.224 162.7C279.187 162.474 279.127 162.251 279.037 162.037C278.382 160.47 276.457 158.292 273.624 158.338C270.791 158.385 231.188 162.507 227.38 160.676C225.946 159.987 224.646 159.295 223.479 158.534C224.669 157.873 226.734 156.833 226.966 154.686C227.054 153.878 227.009 152.878 226.928 151.829C227.208 152.162 227.524 152.482 227.879 152.778C230.114 154.635 235.522 158.017 238.355 157.971C241.188 157.924 247.473 157.19 250.873 153.347C254.273 149.504 257.343 144.719 257.926 141.869C258.466 139.23 259.461 131.442 258.601 130.07C259.02 128.913 259.284 127.536 258.936 126.704C258.281 125.137 255.112 123.926 253.564 125.53C253.118 125.993 252.751 126.586 252.48 127.203C252.25 127.157 251.992 127.133 251.702 127.138C251.32 127.144 250.75 127.287 250.051 127.557C250.08 126.754 249.801 125.683 249.219 124.697C249.924 124.191 250.537 123.64 251.005 123.047C253.781 119.53 256.448 109.386 255.101 104.043C253.754 98.7002 245.162 93.1604 242.927 91.3035C240.693 89.4466 238.794 88.8466 235.636 88.2672C232.478 87.6879 229.934 86.1516 227.416 86.193C225.698 86.2212 221.777 85.9918 219.064 86.1503C215.218 80.5343 209.268 72.5206 207.501 71.0709C204.861 68.9043 200.654 67.0651 198.198 70.8927C196.294 73.8605 195.045 77.2295 194.385 79.454C193.945 78.6713 193.372 77.9306 192.636 77.296C189.762 74.8184 186.243 71.4046 182.528 75.2528C178.813 79.1011 179.809 82.2407 179.835 83.8183C179.839 84.0836 179.878 84.8389 179.959 85.9432C178.683 83.0283 177.323 81.5001 176.331 81.3511C174.791 81.1198 173.671 81.0902 172.669 83.471C171.86 80.4506 171.099 78.1866 170.501 77.296C168.001 73.5709 162.615 70.5302 158.374 80.6991C158.299 80.879 158.225 81.0578 158.152 81.2356C157.801 78.6 157.236 76.4906 156.402 75.6819C153.523 72.8887 148.12 69.8214 146.309 74.5852C146.134 75.0461 145.973 75.4743 145.826 75.8715C145.699 74.9748 145.444 74.1555 145.034 73.6593C143.749 72.1024 116.446 47.7536 104.474 38.6623C92.5013 29.5709 75.6023 25.2499 65.5506 26.6774C59.7329 27.5036 53.052 31.711 48.7721 35.7769C48.0884 36.2483 47.421 36.9844 46.533 38.1536C46.0571 38.7296 45.6487 39.287 45.3186 39.8142C45.2133 39.9617 45.1051 40.1137 44.9938 40.2703C40.6856 46.3376 36.3669 51.7737 37.7659 60.272C39.1649 68.7703 44.4446 83.517 47.3656 88.8343C50.2865 94.1515 49.591 109.312 49.3073 111.21C49.0236 113.108 44.7827 123.277 44.8915 129.903C45.0003 136.529 49.9291 149.072 54.429 154.679C58.929 160.286 57.3707 161.259 57.407 163.467C57.4433 165.676 58.1298 169.136 59.4044 170.062C60.679 170.988 63.5585 173.781 65.7463 172.798C66.5669 172.43 67.0703 171.622 67.3449 170.708C68.997 171.409 70.9384 171.607 72.3356 171.428C74.2663 171.181 76.1874 170.345 76.8965 168.941C78.3893 169.244 79.7607 169.191 80.4728 168.454C82.3303 166.53 79.4353 162.79 78.1451 160.918C76.855 159.045 72.0662 155.021 69.5532 155.378C68.8797 155.473 68.2514 155.568 67.6868 155.68C68.1347 151.445 68.1781 144.017 67.447 142.157C66.4613 139.648 63.8758 135.588 64.4794 134C65.0831 132.412 71.6102 127.255 74.6438 120.262C77.6775 113.269 84.478 105.583 85.4067 104.621C85.7241 104.292 86.8342 102.955 88.1293 101.123C91.9381 105.305 96.3343 111.855 98.5244 117.345C101.151 123.93 107.066 138.982 108.052 141.49C109.037 143.999 119.364 159.294 131.423 165.092C143.483 170.891 160.264 176.612 177.828 172.536C190.3 169.642 192.873 163.251 192.968 159.228C197.744 161.871 212.118 169.985 223.773 171.15C237.334 172.505 256.54 172.506 265.322 170.468C271.506 169.033 275.362 168.419 276.652 167.527C276.666 167.52 276.679 167.511 276.69 167.5C276.851 167.384 276.968 167.262 277.042 167.134C278.25 165.865 279.499 164.384 279.224 162.7Z" fill="#3170B7"/>
<path d="M279.037 162.037C279.127 162.25 279.187 162.474 279.224 162.7C279.526 164.549 277.991 166.152 276.69 167.5C276.38 167.821 274.698 166.211 273.743 165.595C272.788 164.98 272.463 164.354 273.397 163.707C274.331 163.061 275.611 164.302 276.901 166.175C278.191 168.047 274.104 168.43 265.322 170.468C256.54 172.506 237.334 172.505 223.773 171.15C210.213 169.795 192.971 159.032 191.45 158.426C189.928 157.819 188.88 155.312 189.174 154.045C189.468 152.777 191.382 154.324 192.353 155.886C193.323 157.448 195.393 168.46 177.828 172.536C160.264 176.611 143.483 170.891 131.423 165.092C119.364 159.294 109.037 143.999 108.052 141.49C107.066 138.982 101.151 123.93 98.5244 117.345C95.8975 110.761 90.0971 102.65 85.943 98.9312C81.7889 95.2122 82.3199 89.207 82.294 87.6295C82.2681 86.0519 85.0233 81.2726 87.8561 81.226C90.689 81.1795 92.6139 83.3571 93.3315 88.7106C94.0491 94.0641 86.3355 103.659 85.4067 104.621C84.478 105.583 77.6775 113.269 74.6438 120.262C71.6102 127.255 65.0831 132.412 64.4794 134C63.8758 135.588 66.4613 139.648 67.447 142.157C68.4328 144.666 68.0105 157.297 67.0869 158.574C66.1634 159.852 64.5688 158.616 64.8629 157.348C65.1569 156.081 67.0403 155.735 69.5532 155.378C72.0662 155.021 76.855 159.045 78.1451 160.918C79.4353 162.79 82.3303 166.53 80.4728 168.454C78.6154 170.378 72.2734 167.642 70.9885 166.085C69.7035 164.528 71.5714 163.235 72.8304 163.214C74.0895 163.193 75.9884 163.793 76.9794 166.618C77.9703 169.442 75.1633 171.066 72.3356 171.428C69.5079 171.79 64.451 170.61 64.074 166.829C63.6971 163.048 66.5766 165.842 67.2217 166.778C67.8667 167.714 67.9341 171.816 65.7463 172.798C63.5585 173.781 60.679 170.988 59.4044 170.062C58.1298 169.136 57.4433 165.676 57.407 163.467C57.3707 161.259 58.929 160.286 54.429 154.679C49.9291 149.072 45.0003 136.529 44.8915 129.903C44.7827 123.277 49.0236 113.108 49.3073 111.21C49.591 109.312 50.2865 94.1515 47.3656 88.8343C44.4446 83.517 39.1649 68.7703 37.7659 60.272C36.3669 51.7737 40.6856 46.3376 44.9938 40.2703C49.3021 34.2031 49.0028 35.1549 55.9225 34.7256C62.8421 34.2964 66.0208 36.1378 67.605 36.743C69.1892 37.3482 68.9418 41.4551 63.6012 42.174C58.2605 42.8929 46.1321 46.5158 44.5013 43.0709C42.8705 39.6261 55.4989 28.1048 65.5506 26.6774C75.6023 25.2499 92.5013 29.5709 104.474 38.6623C116.446 47.7536 143.749 72.1024 145.034 73.6593C146.319 75.2162 146.082 79.9542 145.143 80.2852C144.204 80.6162 144.498 79.349 146.309 74.5852C148.12 69.8214 153.523 72.8887 156.402 75.6819C159.282 78.475 158.953 96.7854 157.725 98.6992C156.497 100.613 155.862 100.308 154.897 99.0612C153.932 97.8146 154.133 90.8681 158.374 80.6991C162.615 70.5302 168.001 73.5709 170.501 77.296C173.001 81.0212 178.355 108.775 178.149 115.406C177.943 122.037 175.363 118.292 171.854 115.51C168.345 112.727 168.804 102.304 168.726 97.5717C168.648 92.8389 170.805 89.9631 171.991 85.5252C173.178 81.0872 174.437 81.0665 176.331 81.3511C178.224 81.6356 181.46 86.9477 182.89 97.3391C184.32 107.73 192.67 117.693 193.635 118.939C194.6 120.186 193.981 120.827 191.767 120.232C189.553 119.637 188.888 117.439 185.002 110.875C181.116 104.311 179.86 85.3959 179.835 83.8183C179.809 82.2407 178.813 79.1011 182.528 75.2528C186.243 71.4046 189.762 74.8184 192.636 77.296C195.511 79.7737 195.893 83.8702 195.609 85.7685C195.325 87.6668 194.118 90.8426 194.5 94.9392C194.882 99.0358 206.07 109.267 206.71 109.888C207.35 110.508 208.305 111.124 207.381 112.401C206.457 113.679 202.954 111.212 201.989 109.965C201.024 108.719 200.007 104.317 200.301 103.05C200.595 101.782 203.402 100.158 203.706 99.5221C204.011 98.8858 203.056 98.2703 201.152 97.3548C199.248 96.4392 197.82 94.7553 197.001 94.0709C196.32 93.5009 195.435 92.4992 195.001 91.5709C194.703 90.9329 193.64 88.7625 193.501 88.0709C193.001 85.5709 193.501 83.0709 193.957 81.0616C194.377 79.2152 195.742 74.7202 198.198 70.8927C200.654 67.0651 204.861 68.9043 207.501 71.0709C210.141 73.2376 222.127 90.0671 222.468 91.6395C222.808 93.2119 222.494 93.2171 221.89 94.805C221.286 96.393 221.291 96.7085 221.317 98.2861C221.343 99.8637 221.359 100.81 220.11 101.462C218.861 102.114 218.216 101.177 215.992 99.9515C213.768 98.7256 213.381 94.3136 213.339 91.7894C213.298 89.2653 215.161 87.6567 216.404 86.6894C217.648 85.7222 224.898 86.2344 227.416 86.193C229.934 86.1516 232.478 87.6879 235.636 88.2672C238.794 88.8466 240.693 89.4466 242.927 91.3035C245.162 93.1604 253.754 98.7002 255.101 104.043C256.448 109.386 253.781 119.53 251.005 123.047C248.229 126.564 240.391 128.586 238.188 128.623C235.984 128.659 234.08 127.743 232.764 124.293C231.448 120.843 234.879 118.893 238.017 118.21C241.154 117.528 245.943 121.552 247.857 123.098C249.772 124.645 250.447 127.413 249.834 128.431C249.221 129.449 245.851 135.124 243.704 138.631C241.558 142.138 243.001 147.071 240.501 149.071C238.501 150.671 236.863 150.683 236.012 149.488C235.001 148.071 233.767 147 237.42 139.366C241.072 131.731 249.498 127.174 251.702 127.138C253.905 127.102 254.246 128.674 254.261 129.621C254.277 130.568 253.338 130.899 252.388 130.599C251.439 130.299 252.017 127.133 253.564 125.53C255.112 123.926 258.281 125.137 258.936 126.704C259.592 128.271 258.075 131.768 257.45 132.093C256.826 132.419 256.181 131.483 256.171 130.852C256.16 130.221 257.094 129.574 258.358 129.869C259.623 130.164 258.509 139.019 257.926 141.869C257.343 144.719 254.273 149.504 250.873 153.347C247.473 157.19 241.188 157.924 238.355 157.971C235.522 158.017 230.114 154.635 227.879 152.778C225.645 150.921 224.969 148.091 224.953 147.145C224.938 146.198 224.912 144.621 226.15 143.338C227.389 142.055 228.023 142.36 227.724 143.312C227.425 144.264 227.42 143.948 226.821 145.852C226.223 147.755 227.24 152.157 226.966 154.686C226.693 157.216 223.876 158.209 222.942 158.855C222.008 159.502 220.429 159.212 218.839 158.291C217.25 157.371 214.009 151.743 213.023 149.234C212.038 146.726 210.056 141.077 209.38 138.248C208.703 135.419 210.293 136.339 210.933 136.96C211.573 137.581 216.826 150.75 218.767 153.874C220.707 156.998 223.571 158.845 227.38 160.676C231.188 162.507 270.791 158.385 273.624 158.338C276.457 158.292 278.382 160.47 279.037 162.037Z" stroke="#FDFEF0"/>
</g>
<defs>
<clipPath id="clip0_483_1714">
<rect width="316" height="207" fill="white"/>
</clipPath>
</defs>
</svg>
