<svg width="648" height="339" viewBox="0 0 648 339" fill="none" xmlns="http://www.w3.org/2000/svg">
<rect x="1" y="1" width="99" height="100" rx="11" fill="#FDFEF0"/>
<rect x="1" y="1" width="99" height="100" rx="11" stroke="#3170B7" stroke-width="2"/>
<path d="M21.3509 78.24C20.7109 78.24 19.9109 77.76 19.9109 77.04C19.9109 76.08 20.4709 75.52 21.4309 75.28C25.0309 74.4 26.2309 73.52 26.2309 70.24V33.92C26.2309 30.48 25.1909 29.52 21.4309 28.56C20.4709 28.32 19.9109 27.76 19.9109 26.8C19.9109 26.08 20.7109 25.6 21.3509 25.6C24.8709 25.6 29.6709 26 32.8709 26H67.1109C70.3109 26 75.1109 25.6 78.6309 25.6C79.2709 25.6 80.0709 26.08 80.0709 26.8C80.0709 27.76 79.5109 28.32 78.5509 28.56C74.7909 29.52 73.7509 30.48 73.7509 33.92V70.24C73.7509 73.52 74.9509 74.4 78.5509 75.28C79.5109 75.52 80.0709 76.08 80.0709 77.04C80.0709 77.76 79.2709 78.24 78.6309 78.24C75.5909 78.24 70.3109 77.84 67.1109 77.84C63.9909 77.84 58.0709 78.16 54.7109 78.16C53.9109 78.16 53.4309 77.76 53.4309 76.96C53.4309 75.92 53.9909 75.6 54.9509 75.28C59.1109 74.08 60.0709 73.12 60.1509 70.16C60.5509 57.68 60.9509 44.48 60.1509 32C60.1509 31.12 59.8309 30.72 59.0309 30.64C56.1509 30.32 53.1909 30.16 50.3109 30.16C47.2709 30.16 44.1509 30.4 41.1109 30.64C40.2309 30.72 39.9109 31.2 39.8309 32C38.5509 44.4 39.0309 57.68 39.8309 70.16C39.9909 73.12 40.8709 74.08 45.0309 75.28C45.9909 75.6 46.5509 75.92 46.5509 76.96C46.5509 77.76 46.0709 78.16 45.2709 78.16C41.9109 78.16 35.9909 77.84 32.8709 77.84C29.6709 77.84 24.3909 78.24 21.3509 78.24Z" fill="#3170B7"/>
<rect x="136" y="118" width="101" height="101" rx="11" fill="#FDFEF0"/>
<rect x="136" y="118" width="101" height="101" rx="11" stroke="#3170B7" stroke-width="2"/>
<path d="M164.714 195.4C163.754 195.4 163.194 194.76 163.194 194.12C163.194 193.48 163.754 192.76 164.794 192.44C168.314 191.4 169.594 190.68 169.594 187.4V150.92C169.594 147.48 168.554 146.44 164.794 145.56C163.514 145.24 163.114 144.52 163.114 143.88C163.114 143.16 163.754 142.6 164.714 142.6C168.234 142.6 173.034 143 176.234 143C182.154 143 189.594 142.92 194.874 142.76C198.234 142.76 200.634 142.12 201.034 142.12C201.834 142.12 202.954 142.52 203.114 143.8C203.514 147.8 204.474 151.72 204.474 154.6C204.474 155.64 203.994 156.2 203.434 156.2C202.874 156.2 202.154 155.8 201.754 154.84C200.554 151.96 199.834 150.04 198.634 148.84C197.434 147.64 195.754 146.28 192.794 146.28H187.754C185.114 146.28 183.194 147.64 183.194 149.96V164.68C183.194 166.12 183.994 166.6 185.274 166.6H192.074C194.874 166.6 195.754 164.2 196.714 161.64C197.114 160.68 197.754 160.2 198.394 160.2C198.874 160.2 199.434 160.84 199.354 162.04C199.114 164.36 198.954 166.52 198.954 168.68C198.954 170.84 199.034 172.92 199.274 175.32C199.434 176.92 199.034 177.56 198.474 177.56C197.674 177.56 196.874 176.76 196.554 175.64C195.594 172.2 194.474 170.36 192.474 170.36H184.954C183.754 170.36 183.194 171.08 183.194 172.2V187.32C183.194 190.28 184.394 191.4 187.114 191.4H194.234C196.314 191.4 198.554 190.84 200.074 189.56C201.914 188.04 203.434 185.56 204.634 183.16C205.034 182.36 205.514 182.2 206.154 182.2C206.794 182.2 206.954 183.08 206.954 183.8C206.954 186.68 205.514 190.36 204.394 194.36C204.154 195.08 203.274 195.32 202.474 195.32C201.434 195.32 185.914 195 176.234 195C173.034 195 167.834 195.4 164.714 195.4Z" fill="#3170B7"/>
<g clip-path="url(#clip0_488_46)">
<rect x="270" y="237" width="103" height="101" rx="12" fill="#FDFEF0"/>
<path d="M315.061 306.2C311.381 306.2 306.661 301.72 306.661 297.4C306.661 285.8 316.661 271.32 327.781 271.32C332.421 271.32 334.741 273.4 334.741 276.28C334.741 283.24 324.821 286.04 316.261 287.72C315.701 287.8 315.461 287.88 315.221 288.44C314.661 290.28 314.021 292.52 313.941 294.36C313.941 298.12 315.621 300.6 318.901 300.6C322.421 300.6 324.901 298.52 326.901 296.36C327.461 295.72 327.861 295.48 328.261 295.48C328.821 295.48 329.061 295.8 329.061 296.28C329.061 296.44 329.061 296.84 328.901 297.08C325.701 302.52 321.141 306.2 315.061 306.2ZM316.821 285.48C320.021 285.08 328.821 282.52 328.981 276.2C328.981 274.92 328.261 273.64 326.821 273.64C322.661 273.64 316.581 281.48 316.261 285C316.261 285.48 316.501 285.56 316.821 285.48Z" fill="#3170B7"/>
</g>
<rect x="271" y="238" width="101" height="99" rx="11" stroke="#3170B7" stroke-width="2"/>
<rect x="548" y="238" width="99" height="99" rx="11" fill="#FDFEF0"/>
<rect x="548" y="238" width="99" height="99" rx="11" stroke="#3170B7" stroke-width="2"/>
<path d="M595.107 316.12C589.907 316.12 585.747 314.84 582.867 313.56C581.667 313.08 580.147 311.88 579.827 310.36C579.027 306.52 578.227 302.68 578.227 300.36C578.227 299.56 579.427 298.92 580.387 298.92C580.707 298.92 581.267 300.12 582.147 302.2C584.307 307.56 588.947 311.8 594.067 311.8C600.947 311.8 603.907 304.84 603.907 298.36C603.907 293.88 602.307 288.52 597.107 288.52C596.227 288.52 595.427 288.76 594.467 289C593.507 289.16 592.307 289.4 590.547 289.4C589.187 289.4 586.307 289.16 586.307 286.76C586.307 284.6 589.027 283.56 590.227 283.56C592.147 283.56 593.027 283.8 593.907 283.96C594.787 284.2 595.507 284.36 597.027 284.36C600.467 284.36 602.627 279.72 602.627 275.08C602.627 269.96 599.347 265.32 593.747 265.32C587.347 265.32 584.867 269.48 583.427 276.12C583.187 277.08 582.067 278.28 581.347 278.28C580.467 278.28 579.747 277.24 579.747 276.28C579.747 273.96 579.827 271.24 580.387 267.4C580.547 266.2 581.427 265.16 582.067 265.08C587.427 264.12 588.227 261.88 596.067 261.88C605.347 261.88 614.227 265.64 614.227 274.36C614.227 280.04 611.187 283.64 606.467 285.48C605.987 285.64 605.907 286.12 606.467 286.28C610.787 287.8 617.507 291.24 617.507 300.52C617.507 310.6 606.147 316.12 595.107 316.12Z" fill="#3170B7"/>
<g clip-path="url(#clip1_488_46)">
<rect x="408" y="238" width="103" height="101" rx="12" fill="#FDFEF0"/>
<path d="M456.312 306.04C455.592 306.04 454.952 305.48 454.472 304.44L444.312 282.12C443.992 281.32 443.592 281.56 443.352 282.52C442.952 284.92 442.152 297 442.152 299.32C442.152 302.04 443.592 302.36 446.152 303C446.872 303.24 447.832 303.56 447.832 304.28C447.832 304.92 446.872 305.08 446.312 305.08C443.112 305.08 442.872 304.92 440.232 304.92C437.352 304.92 435.192 305.16 434.232 305.16C433.432 305.16 432.792 304.84 432.792 304.28C432.792 303.56 433.912 303.32 434.552 303C436.312 302.36 437.912 301.72 438.152 299.64L440.472 278.76C440.792 275.88 439.352 274.36 436.472 273.72C435.512 273.48 434.712 273.08 434.712 272.36C434.712 271.72 435.512 271.56 436.232 271.56C437.672 271.56 440.792 271.8 443.112 271.8C443.992 271.88 445.672 271.8 446.872 271.8C447.432 271.8 448.072 272.36 448.232 272.76L458.312 293.4C458.712 294.2 459.032 294.28 459.432 293.4L467.272 276.12C467.832 274.12 468.632 272.12 469.512 272.12H472.232C475.432 272.12 478.952 271.56 480.472 271.56C481.272 271.56 482.072 271.72 482.072 272.44C482.072 273.16 481.192 273.4 480.472 273.64C478.392 274.2 476.392 275.8 476.472 278.44C476.872 288.04 477.192 290.52 477.832 299.88C477.992 301.72 479.752 302.44 481.752 303C482.392 303.32 483.192 303.56 483.192 304.28C483.192 304.92 482.472 305.08 481.992 305.08C479.272 305.08 475.752 304.84 473.272 304.84C470.712 304.84 467.832 305.16 465.032 305.16C464.472 305.16 463.672 304.92 463.672 304.36C463.672 303.64 464.472 303.24 465.192 303C467.672 302.44 468.952 302.04 468.872 299.96C468.632 295.24 468.312 288.76 468.072 282.6C468.072 281.88 467.672 282.04 467.352 282.76L457.912 304.52C457.432 305.56 457.112 306.04 456.312 306.04Z" fill="#3170B7"/>
</g>
<rect x="409" y="239" width="101" height="99" rx="11" stroke="#3170B7" stroke-width="2"/>
<g clip-path="url(#clip2_488_46)">
<rect x="408" y="1" width="103" height="102" rx="12" fill="#FDFEF0"/>
<path d="M451.854 71.12C446.494 71.12 441.694 66.56 441.694 60.56C441.694 50.64 450.414 35.84 463.614 35.84C470.094 35.84 474.334 40.08 474.334 46.64C474.334 56.32 465.854 71.12 451.854 71.12ZM453.374 68.24C458.974 68.24 465.694 51.92 465.694 42.48C465.694 40.08 464.894 38.64 462.734 38.64C457.694 38.64 450.334 54.24 450.334 64.24C450.334 67.04 451.534 68.24 453.374 68.24Z" fill="#3170B7"/>
</g>
<rect x="409" y="2" width="101" height="100" rx="11" stroke="#3170B7" stroke-width="2"/>
<rect x="548" y="1" width="99" height="100" rx="11" fill="#FDFEF0"/>
<rect x="548" y="1" width="99" height="100" rx="11" stroke="#3170B7" stroke-width="2"/>
<path d="M567.201 78.4C565.921 78.4 565.361 78.16 565.361 77.52C565.361 76.8 566.241 76.56 568.081 76C571.441 75.04 572.961 74.56 573.681 72.24L585.601 33.92C586.721 30.24 586.881 28.96 583.361 28.24C581.761 27.92 581.441 27.36 581.441 26.64C581.441 26 582.561 25.76 583.841 25.76C587.841 25.76 588.481 26 591.441 26C594.481 26 595.361 25.76 599.361 25.76C600.641 25.76 601.281 26 601.281 26.64C601.281 27.36 600.161 27.92 598.321 28.24C594.401 28.96 592.481 30.8 591.521 33.92L586.641 49.68C586.481 50.32 586.961 50.4 587.441 50.4H614.241C614.641 50.4 614.801 50.16 615.041 49.44L619.921 33.84C620.801 30.96 620.241 28.96 616.721 28.24C615.121 27.92 614.801 27.36 614.801 26.64C614.801 26 615.921 25.76 617.201 25.76C621.201 25.76 622.401 26 625.761 26C628.401 26 628.561 25.76 632.561 25.76C633.841 25.76 634.481 26 634.481 26.64C634.481 27.36 633.361 27.92 631.521 28.24C627.601 28.96 626.881 30.8 625.921 33.84L614.321 71.52C613.521 74.08 614.081 75.52 617.041 76.08C618.641 76.4 619.041 76.8 619.041 77.52C619.041 78.16 617.921 78.4 616.641 78.4C612.641 78.4 612.081 78 609.041 78C605.921 78 604.961 78.4 600.961 78.4C599.681 78.4 599.041 78.16 599.041 77.52C599.041 76.8 600.081 76.4 601.921 76.08C605.281 75.52 607.681 73.68 608.801 70.24L613.761 54.64C613.921 54.08 614.241 53.44 613.761 53.44H586.161C585.841 53.44 585.681 53.68 585.521 54.32L580.801 69.68C579.361 74.24 581.201 75.44 584.561 76.08C586.161 76.4 586.561 76.8 586.561 77.52C586.561 78.16 585.441 78.4 584.161 78.4C580.161 78.4 578.881 78 575.521 78C572.321 78 571.201 78.4 567.201 78.4Z" fill="#3170B7"/>
<line x1="367.724" y1="97.5885" x2="417.885" y2="147.75" stroke="#3170B7" stroke-width="3"/>
<g clip-path="url(#clip3_488_46)">
<rect x="423.577" y="107.473" width="101.936" height="101.936" rx="12" transform="rotate(15 423.577 107.473)" fill="#3170B7"/>
<path d="M461.218 207.366C460.368 207.138 459.875 206.509 460.268 205.041C460.537 204.036 461.483 202.053 462.485 200.168C463.662 198.247 464.922 196.018 465.564 193.622C465.978 192.077 465.412 191.097 462.708 190.372L430.793 181.821C427.702 180.992 425.533 180.743 421.824 179.749C420.742 179.459 420.207 178.984 420.45 178.387C420.734 177.635 421.884 177.363 423.512 177.468C427.505 177.71 429.572 177.104 431.607 173.839L451.727 141.712C453.664 138.504 452.604 136.895 449.488 135.232C448.16 134.627 447.897 134.06 448.182 133.308C448.425 132.711 449.589 132.691 450.594 132.961C454.226 133.934 456.441 134.941 459.609 135.79C463.086 136.722 466.126 137.122 469.835 138.116C470.917 138.406 471.375 138.86 471.132 139.458C470.827 140.287 469.817 140.348 468.189 140.243C463.999 140.114 461.525 140.693 459.532 143.803L438.828 177.182C437.191 179.891 437.504 180.886 440.363 181.652C443.145 182.397 445.772 183.101 448.013 183.702C451.027 184.509 452.882 185.006 455.586 185.731C458.754 186.58 460.45 186.123 462.066 183.492L482.792 150.036C484.707 146.905 483.704 145.394 480.475 143.535C479.244 142.874 478.864 142.44 479.246 141.632C479.412 141.014 480.499 140.974 481.581 141.264C485.29 142.257 487.659 143.306 490.827 144.155C494.305 145.087 497.19 145.446 500.822 146.419C501.827 146.688 502.362 147.163 502.119 147.761C501.835 148.513 500.783 148.728 499.176 148.546C495.259 148.324 492.687 148.96 490.674 152.148L470.672 184.141C468.596 187.56 470.841 189.073 473.525 189.875C475.281 190.428 475.12 191.959 473.794 193.508C471.672 196.17 467.24 201.277 464.22 205.437C463.286 206.76 462.146 207.614 461.218 207.366Z" fill="#FDFEF0"/>
</g>
<rect x="424.284" y="108.697" width="99.936" height="99.936" rx="11" transform="rotate(15 424.284 108.697)" stroke="#3170B7" stroke-width="2"/>
<g clip-path="url(#clip4_488_46)">
<rect x="547" y="116" width="101" height="103" rx="12" fill="#FDFEF0"/>
<path d="M579.467 183.24C578.907 183.24 577.867 183.16 577.867 182.52C577.867 181.72 578.827 181.4 579.707 181.08C581.307 180.6 583.067 180.2 583.067 177.96V156.04C583.067 153.88 581.627 153.4 580.027 152.92C579.147 152.6 578.187 152.28 578.187 151.48C578.187 150.84 579.227 150.76 579.787 150.76C582.987 150.76 583.147 151.16 585.947 151.16C588.747 151.16 588.747 150.76 591.947 150.76C592.507 150.76 593.547 150.84 593.547 151.48C593.547 152.28 592.587 152.6 591.707 152.92C590.107 153.4 588.667 153.88 588.667 156.04V172.04C588.667 172.44 589.307 172.68 589.467 172.52L604.747 156.76C604.987 156.36 605.147 156.44 605.147 155.88C605.147 153.72 603.947 153.4 602.347 152.92C601.467 152.6 600.507 152.28 600.507 151.48C600.507 150.84 601.467 150.76 602.107 150.76C605.307 150.76 605.307 151.16 608.107 151.16C610.907 151.16 611.067 150.76 614.267 150.76C614.907 150.76 615.867 150.84 615.867 151.48C615.867 152.28 614.907 152.6 614.027 152.92C612.427 153.4 610.747 153.88 610.747 156.04V177.96C610.747 180.12 612.667 180.6 614.267 181.08C615.147 181.4 616.107 181.72 616.107 182.52C616.107 183.16 615.067 183.24 614.507 183.24C611.307 183.24 610.827 182.84 608.027 182.84C605.227 182.84 604.747 183.24 601.547 183.24C600.987 183.24 599.947 183.16 599.947 182.52C599.947 181.72 600.907 181.4 601.787 181.08C603.387 180.6 605.147 180.12 605.147 177.96V160.92C605.147 160.52 604.987 160.36 604.827 160.52L588.907 177.08C588.667 177.32 588.667 177.48 588.667 177.96C588.667 180.2 590.587 180.6 592.187 181.08C593.067 181.4 594.027 181.72 594.027 182.52C594.027 183.16 592.987 183.24 592.427 183.24C589.227 183.24 588.747 182.84 585.947 182.84C583.147 182.84 582.667 183.24 579.467 183.24Z" fill="#3170B7"/>
</g>
<rect x="548" y="117" width="99" height="101" rx="11" stroke="#3170B7" stroke-width="2"/>
<g clip-path="url(#clip5_488_46)">
<rect x="270" y="117" width="103" height="103" rx="12" fill="#FDFEF0"/>
<path d="M335.227 186.12C324.747 186.12 323.547 180.12 318.667 170.2C318.107 169.16 318.027 168.68 316.507 168.68C315.947 168.68 315.627 168.92 315.627 169.4V179.48C315.627 180.84 316.427 181.56 319.467 182.52C320.347 182.84 320.907 183.16 320.907 184.04C320.907 184.76 320.427 185.16 319.707 185.16C316.667 185.16 312.507 184.84 309.707 184.84C306.907 184.84 303.227 185.24 300.107 185.24C299.467 185.24 298.827 184.76 298.827 184.12C298.827 183.32 299.307 182.76 300.187 182.52C303.067 181.8 304.027 181.24 304.027 179.56V156.44C304.027 154.76 303.067 154.2 300.187 153.48C299.307 153.24 298.827 152.68 298.827 151.88C298.827 151.24 299.467 150.76 300.107 150.76C303.227 150.76 306.907 151.16 309.707 151.16C312.507 151.16 316.667 150.84 319.707 150.84C320.427 150.84 320.907 151.24 320.907 151.96C320.907 152.84 320.347 153.16 319.467 153.48C316.427 154.44 315.627 155.16 315.627 156.52V163.96C315.627 164.68 316.107 165.08 316.827 165.08C321.227 165.08 323.227 163.08 324.907 160.52C327.867 155.96 328.747 149.64 335.947 149.64C338.507 149.64 340.907 151.24 340.907 154.36C340.907 157.08 339.467 158.6 337.867 158.6C336.107 158.6 334.187 157.4 332.587 157.4C331.387 157.4 330.907 157.64 330.027 159.4C329.467 160.52 328.747 161.56 327.867 163C327.467 163.72 327.547 163.72 327.787 164.28C328.587 166.2 330.587 169.88 332.747 173.48C335.547 177.88 338.747 182.12 340.747 182.44C341.787 182.6 342.587 182.92 342.587 184.04C342.587 185.24 339.307 186.12 335.227 186.12Z" fill="#3170B7"/>
</g>
<rect x="271" y="118" width="101" height="101" rx="11" stroke="#3170B7" stroke-width="2"/>
<rect x="1" y="118" width="99" height="101" rx="11" fill="#FDFEF0"/>
<rect x="1" y="118" width="99" height="101" rx="11" stroke="#3170B7" stroke-width="2"/>
<path d="M49.84 178.6C49.04 178.6 48.64 177.8 48.4 175.48C47.44 166.36 46.32 152.52 46.32 147.48C46.32 145.16 47.92 143.08 50.08 143.08C52.24 143.08 53.68 145.16 53.68 147.48C53.68 152.52 52.24 166.44 51.28 175.48C51.12 177.24 50.64 178.6 49.84 178.6ZM50 196.12C47.36 196.12 45.2 193.96 45.2 191.32C45.2 188.68 47.36 186.52 50 186.52C52.64 186.52 54.8 188.68 54.8 191.32C54.8 193.96 52.64 196.12 50 196.12Z" fill="#3170B7"/>
<rect x="136" y="238" width="101" height="99" rx="11" fill="#FDFEF0"/>
<rect x="136" y="238" width="101" height="99" rx="11" stroke="#3170B7" stroke-width="2"/>
<path d="M175.212 317.16C173.852 317.16 172.892 316.92 172.892 316.28C172.892 315.56 173.692 315.16 175.532 314.84C179.532 314.12 181.772 313.88 181.772 310.68V308.92C168.572 308.92 157.692 300.76 157.692 287.32C157.692 274.68 168.412 266.6 181.772 266.6V264.68C181.772 263.08 180.412 262.2 176.412 261.48C174.572 261.16 173.772 260.6 173.772 259.88C173.772 259.24 174.732 259 176.092 259C180.412 259 181.772 259.24 185.452 259.24C188.892 259.24 189.852 259 194.172 259C195.532 259 196.492 259.24 196.492 259.88C196.492 260.6 195.692 261.16 193.852 261.48C189.852 262.2 188.172 263.08 188.172 264.68V266.6C201.212 266.6 212.332 273.88 212.332 286.28C212.332 300.04 201.692 308.92 188.172 308.92V310.68C188.172 313.88 190.492 314.12 194.492 314.84C196.332 315.16 197.132 315.56 197.132 316.28C197.132 316.92 196.172 317.16 194.812 317.16C190.492 317.16 189.132 316.76 185.452 316.76C181.452 316.76 179.532 317.16 175.212 317.16ZM181.772 306.28V269.08C171.532 269.08 165.052 276.2 165.052 285.64C165.052 296.92 170.652 306.28 181.772 306.28ZM188.172 306.44C198.732 306.44 204.972 298.28 204.972 287.56C204.972 277.48 198.972 269.08 188.172 269.08V306.44Z" fill="#3170B7"/>
<rect x="1" y="238" width="99" height="99" rx="11" fill="#FDFEF0"/>
<rect x="1" y="238" width="99" height="99" rx="11" stroke="#3170B7" stroke-width="2"/>
<path d="M23.5991 315.24C22.8791 315.24 22.0791 314.84 22.0791 314.12C22.0791 313.24 23.4391 312.68 24.6391 312.44C28.8791 311.48 30.4791 310.6 31.5191 307.16L42.7191 271.16C43.8391 267.48 42.7991 266.2 39.0391 265.4C37.7591 265.16 37.0391 264.52 37.1991 263.8C37.4391 263.16 38.7991 262.6 39.7591 262.6C42.7991 262.6 47.6791 263.08 50.7191 263C53.1191 262.84 57.0391 262.44 60.9591 262.44C72.0791 262.44 78.7191 268.76 78.4791 277.56C78.0791 288.44 67.9191 296.28 54.6391 296.28C52.0791 296.28 51.0391 295.8 51.0391 294.6C51.0391 293.88 51.8391 293.56 52.7991 293.4C53.9191 293.24 54.7991 293 56.1591 292.76C63.3591 291.4 67.3591 283.96 67.3591 277C67.3591 267.8 63.5991 265.64 58.9591 265.64C57.3591 265.64 56.5591 266.12 54.7991 271.8L43.9191 307C42.7991 310.52 44.3991 311.48 48.6391 312.44C49.6791 312.68 50.4791 313.08 50.4791 314.04C50.4791 314.84 48.9591 315.24 47.7591 315.24C44.3191 315.24 38.3991 314.84 35.3591 314.84C32.0791 314.84 27.1991 315.24 23.5991 315.24Z" fill="#3170B7"/>
<g clip-path="url(#clip6_488_46)">
<rect x="135" width="103" height="102" rx="12" fill="#FDFEF0"/>
<path d="M160.333 61.28V1.2H166.013V55.6H185.213C182.733 52.8 180.093 48.48 177.533 42.88H182.093C187.693 49.36 193.613 54.24 199.693 57.28V59.6C193.613 62.64 187.693 67.44 182.093 74H177.533C180.093 68.4 182.733 64.08 185.213 61.28H160.333Z" fill="#3170B7"/>
</g>
<rect x="136" y="1" width="101" height="100" rx="11" stroke="#3170B7" stroke-width="2"/>
<rect x="271" y="1" width="101" height="100" rx="11" fill="#FDFEF0"/>
<rect x="271" y="1" width="101" height="100" rx="11" stroke="#3170B7" stroke-width="2"/>
<path d="M293.171 78.4C291.811 78.4 290.851 78.16 290.851 77.52C290.851 76.8 291.651 76.4 293.491 76.08C297.491 75.36 298.291 73.92 298.291 70.08V33.92C298.291 30.24 298.051 28.96 294.051 28.24C292.211 27.92 291.411 27.36 291.411 26.64C291.411 26 292.371 25.76 293.731 25.76C298.051 25.76 298.771 26 301.971 26C305.251 26 306.131 25.76 310.451 25.76C311.811 25.76 312.771 26 312.771 26.64C312.771 27.36 311.971 27.92 310.131 28.24C306.131 28.96 304.691 30.8 304.691 33.92V64.24C304.691 65.36 305.011 65.68 305.571 65.12L336.531 34.32C337.011 33.84 337.171 33.44 337.171 33.04V32.72C337.011 30.24 335.251 28.88 331.971 28.24C330.131 27.92 329.331 27.36 329.331 26.64C329.331 26 330.291 25.76 331.651 25.76C335.971 25.76 337.331 26 340.931 26C343.811 26 344.051 25.76 348.371 25.76C349.731 25.76 350.691 26 350.691 26.64C350.691 27.36 349.891 27.92 348.051 28.24C344.051 28.96 343.651 30.8 343.651 33.84V70C343.651 73.92 344.211 75.36 348.211 76.08C350.051 76.4 350.851 76.8 350.851 77.52C350.851 78.16 349.891 78.4 348.531 78.4C344.211 78.4 343.331 78 340.051 78C336.691 78 335.811 78.4 331.491 78.4C330.131 78.4 329.171 78.16 329.171 77.52C329.171 76.8 329.971 76.4 331.811 76.08C335.171 75.44 337.171 74.32 337.171 71.2V39.36C337.171 38.48 336.931 38.24 336.371 38.8L305.331 69.68C304.691 70.32 304.771 70.24 304.771 71.2C304.771 74.56 307.331 75.44 311.011 76.08C312.851 76.4 313.651 76.8 313.651 77.52C313.651 78.16 312.691 78.4 311.331 78.4C307.011 78.4 305.651 78 301.971 78C298.531 78 297.491 78.4 293.171 78.4Z" fill="#3170B7"/>
<line x1="98.0371" y1="97.8336" x2="137.961" y2="122.402" stroke="#3170B7" stroke-width="3"/>
<line x1="140.033" y1="215.027" x2="98.0619" y2="241.992" stroke="#3170B7" stroke-width="3"/>
<line x1="272" y1="285.5" x2="238" y2="285.5" stroke="#3170B7" stroke-width="3"/>
<line x1="318.5" y1="238" x2="318.5" y2="219" stroke="#3170B7" stroke-width="3"/>
<line x1="371" y1="55.5" x2="408" y2="55.5" stroke="#3170B7" stroke-width="3"/>
<line x1="511" y1="55.5" x2="548" y2="55.5" stroke="#3170B7" stroke-width="3"/>
<line x1="548" y1="285.5" x2="511" y2="285.5" stroke="#3170B7" stroke-width="3"/>
<line x1="373" y1="167.5" x2="409" y2="167.5" stroke="#3170B7" stroke-width="3"/>
<defs>
<clipPath id="clip0_488_46">
<rect x="270" y="237" width="103" height="101" rx="12" fill="white"/>
</clipPath>
<clipPath id="clip1_488_46">
<rect x="408" y="238" width="103" height="101" rx="12" fill="white"/>
</clipPath>
<clipPath id="clip2_488_46">
<rect x="408" y="1" width="103" height="102" rx="12" fill="white"/>
</clipPath>
<clipPath id="clip3_488_46">
<rect x="423.577" y="107.473" width="101.936" height="101.936" rx="12" transform="rotate(15 423.577 107.473)" fill="white"/>
</clipPath>
<clipPath id="clip4_488_46">
<rect x="547" y="116" width="101" height="103" rx="12" fill="white"/>
</clipPath>
<clipPath id="clip5_488_46">
<rect x="270" y="117" width="103" height="103" rx="12" fill="white"/>
</clipPath>
<clipPath id="clip6_488_46">
<rect x="135" width="103" height="102" rx="12" fill="white"/>
</clipPath>
</defs>
</svg>
