<svg width="1440" height="680" viewBox="0 0 1440 680" fill="none" xmlns="http://www.w3.org/2000/svg">
<g clip-path="url(#clip0_483_286)">
<rect width="1440" height="680" fill="#FDFEF0"/>
<rect width="1440" height="680" fill="#3170B7"/>
<rect width="1440" height="680" fill="#3170B7"/>
<line x1="2396" y1="56.5005" x2="-978" y2="56.5002" stroke="#FDFEF0"/>
<line x1="1389.5" y1="-2694" x2="1389.5" y2="680" stroke="#FDFEF0"/>
<line x1="54.5" y1="-2694" x2="54.5001" y2="680" stroke="#FDFEF0"/>
<path d="M34.555 56.21C34.465 56.21 34.375 56.18 34.3 56.105C33.235 55.04 31.6 51.515 31.6 48.965C31.6 46.415 33.175 43.655 34.24 42.59C34.33 42.5 34.495 42.425 34.645 42.425C34.75 42.425 34.975 42.53 34.975 42.665C34.975 42.695 34.81 42.92 34.78 42.95C33.865 44.015 32.845 46.235 32.845 48.785C32.845 51.335 33.82 54.53 34.735 55.595C34.75 55.625 34.96 55.85 34.96 55.88C34.96 56.09 34.75 56.21 34.555 56.21ZM37.3664 53.57C37.1414 53.57 36.8114 53.525 36.8114 53.39C36.8114 53.24 37.1714 53.105 37.3514 53.105C39.7214 53.105 40.8464 51.605 40.8464 50.315C40.8464 49.16 39.9014 48.425 37.2464 47.735C36.9764 47.51 36.8864 47.315 36.8864 47.045C36.8864 46.505 37.3964 45.32 37.6064 44.66C37.7114 44.36 37.9064 44.195 38.2214 44.12C39.1364 43.88 40.1564 43.7 41.3264 43.595C41.4764 43.58 41.5664 43.715 41.4914 43.85C41.4014 44.015 41.3114 44.195 41.2364 44.345C41.1014 44.645 40.9364 44.795 40.6814 44.825C39.9014 44.915 38.5514 45.02 38.1014 45.095C37.8914 45.125 37.4564 46.04 37.4414 46.28C37.4264 46.415 37.4564 46.52 37.6364 46.565C38.7614 46.895 39.6764 47.21 40.3664 47.57C41.4764 48.155 42.0314 48.89 42.0314 50.105C42.0314 51.2 41.3114 52.205 40.2014 52.85C39.4064 53.3 38.4314 53.57 37.3664 53.57ZM46.0885 53.045C45.9835 53.045 45.8185 52.985 45.8185 52.85C45.8185 52.745 45.9685 52.685 46.0885 52.67C47.0185 52.55 47.2435 52.28 47.2435 51.8V50.405C47.2435 50.315 47.0335 50.27 47.0185 50.27C45.7885 50.27 44.9485 50.36 43.3735 50.375C43.2985 50.375 43.2235 50.285 43.2235 50.225C43.2235 50.21 43.2235 50.195 43.2385 50.18C43.6135 49.715 43.6285 49.745 43.8235 49.475L47.7835 43.79C47.9035 43.61 48.0835 43.37 48.2335 43.37H48.5485C48.6385 43.37 48.5185 43.58 48.5185 43.58L44.4685 49.4C44.4385 49.445 44.4085 49.535 44.4685 49.535H47.0635C47.1385 49.535 47.2435 49.475 47.2435 49.415V47.09C47.2435 46.88 47.2585 46.82 47.3785 46.76C47.6785 46.595 48.0835 46.565 48.2185 46.565C48.4435 46.565 48.4435 46.895 48.4435 47.525V49.46C48.4435 49.505 48.4735 49.55 48.5185 49.55C48.7435 49.565 48.9385 49.565 49.1185 49.565C49.4035 49.565 49.6735 49.55 50.0035 49.535C50.0935 49.535 50.1685 49.595 50.1685 49.655C50.1685 49.895 49.9135 50.225 49.8535 50.225C49.6285 50.225 49.3585 50.21 49.1185 50.21C48.9385 50.21 48.7735 50.225 48.6535 50.24C48.5785 50.255 48.4585 50.315 48.4585 50.33V51.74C48.4585 52.325 48.6535 52.46 49.4635 52.67C49.5835 52.7 49.7335 52.79 49.7335 52.88C49.7335 52.97 49.6285 53.045 49.5085 53.045C48.6535 53.045 48.5185 52.97 47.8135 52.97C47.0485 52.97 46.8985 53.045 46.0885 53.045ZM51.3155 56.21C51.1205 56.21 50.9105 56.09 50.9105 55.88C50.9105 55.85 51.1205 55.625 51.1355 55.595C52.0505 54.53 53.0255 51.335 53.0255 48.785C53.0255 46.235 52.0055 44.015 51.0905 42.95C51.0605 42.92 50.8955 42.695 50.8955 42.665C50.8955 42.53 51.1205 42.425 51.2255 42.425C51.3755 42.425 51.5405 42.5 51.6305 42.59C52.6955 43.655 54.2705 46.415 54.2705 48.965C54.2705 51.515 52.6355 55.04 51.5705 56.105C51.4955 56.18 51.4055 56.21 51.3155 56.21Z" fill="white"/>
<path d="M34.555 680.21C34.465 680.21 34.375 680.18 34.3 680.105C33.235 679.04 31.6 675.515 31.6 672.965C31.6 670.415 33.175 667.655 34.24 666.59C34.33 666.5 34.495 666.425 34.645 666.425C34.75 666.425 34.975 666.53 34.975 666.665C34.975 666.695 34.81 666.92 34.78 666.95C33.865 668.015 32.845 670.235 32.845 672.785C32.845 675.335 33.82 678.53 34.735 679.595C34.75 679.625 34.96 679.85 34.96 679.88C34.96 680.09 34.75 680.21 34.555 680.21ZM37.3664 677.57C37.1414 677.57 36.8114 677.525 36.8114 677.39C36.8114 677.24 37.1714 677.105 37.3514 677.105C39.7214 677.105 40.8464 675.605 40.8464 674.315C40.8464 673.16 39.9014 672.425 37.2464 671.735C36.9764 671.51 36.8864 671.315 36.8864 671.045C36.8864 670.505 37.3964 669.32 37.6064 668.66C37.7114 668.36 37.9064 668.195 38.2214 668.12C39.1364 667.88 40.1564 667.7 41.3264 667.595C41.4764 667.58 41.5664 667.715 41.4914 667.85C41.4014 668.015 41.3114 668.195 41.2364 668.345C41.1014 668.645 40.9364 668.795 40.6814 668.825C39.9014 668.915 38.5514 669.02 38.1014 669.095C37.8914 669.125 37.4564 670.04 37.4414 670.28C37.4264 670.415 37.4564 670.52 37.6364 670.565C38.7614 670.895 39.6764 671.21 40.3664 671.57C41.4764 672.155 42.0314 672.89 42.0314 674.105C42.0314 675.2 41.3114 676.205 40.2014 676.85C39.4064 677.3 38.4314 677.57 37.3664 677.57ZM46.0885 677.045C45.9835 677.045 45.8185 676.985 45.8185 676.85C45.8185 676.745 45.9685 676.685 46.0885 676.67C47.0185 676.55 47.2435 676.28 47.2435 675.8V674.405C47.2435 674.315 47.0335 674.27 47.0185 674.27C45.7885 674.27 44.9485 674.36 43.3735 674.375C43.2985 674.375 43.2235 674.285 43.2235 674.225C43.2235 674.21 43.2235 674.195 43.2385 674.18C43.6135 673.715 43.6285 673.745 43.8235 673.475L47.7835 667.79C47.9035 667.61 48.0835 667.37 48.2335 667.37H48.5485C48.6385 667.37 48.5185 667.58 48.5185 667.58L44.4685 673.4C44.4385 673.445 44.4085 673.535 44.4685 673.535H47.0635C47.1385 673.535 47.2435 673.475 47.2435 673.415V671.09C47.2435 670.88 47.2585 670.82 47.3785 670.76C47.6785 670.595 48.0835 670.565 48.2185 670.565C48.4435 670.565 48.4435 670.895 48.4435 671.525V673.46C48.4435 673.505 48.4735 673.55 48.5185 673.55C48.7435 673.565 48.9385 673.565 49.1185 673.565C49.4035 673.565 49.6735 673.55 50.0035 673.535C50.0935 673.535 50.1685 673.595 50.1685 673.655C50.1685 673.895 49.9135 674.225 49.8535 674.225C49.6285 674.225 49.3585 674.21 49.1185 674.21C48.9385 674.21 48.7735 674.225 48.6535 674.24C48.5785 674.255 48.4585 674.315 48.4585 674.33V675.74C48.4585 676.325 48.6535 676.46 49.4635 676.67C49.5835 676.7 49.7335 676.79 49.7335 676.88C49.7335 676.97 49.6285 677.045 49.5085 677.045C48.6535 677.045 48.5185 676.97 47.8135 676.97C47.0485 676.97 46.8985 677.045 46.0885 677.045ZM51.3155 680.21C51.1205 680.21 50.9105 680.09 50.9105 679.88C50.9105 679.85 51.1205 679.625 51.1355 679.595C52.0505 678.53 53.0255 675.335 53.0255 672.785C53.0255 670.235 52.0055 668.015 51.0905 666.95C51.0605 666.92 50.8955 666.695 50.8955 666.665C50.8955 666.53 51.1205 666.425 51.2255 666.425C51.3755 666.425 51.5405 666.5 51.6305 666.59C52.6955 667.655 54.2705 670.415 54.2705 672.965C54.2705 675.515 52.6355 679.04 51.5705 680.105C51.4955 680.18 51.4055 680.21 51.3155 680.21Z" fill="white"/>
<path d="M1392.56 56.21C1392.47 56.21 1392.38 56.18 1392.3 56.105C1391.24 55.04 1389.6 51.515 1389.6 48.965C1389.6 46.415 1391.18 43.655 1392.24 42.59C1392.33 42.5 1392.5 42.425 1392.65 42.425C1392.75 42.425 1392.98 42.53 1392.98 42.665C1392.98 42.695 1392.81 42.92 1392.78 42.95C1391.87 44.015 1390.85 46.235 1390.85 48.785C1390.85 51.335 1391.82 54.53 1392.74 55.595C1392.75 55.625 1392.96 55.85 1392.96 55.88C1392.96 56.09 1392.75 56.21 1392.56 56.21ZM1395.37 53.57C1395.14 53.57 1394.81 53.525 1394.81 53.39C1394.81 53.24 1395.17 53.105 1395.35 53.105C1397.72 53.105 1398.85 51.605 1398.85 50.315C1398.85 49.16 1397.9 48.425 1395.25 47.735C1394.98 47.51 1394.89 47.315 1394.89 47.045C1394.89 46.505 1395.4 45.32 1395.61 44.66C1395.71 44.36 1395.91 44.195 1396.22 44.12C1397.14 43.88 1398.16 43.7 1399.33 43.595C1399.48 43.58 1399.57 43.715 1399.49 43.85C1399.4 44.015 1399.31 44.195 1399.24 44.345C1399.1 44.645 1398.94 44.795 1398.68 44.825C1397.9 44.915 1396.55 45.02 1396.1 45.095C1395.89 45.125 1395.46 46.04 1395.44 46.28C1395.43 46.415 1395.46 46.52 1395.64 46.565C1396.76 46.895 1397.68 47.21 1398.37 47.57C1399.48 48.155 1400.03 48.89 1400.03 50.105C1400.03 51.2 1399.31 52.205 1398.2 52.85C1397.41 53.3 1396.43 53.57 1395.37 53.57ZM1404.09 53.045C1403.98 53.045 1403.82 52.985 1403.82 52.85C1403.82 52.745 1403.97 52.685 1404.09 52.67C1405.02 52.55 1405.24 52.28 1405.24 51.8V50.405C1405.24 50.315 1405.03 50.27 1405.02 50.27C1403.79 50.27 1402.95 50.36 1401.37 50.375C1401.3 50.375 1401.22 50.285 1401.22 50.225C1401.22 50.21 1401.22 50.195 1401.24 50.18C1401.61 49.715 1401.63 49.745 1401.82 49.475L1405.78 43.79C1405.9 43.61 1406.08 43.37 1406.23 43.37H1406.55C1406.64 43.37 1406.52 43.58 1406.52 43.58L1402.47 49.4C1402.44 49.445 1402.41 49.535 1402.47 49.535H1405.06C1405.14 49.535 1405.24 49.475 1405.24 49.415V47.09C1405.24 46.88 1405.26 46.82 1405.38 46.76C1405.68 46.595 1406.08 46.565 1406.22 46.565C1406.44 46.565 1406.44 46.895 1406.44 47.525V49.46C1406.44 49.505 1406.47 49.55 1406.52 49.55C1406.74 49.565 1406.94 49.565 1407.12 49.565C1407.4 49.565 1407.67 49.55 1408 49.535C1408.09 49.535 1408.17 49.595 1408.17 49.655C1408.17 49.895 1407.91 50.225 1407.85 50.225C1407.63 50.225 1407.36 50.21 1407.12 50.21C1406.94 50.21 1406.77 50.225 1406.65 50.24C1406.58 50.255 1406.46 50.315 1406.46 50.33V51.74C1406.46 52.325 1406.65 52.46 1407.46 52.67C1407.58 52.7 1407.73 52.79 1407.73 52.88C1407.73 52.97 1407.63 53.045 1407.51 53.045C1406.65 53.045 1406.52 52.97 1405.81 52.97C1405.05 52.97 1404.9 53.045 1404.09 53.045ZM1409.32 56.21C1409.12 56.21 1408.91 56.09 1408.91 55.88C1408.91 55.85 1409.12 55.625 1409.14 55.595C1410.05 54.53 1411.03 51.335 1411.03 48.785C1411.03 46.235 1410.01 44.015 1409.09 42.95C1409.06 42.92 1408.9 42.695 1408.9 42.665C1408.9 42.53 1409.12 42.425 1409.23 42.425C1409.38 42.425 1409.54 42.5 1409.63 42.59C1410.7 43.655 1412.27 46.415 1412.27 48.965C1412.27 51.515 1410.64 55.04 1409.57 56.105C1409.5 56.18 1409.41 56.21 1409.32 56.21Z" fill="white"/>
<path d="M1389.79 653.555C1389.79 653.465 1389.82 653.375 1389.89 653.3C1390.96 652.235 1394.49 650.6 1397.04 650.6C1399.59 650.6 1402.35 652.175 1403.41 653.24C1403.5 653.33 1403.58 653.495 1403.58 653.645C1403.58 653.75 1403.47 653.975 1403.33 653.975C1403.31 653.975 1403.08 653.81 1403.05 653.78C1401.99 652.865 1399.77 651.845 1397.22 651.845C1394.67 651.845 1391.47 652.82 1390.4 653.735C1390.37 653.75 1390.15 653.96 1390.12 653.96C1389.91 653.96 1389.79 653.75 1389.79 653.555ZM1392.76 658.511C1392.76 656.966 1393.79 655.436 1395.89 655.436C1398.13 655.436 1399.58 656.681 1400.16 657.251C1400.92 658.001 1402.12 659.411 1402.61 661.256C1402.66 661.436 1402.57 661.556 1402.51 661.526C1402.33 661.436 1402.26 661.241 1402.21 661.136C1401.63 659.786 1400.94 658.871 1399.84 658.106C1399.12 657.611 1397.49 656.726 1395.92 656.726C1394.26 656.756 1393.34 657.881 1393.33 658.871C1393.31 659.681 1393.88 660.416 1395.13 660.416C1396.04 660.416 1396.9 659.846 1396.9 659.051C1396.9 658.526 1396.85 658.196 1396.67 657.851C1396.58 657.671 1396.72 657.641 1396.84 657.746C1397 657.896 1397.08 657.986 1397.2 658.151C1397.36 658.376 1397.69 659.066 1397.69 659.621C1397.69 660.656 1396.93 661.586 1395.85 661.586C1393.97 661.586 1392.76 659.966 1392.76 658.511ZM1392.79 665.568C1392.79 664.188 1393.73 662.913 1395.11 662.913C1396.43 662.913 1397.11 664.158 1397.53 664.923C1397.6 665.058 1397.62 664.998 1397.72 664.878C1398.49 663.978 1399.06 663.138 1400.33 663.138C1401.5 663.138 1402.45 664.533 1402.45 665.868C1402.45 667.068 1401.65 668.253 1400.44 668.253C1399.72 668.253 1399.3 667.803 1399 667.458C1398.76 667.173 1398.62 667.008 1398.37 666.663C1398.19 666.408 1398.16 666.423 1398.05 666.588C1397.27 667.713 1396.61 668.523 1395.46 668.523C1393.9 668.523 1392.79 667.038 1392.79 665.568ZM1398.37 666.258C1398.94 666.948 1399.63 667.098 1400.54 667.098C1401.38 667.098 1402.09 666.663 1402.09 665.793C1402.09 665.103 1401.44 664.293 1400.63 664.293C1399.48 664.293 1399.27 664.998 1398.41 666.048C1398.37 666.108 1398.32 666.198 1398.37 666.258ZM1393.22 665.778C1393.22 666.663 1393.97 667.323 1394.86 667.323C1395.79 667.323 1396.6 666.423 1397.2 665.553C1397.29 665.433 1397.35 665.343 1397.35 665.253C1397.35 665.208 1397.32 665.148 1397.26 665.073C1396.73 664.428 1396.31 664.113 1395.35 664.113C1394.3 664.113 1393.22 664.728 1393.22 665.778ZM1392.79 672.821C1392.79 670.781 1395.31 669.821 1397.53 669.821C1399.81 669.821 1402.45 670.751 1402.45 672.971C1402.45 675.011 1399.91 675.971 1397.74 675.971C1395.49 675.971 1392.79 675.041 1392.79 672.821ZM1393.18 673.076C1393.18 674.276 1395.22 674.741 1397.47 674.741C1399.72 674.741 1402.03 674.036 1402.03 672.686C1402.03 671.486 1400.05 671.066 1397.8 671.066C1395.55 671.066 1393.18 671.726 1393.18 673.076ZM1389.79 677.523C1389.79 677.328 1389.91 677.118 1390.12 677.118C1390.15 677.118 1390.37 677.328 1390.4 677.343C1391.47 678.258 1394.66 679.233 1397.21 679.233C1399.76 679.233 1401.98 678.213 1403.05 677.298C1403.08 677.268 1403.3 677.103 1403.33 677.103C1403.47 677.103 1403.57 677.328 1403.57 677.433C1403.57 677.583 1403.5 677.748 1403.41 677.838C1402.34 678.903 1399.58 680.478 1397.03 680.478C1394.48 680.478 1390.96 678.843 1389.89 677.778C1389.82 677.703 1389.79 677.613 1389.79 677.523Z" fill="white"/>
</g>
<defs>
<clipPath id="clip0_483_286">
<rect width="1440" height="680" fill="white"/>
</clipPath>
</defs>
</svg>
